<mxfile host="app.diagrams.net" agent="Mozilla/5.0 (Windows NT 10.0; Win64; x64) AppleWebKit/537.36 (KHTML, like Gecko) Chrome/131.0.0.0 Safari/537.36" version="24.9.1">
  <diagram name="Page-1" id="16e2658f-23c8-b752-8be9-c03fbebb8bbe">
    <mxGraphModel dx="2662" dy="818" grid="1" gridSize="10" guides="1" tooltips="1" connect="1" arrows="1" fold="1" page="1" pageScale="1" pageWidth="1100" pageHeight="850" background="none" math="0" shadow="0">
      <root>
        <mxCell id="0" />
        <mxCell id="1" parent="0" />
        <mxCell id="SeUheRbBUvaC_YqdOnx2-1" value="" style="shape=table;startSize=0;container=1;collapsible=0;childLayout=tableLayout;fontSize=16;" vertex="1" parent="1">
          <mxGeometry x="870" y="200" width="130" height="400" as="geometry" />
        </mxCell>
        <mxCell id="SeUheRbBUvaC_YqdOnx2-2" value="" style="shape=tableRow;horizontal=0;startSize=0;swimlaneHead=0;swimlaneBody=0;strokeColor=inherit;top=0;left=0;bottom=0;right=0;collapsible=0;dropTarget=0;fillColor=none;points=[[0,0.5],[1,0.5]];portConstraint=eastwest;fontSize=10;" vertex="1" parent="SeUheRbBUvaC_YqdOnx2-1">
          <mxGeometry width="130" height="20" as="geometry" />
        </mxCell>
        <mxCell id="SeUheRbBUvaC_YqdOnx2-3" value="GP0" style="shape=partialRectangle;html=1;whiteSpace=wrap;connectable=0;strokeColor=inherit;overflow=hidden;fillColor=none;top=0;left=0;bottom=0;right=0;pointerEvents=1;fontSize=10;" vertex="1" parent="SeUheRbBUvaC_YqdOnx2-2">
          <mxGeometry width="60" height="20" as="geometry">
            <mxRectangle width="60" height="20" as="alternateBounds" />
          </mxGeometry>
        </mxCell>
        <mxCell id="SeUheRbBUvaC_YqdOnx2-4" value="" style="shape=partialRectangle;html=1;whiteSpace=wrap;connectable=0;strokeColor=inherit;overflow=hidden;fillColor=none;top=0;left=0;bottom=0;right=0;pointerEvents=1;fontSize=10;" vertex="1" parent="SeUheRbBUvaC_YqdOnx2-2">
          <mxGeometry x="60" width="10" height="20" as="geometry">
            <mxRectangle width="10" height="20" as="alternateBounds" />
          </mxGeometry>
        </mxCell>
        <mxCell id="SeUheRbBUvaC_YqdOnx2-5" value="VBUS" style="shape=partialRectangle;html=1;whiteSpace=wrap;connectable=0;strokeColor=#b85450;overflow=hidden;fillColor=#f8cecc;top=0;left=0;bottom=0;right=0;pointerEvents=1;fontSize=10;" vertex="1" parent="SeUheRbBUvaC_YqdOnx2-2">
          <mxGeometry x="70" width="60" height="20" as="geometry">
            <mxRectangle width="60" height="20" as="alternateBounds" />
          </mxGeometry>
        </mxCell>
        <mxCell id="SeUheRbBUvaC_YqdOnx2-6" value="" style="shape=tableRow;horizontal=0;startSize=0;swimlaneHead=0;swimlaneBody=0;strokeColor=inherit;top=0;left=0;bottom=0;right=0;collapsible=0;dropTarget=0;fillColor=none;points=[[0,0.5],[1,0.5]];portConstraint=eastwest;fontSize=10;" vertex="1" parent="SeUheRbBUvaC_YqdOnx2-1">
          <mxGeometry y="20" width="130" height="20" as="geometry" />
        </mxCell>
        <mxCell id="SeUheRbBUvaC_YqdOnx2-7" value="GP1" style="shape=partialRectangle;html=1;whiteSpace=wrap;connectable=0;strokeColor=inherit;overflow=hidden;fillColor=#B9E0A5;top=0;left=0;bottom=0;right=0;pointerEvents=1;fontSize=10;" vertex="1" parent="SeUheRbBUvaC_YqdOnx2-6">
          <mxGeometry width="60" height="20" as="geometry">
            <mxRectangle width="60" height="20" as="alternateBounds" />
          </mxGeometry>
        </mxCell>
        <mxCell id="SeUheRbBUvaC_YqdOnx2-8" value="" style="shape=partialRectangle;html=1;whiteSpace=wrap;connectable=0;strokeColor=inherit;overflow=hidden;fillColor=none;top=0;left=0;bottom=0;right=0;pointerEvents=1;fontSize=10;" vertex="1" parent="SeUheRbBUvaC_YqdOnx2-6">
          <mxGeometry x="60" width="10" height="20" as="geometry">
            <mxRectangle width="10" height="20" as="alternateBounds" />
          </mxGeometry>
        </mxCell>
        <mxCell id="SeUheRbBUvaC_YqdOnx2-9" value="VSYS" style="shape=partialRectangle;html=1;whiteSpace=wrap;connectable=0;strokeColor=#b85450;overflow=hidden;fillColor=#f8cecc;top=0;left=0;bottom=0;right=0;pointerEvents=1;fontSize=10;" vertex="1" parent="SeUheRbBUvaC_YqdOnx2-6">
          <mxGeometry x="70" width="60" height="20" as="geometry">
            <mxRectangle width="60" height="20" as="alternateBounds" />
          </mxGeometry>
        </mxCell>
        <mxCell id="SeUheRbBUvaC_YqdOnx2-10" value="" style="shape=tableRow;horizontal=0;startSize=0;swimlaneHead=0;swimlaneBody=0;strokeColor=inherit;top=0;left=0;bottom=0;right=0;collapsible=0;dropTarget=0;fillColor=none;points=[[0,0.5],[1,0.5]];portConstraint=eastwest;fontSize=10;" vertex="1" parent="SeUheRbBUvaC_YqdOnx2-1">
          <mxGeometry y="40" width="130" height="20" as="geometry" />
        </mxCell>
        <mxCell id="SeUheRbBUvaC_YqdOnx2-11" value="GND" style="shape=partialRectangle;html=1;whiteSpace=wrap;connectable=0;strokeColor=#36393d;overflow=hidden;fillColor=#eeeeee;top=0;left=0;bottom=0;right=0;pointerEvents=1;fontSize=10;" vertex="1" parent="SeUheRbBUvaC_YqdOnx2-10">
          <mxGeometry width="60" height="20" as="geometry">
            <mxRectangle width="60" height="20" as="alternateBounds" />
          </mxGeometry>
        </mxCell>
        <mxCell id="SeUheRbBUvaC_YqdOnx2-12" value="" style="shape=partialRectangle;html=1;whiteSpace=wrap;connectable=0;strokeColor=inherit;overflow=hidden;fillColor=none;top=0;left=0;bottom=0;right=0;pointerEvents=1;fontSize=10;" vertex="1" parent="SeUheRbBUvaC_YqdOnx2-10">
          <mxGeometry x="60" width="10" height="20" as="geometry">
            <mxRectangle width="10" height="20" as="alternateBounds" />
          </mxGeometry>
        </mxCell>
        <mxCell id="SeUheRbBUvaC_YqdOnx2-13" value="GND" style="shape=partialRectangle;html=1;whiteSpace=wrap;connectable=0;strokeColor=#36393d;overflow=hidden;fillColor=#eeeeee;top=0;left=0;bottom=0;right=0;pointerEvents=1;fontSize=10;" vertex="1" parent="SeUheRbBUvaC_YqdOnx2-10">
          <mxGeometry x="70" width="60" height="20" as="geometry">
            <mxRectangle width="60" height="20" as="alternateBounds" />
          </mxGeometry>
        </mxCell>
        <mxCell id="SeUheRbBUvaC_YqdOnx2-24" value="" style="shape=tableRow;horizontal=0;startSize=0;swimlaneHead=0;swimlaneBody=0;strokeColor=inherit;top=0;left=0;bottom=0;right=0;collapsible=0;dropTarget=0;fillColor=none;points=[[0,0.5],[1,0.5]];portConstraint=eastwest;fontSize=10;" vertex="1" parent="SeUheRbBUvaC_YqdOnx2-1">
          <mxGeometry y="60" width="130" height="20" as="geometry" />
        </mxCell>
        <mxCell id="SeUheRbBUvaC_YqdOnx2-25" value="GP2" style="shape=partialRectangle;html=1;whiteSpace=wrap;connectable=0;strokeColor=inherit;overflow=hidden;fillColor=#B9E0A5;top=0;left=0;bottom=0;right=0;pointerEvents=1;fontSize=10;" vertex="1" parent="SeUheRbBUvaC_YqdOnx2-24">
          <mxGeometry width="60" height="20" as="geometry">
            <mxRectangle width="60" height="20" as="alternateBounds" />
          </mxGeometry>
        </mxCell>
        <mxCell id="SeUheRbBUvaC_YqdOnx2-26" value="" style="shape=partialRectangle;html=1;whiteSpace=wrap;connectable=0;strokeColor=inherit;overflow=hidden;fillColor=none;top=0;left=0;bottom=0;right=0;pointerEvents=1;fontSize=10;" vertex="1" parent="SeUheRbBUvaC_YqdOnx2-24">
          <mxGeometry x="60" width="10" height="20" as="geometry">
            <mxRectangle width="10" height="20" as="alternateBounds" />
          </mxGeometry>
        </mxCell>
        <mxCell id="SeUheRbBUvaC_YqdOnx2-27" value="3V3_EN" style="shape=partialRectangle;html=1;whiteSpace=wrap;connectable=0;strokeColor=#d79b00;overflow=hidden;fillColor=#ffe6cc;top=0;left=0;bottom=0;right=0;pointerEvents=1;fontSize=10;" vertex="1" parent="SeUheRbBUvaC_YqdOnx2-24">
          <mxGeometry x="70" width="60" height="20" as="geometry">
            <mxRectangle width="60" height="20" as="alternateBounds" />
          </mxGeometry>
        </mxCell>
        <mxCell id="SeUheRbBUvaC_YqdOnx2-29" value="" style="shape=tableRow;horizontal=0;startSize=0;swimlaneHead=0;swimlaneBody=0;strokeColor=inherit;top=0;left=0;bottom=0;right=0;collapsible=0;dropTarget=0;fillColor=none;points=[[0,0.5],[1,0.5]];portConstraint=eastwest;fontSize=10;" vertex="1" parent="SeUheRbBUvaC_YqdOnx2-1">
          <mxGeometry y="80" width="130" height="20" as="geometry" />
        </mxCell>
        <mxCell id="SeUheRbBUvaC_YqdOnx2-30" value="GP3" style="shape=partialRectangle;html=1;whiteSpace=wrap;connectable=0;strokeColor=inherit;overflow=hidden;fillColor=#B9E0A5;top=0;left=0;bottom=0;right=0;pointerEvents=1;fontSize=10;" vertex="1" parent="SeUheRbBUvaC_YqdOnx2-29">
          <mxGeometry width="60" height="20" as="geometry">
            <mxRectangle width="60" height="20" as="alternateBounds" />
          </mxGeometry>
        </mxCell>
        <mxCell id="SeUheRbBUvaC_YqdOnx2-31" value="" style="shape=partialRectangle;html=1;whiteSpace=wrap;connectable=0;strokeColor=inherit;overflow=hidden;fillColor=none;top=0;left=0;bottom=0;right=0;pointerEvents=1;fontSize=10;" vertex="1" parent="SeUheRbBUvaC_YqdOnx2-29">
          <mxGeometry x="60" width="10" height="20" as="geometry">
            <mxRectangle width="10" height="20" as="alternateBounds" />
          </mxGeometry>
        </mxCell>
        <mxCell id="SeUheRbBUvaC_YqdOnx2-32" value="3V3 (OUT)" style="shape=partialRectangle;html=1;whiteSpace=wrap;connectable=0;strokeColor=#b85450;overflow=hidden;fillColor=#f8cecc;top=0;left=0;bottom=0;right=0;pointerEvents=1;fontSize=10;" vertex="1" parent="SeUheRbBUvaC_YqdOnx2-29">
          <mxGeometry x="70" width="60" height="20" as="geometry">
            <mxRectangle width="60" height="20" as="alternateBounds" />
          </mxGeometry>
        </mxCell>
        <mxCell id="SeUheRbBUvaC_YqdOnx2-34" value="" style="shape=tableRow;horizontal=0;startSize=0;swimlaneHead=0;swimlaneBody=0;strokeColor=inherit;top=0;left=0;bottom=0;right=0;collapsible=0;dropTarget=0;fillColor=none;points=[[0,0.5],[1,0.5]];portConstraint=eastwest;fontSize=10;" vertex="1" parent="SeUheRbBUvaC_YqdOnx2-1">
          <mxGeometry y="100" width="130" height="20" as="geometry" />
        </mxCell>
        <mxCell id="SeUheRbBUvaC_YqdOnx2-35" value="GP4" style="shape=partialRectangle;html=1;whiteSpace=wrap;connectable=0;strokeColor=inherit;overflow=hidden;fillColor=#B9E0A5;top=0;left=0;bottom=0;right=0;pointerEvents=1;fontSize=10;" vertex="1" parent="SeUheRbBUvaC_YqdOnx2-34">
          <mxGeometry width="60" height="20" as="geometry">
            <mxRectangle width="60" height="20" as="alternateBounds" />
          </mxGeometry>
        </mxCell>
        <mxCell id="SeUheRbBUvaC_YqdOnx2-36" value="" style="shape=partialRectangle;html=1;whiteSpace=wrap;connectable=0;strokeColor=inherit;overflow=hidden;fillColor=none;top=0;left=0;bottom=0;right=0;pointerEvents=1;fontSize=10;" vertex="1" parent="SeUheRbBUvaC_YqdOnx2-34">
          <mxGeometry x="60" width="10" height="20" as="geometry">
            <mxRectangle width="10" height="20" as="alternateBounds" />
          </mxGeometry>
        </mxCell>
        <mxCell id="SeUheRbBUvaC_YqdOnx2-37" value="" style="shape=partialRectangle;html=1;whiteSpace=wrap;connectable=0;strokeColor=inherit;overflow=hidden;fillColor=none;top=0;left=0;bottom=0;right=0;pointerEvents=1;fontSize=10;" vertex="1" parent="SeUheRbBUvaC_YqdOnx2-34">
          <mxGeometry x="70" width="60" height="20" as="geometry">
            <mxRectangle width="60" height="20" as="alternateBounds" />
          </mxGeometry>
        </mxCell>
        <mxCell id="SeUheRbBUvaC_YqdOnx2-38" value="" style="shape=tableRow;horizontal=0;startSize=0;swimlaneHead=0;swimlaneBody=0;strokeColor=inherit;top=0;left=0;bottom=0;right=0;collapsible=0;dropTarget=0;fillColor=none;points=[[0,0.5],[1,0.5]];portConstraint=eastwest;fontSize=10;" vertex="1" parent="SeUheRbBUvaC_YqdOnx2-1">
          <mxGeometry y="120" width="130" height="20" as="geometry" />
        </mxCell>
        <mxCell id="SeUheRbBUvaC_YqdOnx2-39" value="GP5" style="shape=partialRectangle;html=1;whiteSpace=wrap;connectable=0;strokeColor=inherit;overflow=hidden;fillColor=#B9E0A5;top=0;left=0;bottom=0;right=0;pointerEvents=1;fontSize=10;" vertex="1" parent="SeUheRbBUvaC_YqdOnx2-38">
          <mxGeometry width="60" height="20" as="geometry">
            <mxRectangle width="60" height="20" as="alternateBounds" />
          </mxGeometry>
        </mxCell>
        <mxCell id="SeUheRbBUvaC_YqdOnx2-40" value="" style="shape=partialRectangle;html=1;whiteSpace=wrap;connectable=0;strokeColor=inherit;overflow=hidden;fillColor=none;top=0;left=0;bottom=0;right=0;pointerEvents=1;fontSize=10;" vertex="1" parent="SeUheRbBUvaC_YqdOnx2-38">
          <mxGeometry x="60" width="10" height="20" as="geometry">
            <mxRectangle width="10" height="20" as="alternateBounds" />
          </mxGeometry>
        </mxCell>
        <mxCell id="SeUheRbBUvaC_YqdOnx2-41" value="GP28" style="shape=partialRectangle;html=1;whiteSpace=wrap;connectable=0;strokeColor=inherit;overflow=hidden;fillColor=none;top=0;left=0;bottom=0;right=0;pointerEvents=1;fontSize=10;" vertex="1" parent="SeUheRbBUvaC_YqdOnx2-38">
          <mxGeometry x="70" width="60" height="20" as="geometry">
            <mxRectangle width="60" height="20" as="alternateBounds" />
          </mxGeometry>
        </mxCell>
        <mxCell id="SeUheRbBUvaC_YqdOnx2-42" value="" style="shape=tableRow;horizontal=0;startSize=0;swimlaneHead=0;swimlaneBody=0;strokeColor=inherit;top=0;left=0;bottom=0;right=0;collapsible=0;dropTarget=0;fillColor=none;points=[[0,0.5],[1,0.5]];portConstraint=eastwest;fontSize=10;" vertex="1" parent="SeUheRbBUvaC_YqdOnx2-1">
          <mxGeometry y="140" width="130" height="20" as="geometry" />
        </mxCell>
        <mxCell id="SeUheRbBUvaC_YqdOnx2-43" value="GND" style="shape=partialRectangle;html=1;whiteSpace=wrap;connectable=0;strokeColor=#36393d;overflow=hidden;fillColor=#eeeeee;top=0;left=0;bottom=0;right=0;pointerEvents=1;fontSize=10;" vertex="1" parent="SeUheRbBUvaC_YqdOnx2-42">
          <mxGeometry width="60" height="20" as="geometry">
            <mxRectangle width="60" height="20" as="alternateBounds" />
          </mxGeometry>
        </mxCell>
        <mxCell id="SeUheRbBUvaC_YqdOnx2-44" value="" style="shape=partialRectangle;html=1;whiteSpace=wrap;connectable=0;strokeColor=inherit;overflow=hidden;fillColor=none;top=0;left=0;bottom=0;right=0;pointerEvents=1;fontSize=10;" vertex="1" parent="SeUheRbBUvaC_YqdOnx2-42">
          <mxGeometry x="60" width="10" height="20" as="geometry">
            <mxRectangle width="10" height="20" as="alternateBounds" />
          </mxGeometry>
        </mxCell>
        <mxCell id="SeUheRbBUvaC_YqdOnx2-45" value="GND" style="shape=partialRectangle;html=1;whiteSpace=wrap;connectable=0;strokeColor=#36393d;overflow=hidden;fillColor=#eeeeee;top=0;left=0;bottom=0;right=0;pointerEvents=1;fontSize=10;" vertex="1" parent="SeUheRbBUvaC_YqdOnx2-42">
          <mxGeometry x="70" width="60" height="20" as="geometry">
            <mxRectangle width="60" height="20" as="alternateBounds" />
          </mxGeometry>
        </mxCell>
        <mxCell id="SeUheRbBUvaC_YqdOnx2-46" value="" style="shape=tableRow;horizontal=0;startSize=0;swimlaneHead=0;swimlaneBody=0;strokeColor=inherit;top=0;left=0;bottom=0;right=0;collapsible=0;dropTarget=0;fillColor=none;points=[[0,0.5],[1,0.5]];portConstraint=eastwest;fontSize=10;" vertex="1" parent="SeUheRbBUvaC_YqdOnx2-1">
          <mxGeometry y="160" width="130" height="20" as="geometry" />
        </mxCell>
        <mxCell id="SeUheRbBUvaC_YqdOnx2-47" value="GP6" style="shape=partialRectangle;html=1;whiteSpace=wrap;connectable=0;strokeColor=inherit;overflow=hidden;fillColor=none;top=0;left=0;bottom=0;right=0;pointerEvents=1;fontSize=10;" vertex="1" parent="SeUheRbBUvaC_YqdOnx2-46">
          <mxGeometry width="60" height="20" as="geometry">
            <mxRectangle width="60" height="20" as="alternateBounds" />
          </mxGeometry>
        </mxCell>
        <mxCell id="SeUheRbBUvaC_YqdOnx2-48" value="" style="shape=partialRectangle;html=1;whiteSpace=wrap;connectable=0;strokeColor=inherit;overflow=hidden;fillColor=none;top=0;left=0;bottom=0;right=0;pointerEvents=1;fontSize=10;" vertex="1" parent="SeUheRbBUvaC_YqdOnx2-46">
          <mxGeometry x="60" width="10" height="20" as="geometry">
            <mxRectangle width="10" height="20" as="alternateBounds" />
          </mxGeometry>
        </mxCell>
        <mxCell id="SeUheRbBUvaC_YqdOnx2-49" value="GP27" style="shape=partialRectangle;html=1;whiteSpace=wrap;connectable=0;strokeColor=inherit;overflow=hidden;fillColor=none;top=0;left=0;bottom=0;right=0;pointerEvents=1;fontSize=10;" vertex="1" parent="SeUheRbBUvaC_YqdOnx2-46">
          <mxGeometry x="70" width="60" height="20" as="geometry">
            <mxRectangle width="60" height="20" as="alternateBounds" />
          </mxGeometry>
        </mxCell>
        <mxCell id="SeUheRbBUvaC_YqdOnx2-50" value="" style="shape=tableRow;horizontal=0;startSize=0;swimlaneHead=0;swimlaneBody=0;strokeColor=inherit;top=0;left=0;bottom=0;right=0;collapsible=0;dropTarget=0;fillColor=none;points=[[0,0.5],[1,0.5]];portConstraint=eastwest;fontSize=10;" vertex="1" parent="SeUheRbBUvaC_YqdOnx2-1">
          <mxGeometry y="180" width="130" height="20" as="geometry" />
        </mxCell>
        <mxCell id="SeUheRbBUvaC_YqdOnx2-51" value="GP7" style="shape=partialRectangle;html=1;whiteSpace=wrap;connectable=0;strokeColor=inherit;overflow=hidden;fillColor=none;top=0;left=0;bottom=0;right=0;pointerEvents=1;fontSize=10;" vertex="1" parent="SeUheRbBUvaC_YqdOnx2-50">
          <mxGeometry width="60" height="20" as="geometry">
            <mxRectangle width="60" height="20" as="alternateBounds" />
          </mxGeometry>
        </mxCell>
        <mxCell id="SeUheRbBUvaC_YqdOnx2-52" value="" style="shape=partialRectangle;html=1;whiteSpace=wrap;connectable=0;strokeColor=inherit;overflow=hidden;fillColor=none;top=0;left=0;bottom=0;right=0;pointerEvents=1;fontSize=10;" vertex="1" parent="SeUheRbBUvaC_YqdOnx2-50">
          <mxGeometry x="60" width="10" height="20" as="geometry">
            <mxRectangle width="10" height="20" as="alternateBounds" />
          </mxGeometry>
        </mxCell>
        <mxCell id="SeUheRbBUvaC_YqdOnx2-53" value="GP26" style="shape=partialRectangle;html=1;whiteSpace=wrap;connectable=0;strokeColor=inherit;overflow=hidden;fillColor=none;top=0;left=0;bottom=0;right=0;pointerEvents=1;fontSize=10;" vertex="1" parent="SeUheRbBUvaC_YqdOnx2-50">
          <mxGeometry x="70" width="60" height="20" as="geometry">
            <mxRectangle width="60" height="20" as="alternateBounds" />
          </mxGeometry>
        </mxCell>
        <mxCell id="SeUheRbBUvaC_YqdOnx2-54" value="" style="shape=tableRow;horizontal=0;startSize=0;swimlaneHead=0;swimlaneBody=0;strokeColor=inherit;top=0;left=0;bottom=0;right=0;collapsible=0;dropTarget=0;fillColor=none;points=[[0,0.5],[1,0.5]];portConstraint=eastwest;fontSize=10;" vertex="1" parent="SeUheRbBUvaC_YqdOnx2-1">
          <mxGeometry y="200" width="130" height="20" as="geometry" />
        </mxCell>
        <mxCell id="SeUheRbBUvaC_YqdOnx2-55" value="GP8" style="shape=partialRectangle;html=1;whiteSpace=wrap;connectable=0;strokeColor=inherit;overflow=hidden;fillColor=none;top=0;left=0;bottom=0;right=0;pointerEvents=1;fontSize=10;" vertex="1" parent="SeUheRbBUvaC_YqdOnx2-54">
          <mxGeometry width="60" height="20" as="geometry">
            <mxRectangle width="60" height="20" as="alternateBounds" />
          </mxGeometry>
        </mxCell>
        <mxCell id="SeUheRbBUvaC_YqdOnx2-56" value="" style="shape=partialRectangle;html=1;whiteSpace=wrap;connectable=0;strokeColor=inherit;overflow=hidden;fillColor=none;top=0;left=0;bottom=0;right=0;pointerEvents=1;fontSize=10;" vertex="1" parent="SeUheRbBUvaC_YqdOnx2-54">
          <mxGeometry x="60" width="10" height="20" as="geometry">
            <mxRectangle width="10" height="20" as="alternateBounds" />
          </mxGeometry>
        </mxCell>
        <mxCell id="SeUheRbBUvaC_YqdOnx2-57" value="RUN" style="shape=partialRectangle;html=1;whiteSpace=wrap;connectable=0;strokeColor=#d79b00;overflow=hidden;fillColor=#ffe6cc;top=0;left=0;bottom=0;right=0;pointerEvents=1;fontSize=10;" vertex="1" parent="SeUheRbBUvaC_YqdOnx2-54">
          <mxGeometry x="70" width="60" height="20" as="geometry">
            <mxRectangle width="60" height="20" as="alternateBounds" />
          </mxGeometry>
        </mxCell>
        <mxCell id="SeUheRbBUvaC_YqdOnx2-58" value="" style="shape=tableRow;horizontal=0;startSize=0;swimlaneHead=0;swimlaneBody=0;strokeColor=inherit;top=0;left=0;bottom=0;right=0;collapsible=0;dropTarget=0;fillColor=none;points=[[0,0.5],[1,0.5]];portConstraint=eastwest;fontSize=10;" vertex="1" parent="SeUheRbBUvaC_YqdOnx2-1">
          <mxGeometry y="220" width="130" height="20" as="geometry" />
        </mxCell>
        <mxCell id="SeUheRbBUvaC_YqdOnx2-59" value="GP9" style="shape=partialRectangle;html=1;whiteSpace=wrap;connectable=0;strokeColor=inherit;overflow=hidden;fillColor=none;top=0;left=0;bottom=0;right=0;pointerEvents=1;fontSize=10;" vertex="1" parent="SeUheRbBUvaC_YqdOnx2-58">
          <mxGeometry width="60" height="20" as="geometry">
            <mxRectangle width="60" height="20" as="alternateBounds" />
          </mxGeometry>
        </mxCell>
        <mxCell id="SeUheRbBUvaC_YqdOnx2-60" value="" style="shape=partialRectangle;html=1;whiteSpace=wrap;connectable=0;strokeColor=inherit;overflow=hidden;fillColor=none;top=0;left=0;bottom=0;right=0;pointerEvents=1;fontSize=10;" vertex="1" parent="SeUheRbBUvaC_YqdOnx2-58">
          <mxGeometry x="60" width="10" height="20" as="geometry">
            <mxRectangle width="10" height="20" as="alternateBounds" />
          </mxGeometry>
        </mxCell>
        <mxCell id="SeUheRbBUvaC_YqdOnx2-61" value="GP22" style="shape=partialRectangle;html=1;whiteSpace=wrap;connectable=0;strokeColor=inherit;overflow=hidden;fillColor=none;top=0;left=0;bottom=0;right=0;pointerEvents=1;fontSize=10;" vertex="1" parent="SeUheRbBUvaC_YqdOnx2-58">
          <mxGeometry x="70" width="60" height="20" as="geometry">
            <mxRectangle width="60" height="20" as="alternateBounds" />
          </mxGeometry>
        </mxCell>
        <mxCell id="SeUheRbBUvaC_YqdOnx2-62" value="" style="shape=tableRow;horizontal=0;startSize=0;swimlaneHead=0;swimlaneBody=0;strokeColor=inherit;top=0;left=0;bottom=0;right=0;collapsible=0;dropTarget=0;fillColor=none;points=[[0,0.5],[1,0.5]];portConstraint=eastwest;fontSize=10;" vertex="1" parent="SeUheRbBUvaC_YqdOnx2-1">
          <mxGeometry y="240" width="130" height="20" as="geometry" />
        </mxCell>
        <mxCell id="SeUheRbBUvaC_YqdOnx2-63" value="GND" style="shape=partialRectangle;html=1;whiteSpace=wrap;connectable=0;strokeColor=#36393d;overflow=hidden;fillColor=#eeeeee;top=0;left=0;bottom=0;right=0;pointerEvents=1;fontSize=10;" vertex="1" parent="SeUheRbBUvaC_YqdOnx2-62">
          <mxGeometry width="60" height="20" as="geometry">
            <mxRectangle width="60" height="20" as="alternateBounds" />
          </mxGeometry>
        </mxCell>
        <mxCell id="SeUheRbBUvaC_YqdOnx2-64" value="" style="shape=partialRectangle;html=1;whiteSpace=wrap;connectable=0;strokeColor=inherit;overflow=hidden;fillColor=none;top=0;left=0;bottom=0;right=0;pointerEvents=1;fontSize=10;" vertex="1" parent="SeUheRbBUvaC_YqdOnx2-62">
          <mxGeometry x="60" width="10" height="20" as="geometry">
            <mxRectangle width="10" height="20" as="alternateBounds" />
          </mxGeometry>
        </mxCell>
        <mxCell id="SeUheRbBUvaC_YqdOnx2-65" value="GND" style="shape=partialRectangle;html=1;whiteSpace=wrap;connectable=0;strokeColor=#36393d;overflow=hidden;fillColor=#eeeeee;top=0;left=0;bottom=0;right=0;pointerEvents=1;fontSize=10;" vertex="1" parent="SeUheRbBUvaC_YqdOnx2-62">
          <mxGeometry x="70" width="60" height="20" as="geometry">
            <mxRectangle width="60" height="20" as="alternateBounds" />
          </mxGeometry>
        </mxCell>
        <mxCell id="SeUheRbBUvaC_YqdOnx2-66" value="" style="shape=tableRow;horizontal=0;startSize=0;swimlaneHead=0;swimlaneBody=0;strokeColor=inherit;top=0;left=0;bottom=0;right=0;collapsible=0;dropTarget=0;fillColor=none;points=[[0,0.5],[1,0.5]];portConstraint=eastwest;fontSize=10;" vertex="1" parent="SeUheRbBUvaC_YqdOnx2-1">
          <mxGeometry y="260" width="130" height="20" as="geometry" />
        </mxCell>
        <mxCell id="SeUheRbBUvaC_YqdOnx2-67" value="GP10" style="shape=partialRectangle;html=1;whiteSpace=wrap;connectable=0;strokeColor=inherit;overflow=hidden;fillColor=none;top=0;left=0;bottom=0;right=0;pointerEvents=1;fontSize=10;" vertex="1" parent="SeUheRbBUvaC_YqdOnx2-66">
          <mxGeometry width="60" height="20" as="geometry">
            <mxRectangle width="60" height="20" as="alternateBounds" />
          </mxGeometry>
        </mxCell>
        <mxCell id="SeUheRbBUvaC_YqdOnx2-68" value="" style="shape=partialRectangle;html=1;whiteSpace=wrap;connectable=0;strokeColor=inherit;overflow=hidden;fillColor=none;top=0;left=0;bottom=0;right=0;pointerEvents=1;fontSize=10;" vertex="1" parent="SeUheRbBUvaC_YqdOnx2-66">
          <mxGeometry x="60" width="10" height="20" as="geometry">
            <mxRectangle width="10" height="20" as="alternateBounds" />
          </mxGeometry>
        </mxCell>
        <mxCell id="SeUheRbBUvaC_YqdOnx2-69" value="GP21" style="shape=partialRectangle;html=1;whiteSpace=wrap;connectable=0;strokeColor=inherit;overflow=hidden;fillColor=none;top=0;left=0;bottom=0;right=0;pointerEvents=1;fontSize=10;" vertex="1" parent="SeUheRbBUvaC_YqdOnx2-66">
          <mxGeometry x="70" width="60" height="20" as="geometry">
            <mxRectangle width="60" height="20" as="alternateBounds" />
          </mxGeometry>
        </mxCell>
        <mxCell id="SeUheRbBUvaC_YqdOnx2-70" value="" style="shape=tableRow;horizontal=0;startSize=0;swimlaneHead=0;swimlaneBody=0;strokeColor=inherit;top=0;left=0;bottom=0;right=0;collapsible=0;dropTarget=0;fillColor=none;points=[[0,0.5],[1,0.5]];portConstraint=eastwest;fontSize=10;" vertex="1" parent="SeUheRbBUvaC_YqdOnx2-1">
          <mxGeometry y="280" width="130" height="20" as="geometry" />
        </mxCell>
        <mxCell id="SeUheRbBUvaC_YqdOnx2-71" value="GP11" style="shape=partialRectangle;html=1;whiteSpace=wrap;connectable=0;strokeColor=inherit;overflow=hidden;fillColor=none;top=0;left=0;bottom=0;right=0;pointerEvents=1;fontSize=10;" vertex="1" parent="SeUheRbBUvaC_YqdOnx2-70">
          <mxGeometry width="60" height="20" as="geometry">
            <mxRectangle width="60" height="20" as="alternateBounds" />
          </mxGeometry>
        </mxCell>
        <mxCell id="SeUheRbBUvaC_YqdOnx2-72" value="" style="shape=partialRectangle;html=1;whiteSpace=wrap;connectable=0;strokeColor=inherit;overflow=hidden;fillColor=none;top=0;left=0;bottom=0;right=0;pointerEvents=1;fontSize=10;" vertex="1" parent="SeUheRbBUvaC_YqdOnx2-70">
          <mxGeometry x="60" width="10" height="20" as="geometry">
            <mxRectangle width="10" height="20" as="alternateBounds" />
          </mxGeometry>
        </mxCell>
        <mxCell id="SeUheRbBUvaC_YqdOnx2-73" value="GP20" style="shape=partialRectangle;html=1;whiteSpace=wrap;connectable=0;strokeColor=inherit;overflow=hidden;fillColor=none;top=0;left=0;bottom=0;right=0;pointerEvents=1;fontSize=10;" vertex="1" parent="SeUheRbBUvaC_YqdOnx2-70">
          <mxGeometry x="70" width="60" height="20" as="geometry">
            <mxRectangle width="60" height="20" as="alternateBounds" />
          </mxGeometry>
        </mxCell>
        <mxCell id="SeUheRbBUvaC_YqdOnx2-74" value="" style="shape=tableRow;horizontal=0;startSize=0;swimlaneHead=0;swimlaneBody=0;strokeColor=inherit;top=0;left=0;bottom=0;right=0;collapsible=0;dropTarget=0;fillColor=none;points=[[0,0.5],[1,0.5]];portConstraint=eastwest;fontSize=10;" vertex="1" parent="SeUheRbBUvaC_YqdOnx2-1">
          <mxGeometry y="300" width="130" height="20" as="geometry" />
        </mxCell>
        <mxCell id="SeUheRbBUvaC_YqdOnx2-75" value="GP12" style="shape=partialRectangle;html=1;whiteSpace=wrap;connectable=0;strokeColor=inherit;overflow=hidden;fillColor=none;top=0;left=0;bottom=0;right=0;pointerEvents=1;fontSize=10;" vertex="1" parent="SeUheRbBUvaC_YqdOnx2-74">
          <mxGeometry width="60" height="20" as="geometry">
            <mxRectangle width="60" height="20" as="alternateBounds" />
          </mxGeometry>
        </mxCell>
        <mxCell id="SeUheRbBUvaC_YqdOnx2-76" value="" style="shape=partialRectangle;html=1;whiteSpace=wrap;connectable=0;strokeColor=inherit;overflow=hidden;fillColor=none;top=0;left=0;bottom=0;right=0;pointerEvents=1;fontSize=10;" vertex="1" parent="SeUheRbBUvaC_YqdOnx2-74">
          <mxGeometry x="60" width="10" height="20" as="geometry">
            <mxRectangle width="10" height="20" as="alternateBounds" />
          </mxGeometry>
        </mxCell>
        <mxCell id="SeUheRbBUvaC_YqdOnx2-77" value="GP19" style="shape=partialRectangle;html=1;whiteSpace=wrap;connectable=0;strokeColor=inherit;overflow=hidden;fillColor=none;top=0;left=0;bottom=0;right=0;pointerEvents=1;fontSize=10;" vertex="1" parent="SeUheRbBUvaC_YqdOnx2-74">
          <mxGeometry x="70" width="60" height="20" as="geometry">
            <mxRectangle width="60" height="20" as="alternateBounds" />
          </mxGeometry>
        </mxCell>
        <mxCell id="SeUheRbBUvaC_YqdOnx2-78" value="" style="shape=tableRow;horizontal=0;startSize=0;swimlaneHead=0;swimlaneBody=0;strokeColor=inherit;top=0;left=0;bottom=0;right=0;collapsible=0;dropTarget=0;fillColor=none;points=[[0,0.5],[1,0.5]];portConstraint=eastwest;fontSize=10;" vertex="1" parent="SeUheRbBUvaC_YqdOnx2-1">
          <mxGeometry y="320" width="130" height="20" as="geometry" />
        </mxCell>
        <mxCell id="SeUheRbBUvaC_YqdOnx2-79" value="GP13" style="shape=partialRectangle;html=1;whiteSpace=wrap;connectable=0;strokeColor=inherit;overflow=hidden;fillColor=#CCFFFF;top=0;left=0;bottom=0;right=0;pointerEvents=1;fontSize=10;" vertex="1" parent="SeUheRbBUvaC_YqdOnx2-78">
          <mxGeometry width="60" height="20" as="geometry">
            <mxRectangle width="60" height="20" as="alternateBounds" />
          </mxGeometry>
        </mxCell>
        <mxCell id="SeUheRbBUvaC_YqdOnx2-80" value="" style="shape=partialRectangle;html=1;whiteSpace=wrap;connectable=0;strokeColor=inherit;overflow=hidden;fillColor=none;top=0;left=0;bottom=0;right=0;pointerEvents=1;fontSize=10;" vertex="1" parent="SeUheRbBUvaC_YqdOnx2-78">
          <mxGeometry x="60" width="10" height="20" as="geometry">
            <mxRectangle width="10" height="20" as="alternateBounds" />
          </mxGeometry>
        </mxCell>
        <mxCell id="SeUheRbBUvaC_YqdOnx2-81" value="GP18" style="shape=partialRectangle;html=1;whiteSpace=wrap;connectable=0;strokeColor=inherit;overflow=hidden;fillColor=none;top=0;left=0;bottom=0;right=0;pointerEvents=1;fontSize=10;" vertex="1" parent="SeUheRbBUvaC_YqdOnx2-78">
          <mxGeometry x="70" width="60" height="20" as="geometry">
            <mxRectangle width="60" height="20" as="alternateBounds" />
          </mxGeometry>
        </mxCell>
        <mxCell id="SeUheRbBUvaC_YqdOnx2-82" value="" style="shape=tableRow;horizontal=0;startSize=0;swimlaneHead=0;swimlaneBody=0;strokeColor=inherit;top=0;left=0;bottom=0;right=0;collapsible=0;dropTarget=0;fillColor=none;points=[[0,0.5],[1,0.5]];portConstraint=eastwest;fontSize=10;" vertex="1" parent="SeUheRbBUvaC_YqdOnx2-1">
          <mxGeometry y="340" width="130" height="20" as="geometry" />
        </mxCell>
        <mxCell id="SeUheRbBUvaC_YqdOnx2-83" value="GND" style="shape=partialRectangle;html=1;whiteSpace=wrap;connectable=0;strokeColor=#36393d;overflow=hidden;fillColor=#eeeeee;top=0;left=0;bottom=0;right=0;pointerEvents=1;fontSize=10;" vertex="1" parent="SeUheRbBUvaC_YqdOnx2-82">
          <mxGeometry width="60" height="20" as="geometry">
            <mxRectangle width="60" height="20" as="alternateBounds" />
          </mxGeometry>
        </mxCell>
        <mxCell id="SeUheRbBUvaC_YqdOnx2-84" value="" style="shape=partialRectangle;html=1;whiteSpace=wrap;connectable=0;strokeColor=inherit;overflow=hidden;fillColor=none;top=0;left=0;bottom=0;right=0;pointerEvents=1;fontSize=10;" vertex="1" parent="SeUheRbBUvaC_YqdOnx2-82">
          <mxGeometry x="60" width="10" height="20" as="geometry">
            <mxRectangle width="10" height="20" as="alternateBounds" />
          </mxGeometry>
        </mxCell>
        <mxCell id="SeUheRbBUvaC_YqdOnx2-85" value="GND" style="shape=partialRectangle;html=1;whiteSpace=wrap;connectable=0;strokeColor=#36393d;overflow=hidden;fillColor=#eeeeee;top=0;left=0;bottom=0;right=0;pointerEvents=1;fontSize=10;" vertex="1" parent="SeUheRbBUvaC_YqdOnx2-82">
          <mxGeometry x="70" width="60" height="20" as="geometry">
            <mxRectangle width="60" height="20" as="alternateBounds" />
          </mxGeometry>
        </mxCell>
        <mxCell id="SeUheRbBUvaC_YqdOnx2-86" value="" style="shape=tableRow;horizontal=0;startSize=0;swimlaneHead=0;swimlaneBody=0;strokeColor=inherit;top=0;left=0;bottom=0;right=0;collapsible=0;dropTarget=0;fillColor=none;points=[[0,0.5],[1,0.5]];portConstraint=eastwest;fontSize=10;" vertex="1" parent="SeUheRbBUvaC_YqdOnx2-1">
          <mxGeometry y="360" width="130" height="20" as="geometry" />
        </mxCell>
        <mxCell id="SeUheRbBUvaC_YqdOnx2-87" value="GP14" style="shape=partialRectangle;html=1;whiteSpace=wrap;connectable=0;strokeColor=inherit;overflow=hidden;fillColor=#FFCC99;top=0;left=0;bottom=0;right=0;pointerEvents=1;fontSize=10;" vertex="1" parent="SeUheRbBUvaC_YqdOnx2-86">
          <mxGeometry width="60" height="20" as="geometry">
            <mxRectangle width="60" height="20" as="alternateBounds" />
          </mxGeometry>
        </mxCell>
        <mxCell id="SeUheRbBUvaC_YqdOnx2-88" value="" style="shape=partialRectangle;html=1;whiteSpace=wrap;connectable=0;strokeColor=inherit;overflow=hidden;fillColor=none;top=0;left=0;bottom=0;right=0;pointerEvents=1;fontSize=10;" vertex="1" parent="SeUheRbBUvaC_YqdOnx2-86">
          <mxGeometry x="60" width="10" height="20" as="geometry">
            <mxRectangle width="10" height="20" as="alternateBounds" />
          </mxGeometry>
        </mxCell>
        <mxCell id="SeUheRbBUvaC_YqdOnx2-89" value="GP17" style="shape=partialRectangle;html=1;whiteSpace=wrap;connectable=0;strokeColor=inherit;overflow=hidden;fillColor=none;top=0;left=0;bottom=0;right=0;pointerEvents=1;fontSize=10;" vertex="1" parent="SeUheRbBUvaC_YqdOnx2-86">
          <mxGeometry x="70" width="60" height="20" as="geometry">
            <mxRectangle width="60" height="20" as="alternateBounds" />
          </mxGeometry>
        </mxCell>
        <mxCell id="SeUheRbBUvaC_YqdOnx2-90" value="" style="shape=tableRow;horizontal=0;startSize=0;swimlaneHead=0;swimlaneBody=0;strokeColor=inherit;top=0;left=0;bottom=0;right=0;collapsible=0;dropTarget=0;fillColor=none;points=[[0,0.5],[1,0.5]];portConstraint=eastwest;fontSize=10;" vertex="1" parent="SeUheRbBUvaC_YqdOnx2-1">
          <mxGeometry y="380" width="130" height="20" as="geometry" />
        </mxCell>
        <mxCell id="SeUheRbBUvaC_YqdOnx2-91" value="GP15" style="shape=partialRectangle;html=1;whiteSpace=wrap;connectable=0;strokeColor=inherit;overflow=hidden;fillColor=#FFFFCC;top=0;left=0;bottom=0;right=0;pointerEvents=1;fontSize=10;" vertex="1" parent="SeUheRbBUvaC_YqdOnx2-90">
          <mxGeometry width="60" height="20" as="geometry">
            <mxRectangle width="60" height="20" as="alternateBounds" />
          </mxGeometry>
        </mxCell>
        <mxCell id="SeUheRbBUvaC_YqdOnx2-92" value="" style="shape=partialRectangle;html=1;whiteSpace=wrap;connectable=0;strokeColor=inherit;overflow=hidden;fillColor=none;top=0;left=0;bottom=0;right=0;pointerEvents=1;fontSize=10;" vertex="1" parent="SeUheRbBUvaC_YqdOnx2-90">
          <mxGeometry x="60" width="10" height="20" as="geometry">
            <mxRectangle width="10" height="20" as="alternateBounds" />
          </mxGeometry>
        </mxCell>
        <mxCell id="SeUheRbBUvaC_YqdOnx2-93" value="GP16" style="shape=partialRectangle;html=1;whiteSpace=wrap;connectable=0;strokeColor=inherit;overflow=hidden;fillColor=none;top=0;left=0;bottom=0;right=0;pointerEvents=1;fontSize=10;" vertex="1" parent="SeUheRbBUvaC_YqdOnx2-90">
          <mxGeometry x="70" width="60" height="20" as="geometry">
            <mxRectangle width="60" height="20" as="alternateBounds" />
          </mxGeometry>
        </mxCell>
        <mxCell id="SeUheRbBUvaC_YqdOnx2-94" value="LED1" style="verticalLabelPosition=bottom;shadow=0;dashed=0;align=center;html=1;verticalAlign=top;shape=mxgraph.electrical.opto_electronics.led_1;pointerEvents=1;rotation=0;" vertex="1" parent="1">
          <mxGeometry x="1117.5" y="572.5" width="80" height="35" as="geometry" />
        </mxCell>
        <mxCell id="SeUheRbBUvaC_YqdOnx2-98" style="edgeStyle=orthogonalEdgeStyle;rounded=0;orthogonalLoop=1;jettySize=auto;html=1;entryX=1;entryY=0.5;entryDx=0;entryDy=0;endArrow=none;endFill=0;exitX=0;exitY=0.5;exitDx=0;exitDy=0;exitPerimeter=0;" edge="1" parent="1" source="SeUheRbBUvaC_YqdOnx2-95" target="SeUheRbBUvaC_YqdOnx2-90">
          <mxGeometry relative="1" as="geometry" />
        </mxCell>
        <mxCell id="SeUheRbBUvaC_YqdOnx2-95" value="220Ohm" style="pointerEvents=1;verticalLabelPosition=bottom;shadow=0;dashed=0;align=center;html=1;verticalAlign=top;shape=mxgraph.electrical.resistors.resistor_1;rotation=0;" vertex="1" parent="1">
          <mxGeometry x="1010" y="580" width="90" height="20" as="geometry" />
        </mxCell>
        <mxCell id="SeUheRbBUvaC_YqdOnx2-96" style="edgeStyle=orthogonalEdgeStyle;rounded=0;orthogonalLoop=1;jettySize=auto;html=1;entryX=1;entryY=0.5;entryDx=0;entryDy=0;entryPerimeter=0;endArrow=none;endFill=0;exitX=0;exitY=0.54;exitDx=0;exitDy=0;exitPerimeter=0;" edge="1" parent="1" source="SeUheRbBUvaC_YqdOnx2-94" target="SeUheRbBUvaC_YqdOnx2-95">
          <mxGeometry relative="1" as="geometry" />
        </mxCell>
        <mxCell id="SeUheRbBUvaC_YqdOnx2-97" style="edgeStyle=orthogonalEdgeStyle;rounded=0;orthogonalLoop=1;jettySize=auto;html=1;entryX=0.5;entryY=0;entryDx=0;entryDy=0;exitX=1;exitY=0.54;exitDx=0;exitDy=0;exitPerimeter=0;endArrow=none;endFill=0;entryPerimeter=0;" edge="1" parent="1" source="SeUheRbBUvaC_YqdOnx2-94" target="SeUheRbBUvaC_YqdOnx2-220">
          <mxGeometry relative="1" as="geometry" />
        </mxCell>
        <mxCell id="SeUheRbBUvaC_YqdOnx2-100" style="edgeStyle=orthogonalEdgeStyle;rounded=0;orthogonalLoop=1;jettySize=auto;html=1;entryX=0.5;entryY=0;entryDx=0;entryDy=0;endArrow=none;endFill=0;exitX=1;exitY=0.8;exitDx=0;exitDy=0;entryPerimeter=0;" edge="1" parent="1" source="SeUheRbBUvaC_YqdOnx2-99" target="SeUheRbBUvaC_YqdOnx2-220">
          <mxGeometry relative="1" as="geometry" />
        </mxCell>
        <mxCell id="SeUheRbBUvaC_YqdOnx2-101" style="edgeStyle=orthogonalEdgeStyle;rounded=0;orthogonalLoop=1;jettySize=auto;html=1;entryX=1;entryY=0.5;entryDx=0;entryDy=0;endArrow=none;endFill=0;exitX=0;exitY=0.8;exitDx=0;exitDy=0;" edge="1" parent="1" source="SeUheRbBUvaC_YqdOnx2-99" target="SeUheRbBUvaC_YqdOnx2-78">
          <mxGeometry relative="1" as="geometry" />
        </mxCell>
        <mxCell id="SeUheRbBUvaC_YqdOnx2-99" value="BTN1" style="html=1;shape=mxgraph.electrical.electro-mechanical.singleSwitch;aspect=fixed;elSwitchState=off;labelPosition=center;verticalLabelPosition=bottom;align=center;verticalAlign=top;" vertex="1" parent="1">
          <mxGeometry x="1085" y="519" width="75" height="20" as="geometry" />
        </mxCell>
        <mxCell id="SeUheRbBUvaC_YqdOnx2-104" style="edgeStyle=orthogonalEdgeStyle;rounded=0;orthogonalLoop=1;jettySize=auto;html=1;entryX=0.5;entryY=0;entryDx=0;entryDy=0;endArrow=none;endFill=0;exitX=1;exitY=0.8;exitDx=0;exitDy=0;entryPerimeter=0;" edge="1" parent="1" source="SeUheRbBUvaC_YqdOnx2-102" target="SeUheRbBUvaC_YqdOnx2-220">
          <mxGeometry relative="1" as="geometry" />
        </mxCell>
        <mxCell id="SeUheRbBUvaC_YqdOnx2-102" value="BTN2" style="html=1;shape=mxgraph.electrical.electro-mechanical.singleSwitch;aspect=fixed;elSwitchState=off;labelPosition=center;verticalLabelPosition=bottom;align=center;verticalAlign=top;" vertex="1" parent="1">
          <mxGeometry x="1080" y="470" width="75" height="20" as="geometry" />
        </mxCell>
        <mxCell id="SeUheRbBUvaC_YqdOnx2-103" style="edgeStyle=orthogonalEdgeStyle;rounded=0;orthogonalLoop=1;jettySize=auto;html=1;entryX=1.023;entryY=-0.4;entryDx=0;entryDy=0;entryPerimeter=0;endArrow=none;endFill=0;exitX=0;exitY=0.8;exitDx=0;exitDy=0;" edge="1" parent="1" source="SeUheRbBUvaC_YqdOnx2-102" target="SeUheRbBUvaC_YqdOnx2-78">
          <mxGeometry relative="1" as="geometry" />
        </mxCell>
        <mxCell id="SeUheRbBUvaC_YqdOnx2-105" value="" style="shape=table;startSize=0;container=1;collapsible=0;childLayout=tableLayout;fontSize=16;" vertex="1" parent="1">
          <mxGeometry x="390" y="352.5" width="130" height="199" as="geometry" />
        </mxCell>
        <mxCell id="SeUheRbBUvaC_YqdOnx2-106" value="" style="shape=tableRow;horizontal=0;startSize=0;swimlaneHead=0;swimlaneBody=0;strokeColor=inherit;top=0;left=0;bottom=0;right=0;collapsible=0;dropTarget=0;fillColor=none;points=[[0,0.5],[1,0.5]];portConstraint=eastwest;fontSize=16;" vertex="1" parent="SeUheRbBUvaC_YqdOnx2-105">
          <mxGeometry width="130" height="25" as="geometry" />
        </mxCell>
        <mxCell id="SeUheRbBUvaC_YqdOnx2-107" value="Q&lt;sub&gt;B&lt;/sub&gt;" style="shape=partialRectangle;html=1;whiteSpace=wrap;connectable=0;strokeColor=inherit;overflow=hidden;fillColor=none;top=0;left=0;bottom=0;right=0;pointerEvents=1;fontSize=12;" vertex="1" parent="SeUheRbBUvaC_YqdOnx2-106">
          <mxGeometry width="60" height="25" as="geometry">
            <mxRectangle width="60" height="25" as="alternateBounds" />
          </mxGeometry>
        </mxCell>
        <mxCell id="SeUheRbBUvaC_YqdOnx2-108" value="" style="shape=partialRectangle;html=1;whiteSpace=wrap;connectable=0;strokeColor=inherit;overflow=hidden;fillColor=none;top=0;left=0;bottom=0;right=0;pointerEvents=1;fontSize=12;" vertex="1" parent="SeUheRbBUvaC_YqdOnx2-106">
          <mxGeometry x="60" width="10" height="25" as="geometry">
            <mxRectangle width="10" height="25" as="alternateBounds" />
          </mxGeometry>
        </mxCell>
        <mxCell id="SeUheRbBUvaC_YqdOnx2-109" value="V&lt;sub&gt;CC&lt;/sub&gt;" style="shape=partialRectangle;html=1;whiteSpace=wrap;connectable=0;strokeColor=inherit;overflow=hidden;fillColor=none;top=0;left=0;bottom=0;right=0;pointerEvents=1;fontSize=12;" vertex="1" parent="SeUheRbBUvaC_YqdOnx2-106">
          <mxGeometry x="70" width="60" height="25" as="geometry">
            <mxRectangle width="60" height="25" as="alternateBounds" />
          </mxGeometry>
        </mxCell>
        <mxCell id="SeUheRbBUvaC_YqdOnx2-110" value="" style="shape=tableRow;horizontal=0;startSize=0;swimlaneHead=0;swimlaneBody=0;strokeColor=inherit;top=0;left=0;bottom=0;right=0;collapsible=0;dropTarget=0;fillColor=none;points=[[0,0.5],[1,0.5]];portConstraint=eastwest;fontSize=16;" vertex="1" parent="SeUheRbBUvaC_YqdOnx2-105">
          <mxGeometry y="25" width="130" height="24" as="geometry" />
        </mxCell>
        <mxCell id="SeUheRbBUvaC_YqdOnx2-111" value="Q&lt;sub&gt;C&lt;/sub&gt;" style="shape=partialRectangle;html=1;whiteSpace=wrap;connectable=0;strokeColor=inherit;overflow=hidden;fillColor=none;top=0;left=0;bottom=0;right=0;pointerEvents=1;fontSize=12;" vertex="1" parent="SeUheRbBUvaC_YqdOnx2-110">
          <mxGeometry width="60" height="24" as="geometry">
            <mxRectangle width="60" height="24" as="alternateBounds" />
          </mxGeometry>
        </mxCell>
        <mxCell id="SeUheRbBUvaC_YqdOnx2-112" value="" style="shape=partialRectangle;html=1;whiteSpace=wrap;connectable=0;strokeColor=inherit;overflow=hidden;fillColor=none;top=0;left=0;bottom=0;right=0;pointerEvents=1;fontSize=12;" vertex="1" parent="SeUheRbBUvaC_YqdOnx2-110">
          <mxGeometry x="60" width="10" height="24" as="geometry">
            <mxRectangle width="10" height="24" as="alternateBounds" />
          </mxGeometry>
        </mxCell>
        <mxCell id="SeUheRbBUvaC_YqdOnx2-113" value="Q&lt;sub&gt;A&lt;/sub&gt;" style="shape=partialRectangle;html=1;whiteSpace=wrap;connectable=0;strokeColor=inherit;overflow=hidden;fillColor=none;top=0;left=0;bottom=0;right=0;pointerEvents=1;fontSize=12;" vertex="1" parent="SeUheRbBUvaC_YqdOnx2-110">
          <mxGeometry x="70" width="60" height="24" as="geometry">
            <mxRectangle width="60" height="24" as="alternateBounds" />
          </mxGeometry>
        </mxCell>
        <mxCell id="SeUheRbBUvaC_YqdOnx2-114" value="" style="shape=tableRow;horizontal=0;startSize=0;swimlaneHead=0;swimlaneBody=0;strokeColor=inherit;top=0;left=0;bottom=0;right=0;collapsible=0;dropTarget=0;fillColor=none;points=[[0,0.5],[1,0.5]];portConstraint=eastwest;fontSize=16;" vertex="1" parent="SeUheRbBUvaC_YqdOnx2-105">
          <mxGeometry y="49" width="130" height="25" as="geometry" />
        </mxCell>
        <mxCell id="SeUheRbBUvaC_YqdOnx2-115" value="Q&lt;sub&gt;D&lt;/sub&gt;" style="shape=partialRectangle;html=1;whiteSpace=wrap;connectable=0;strokeColor=inherit;overflow=hidden;fillColor=none;top=0;left=0;bottom=0;right=0;pointerEvents=1;fontSize=12;" vertex="1" parent="SeUheRbBUvaC_YqdOnx2-114">
          <mxGeometry width="60" height="25" as="geometry">
            <mxRectangle width="60" height="25" as="alternateBounds" />
          </mxGeometry>
        </mxCell>
        <mxCell id="SeUheRbBUvaC_YqdOnx2-116" value="" style="shape=partialRectangle;html=1;whiteSpace=wrap;connectable=0;strokeColor=inherit;overflow=hidden;fillColor=none;top=0;left=0;bottom=0;right=0;pointerEvents=1;fontSize=12;" vertex="1" parent="SeUheRbBUvaC_YqdOnx2-114">
          <mxGeometry x="60" width="10" height="25" as="geometry">
            <mxRectangle width="10" height="25" as="alternateBounds" />
          </mxGeometry>
        </mxCell>
        <mxCell id="SeUheRbBUvaC_YqdOnx2-117" value="SER" style="shape=partialRectangle;html=1;whiteSpace=wrap;connectable=0;strokeColor=inherit;overflow=hidden;fillColor=none;top=0;left=0;bottom=0;right=0;pointerEvents=1;fontSize=12;" vertex="1" parent="SeUheRbBUvaC_YqdOnx2-114">
          <mxGeometry x="70" width="60" height="25" as="geometry">
            <mxRectangle width="60" height="25" as="alternateBounds" />
          </mxGeometry>
        </mxCell>
        <mxCell id="SeUheRbBUvaC_YqdOnx2-118" value="" style="shape=tableRow;horizontal=0;startSize=0;swimlaneHead=0;swimlaneBody=0;strokeColor=inherit;top=0;left=0;bottom=0;right=0;collapsible=0;dropTarget=0;fillColor=none;points=[[0,0.5],[1,0.5]];portConstraint=eastwest;fontSize=16;" vertex="1" parent="SeUheRbBUvaC_YqdOnx2-105">
          <mxGeometry y="74" width="130" height="25" as="geometry" />
        </mxCell>
        <mxCell id="SeUheRbBUvaC_YqdOnx2-119" value="Q&lt;sub&gt;E&lt;/sub&gt;" style="shape=partialRectangle;html=1;whiteSpace=wrap;connectable=0;strokeColor=inherit;overflow=hidden;fillColor=none;top=0;left=0;bottom=0;right=0;pointerEvents=1;fontSize=12;" vertex="1" parent="SeUheRbBUvaC_YqdOnx2-118">
          <mxGeometry width="60" height="25" as="geometry">
            <mxRectangle width="60" height="25" as="alternateBounds" />
          </mxGeometry>
        </mxCell>
        <mxCell id="SeUheRbBUvaC_YqdOnx2-120" value="" style="shape=partialRectangle;html=1;whiteSpace=wrap;connectable=0;strokeColor=inherit;overflow=hidden;fillColor=none;top=0;left=0;bottom=0;right=0;pointerEvents=1;fontSize=12;" vertex="1" parent="SeUheRbBUvaC_YqdOnx2-118">
          <mxGeometry x="60" width="10" height="25" as="geometry">
            <mxRectangle width="10" height="25" as="alternateBounds" />
          </mxGeometry>
        </mxCell>
        <mxCell id="SeUheRbBUvaC_YqdOnx2-121" value="OE" style="shape=partialRectangle;html=1;whiteSpace=wrap;connectable=0;strokeColor=inherit;overflow=hidden;fillColor=none;top=0;left=0;bottom=0;right=0;pointerEvents=1;fontSize=12;" vertex="1" parent="SeUheRbBUvaC_YqdOnx2-118">
          <mxGeometry x="70" width="60" height="25" as="geometry">
            <mxRectangle width="60" height="25" as="alternateBounds" />
          </mxGeometry>
        </mxCell>
        <mxCell id="SeUheRbBUvaC_YqdOnx2-122" value="" style="shape=tableRow;horizontal=0;startSize=0;swimlaneHead=0;swimlaneBody=0;strokeColor=inherit;top=0;left=0;bottom=0;right=0;collapsible=0;dropTarget=0;fillColor=none;points=[[0,0.5],[1,0.5]];portConstraint=eastwest;fontSize=16;" vertex="1" parent="SeUheRbBUvaC_YqdOnx2-105">
          <mxGeometry y="99" width="130" height="25" as="geometry" />
        </mxCell>
        <mxCell id="SeUheRbBUvaC_YqdOnx2-123" value="Q&lt;sub&gt;F&lt;/sub&gt;" style="shape=partialRectangle;html=1;whiteSpace=wrap;connectable=0;strokeColor=inherit;overflow=hidden;fillColor=none;top=0;left=0;bottom=0;right=0;pointerEvents=1;fontSize=12;" vertex="1" parent="SeUheRbBUvaC_YqdOnx2-122">
          <mxGeometry width="60" height="25" as="geometry">
            <mxRectangle width="60" height="25" as="alternateBounds" />
          </mxGeometry>
        </mxCell>
        <mxCell id="SeUheRbBUvaC_YqdOnx2-124" value="" style="shape=partialRectangle;html=1;whiteSpace=wrap;connectable=0;strokeColor=inherit;overflow=hidden;fillColor=none;top=0;left=0;bottom=0;right=0;pointerEvents=1;fontSize=12;" vertex="1" parent="SeUheRbBUvaC_YqdOnx2-122">
          <mxGeometry x="60" width="10" height="25" as="geometry">
            <mxRectangle width="10" height="25" as="alternateBounds" />
          </mxGeometry>
        </mxCell>
        <mxCell id="SeUheRbBUvaC_YqdOnx2-125" value="RCLK" style="shape=partialRectangle;html=1;whiteSpace=wrap;connectable=0;strokeColor=inherit;overflow=hidden;fillColor=none;top=0;left=0;bottom=0;right=0;pointerEvents=1;fontSize=12;" vertex="1" parent="SeUheRbBUvaC_YqdOnx2-122">
          <mxGeometry x="70" width="60" height="25" as="geometry">
            <mxRectangle width="60" height="25" as="alternateBounds" />
          </mxGeometry>
        </mxCell>
        <mxCell id="SeUheRbBUvaC_YqdOnx2-126" value="" style="shape=tableRow;horizontal=0;startSize=0;swimlaneHead=0;swimlaneBody=0;strokeColor=inherit;top=0;left=0;bottom=0;right=0;collapsible=0;dropTarget=0;fillColor=none;points=[[0,0.5],[1,0.5]];portConstraint=eastwest;fontSize=16;" vertex="1" parent="SeUheRbBUvaC_YqdOnx2-105">
          <mxGeometry y="124" width="130" height="25" as="geometry" />
        </mxCell>
        <mxCell id="SeUheRbBUvaC_YqdOnx2-127" value="Q&lt;sub&gt;G&lt;/sub&gt;" style="shape=partialRectangle;html=1;whiteSpace=wrap;connectable=0;strokeColor=inherit;overflow=hidden;fillColor=none;top=0;left=0;bottom=0;right=0;pointerEvents=1;fontSize=12;" vertex="1" parent="SeUheRbBUvaC_YqdOnx2-126">
          <mxGeometry width="60" height="25" as="geometry">
            <mxRectangle width="60" height="25" as="alternateBounds" />
          </mxGeometry>
        </mxCell>
        <mxCell id="SeUheRbBUvaC_YqdOnx2-128" value="" style="shape=partialRectangle;html=1;whiteSpace=wrap;connectable=0;strokeColor=inherit;overflow=hidden;fillColor=none;top=0;left=0;bottom=0;right=0;pointerEvents=1;fontSize=12;" vertex="1" parent="SeUheRbBUvaC_YqdOnx2-126">
          <mxGeometry x="60" width="10" height="25" as="geometry">
            <mxRectangle width="10" height="25" as="alternateBounds" />
          </mxGeometry>
        </mxCell>
        <mxCell id="SeUheRbBUvaC_YqdOnx2-129" value="SRCLK" style="shape=partialRectangle;html=1;whiteSpace=wrap;connectable=0;strokeColor=inherit;overflow=hidden;fillColor=none;top=0;left=0;bottom=0;right=0;pointerEvents=1;fontSize=12;" vertex="1" parent="SeUheRbBUvaC_YqdOnx2-126">
          <mxGeometry x="70" width="60" height="25" as="geometry">
            <mxRectangle width="60" height="25" as="alternateBounds" />
          </mxGeometry>
        </mxCell>
        <mxCell id="SeUheRbBUvaC_YqdOnx2-130" value="" style="shape=tableRow;horizontal=0;startSize=0;swimlaneHead=0;swimlaneBody=0;strokeColor=inherit;top=0;left=0;bottom=0;right=0;collapsible=0;dropTarget=0;fillColor=none;points=[[0,0.5],[1,0.5]];portConstraint=eastwest;fontSize=16;" vertex="1" parent="SeUheRbBUvaC_YqdOnx2-105">
          <mxGeometry y="149" width="130" height="25" as="geometry" />
        </mxCell>
        <mxCell id="SeUheRbBUvaC_YqdOnx2-131" value="Q&lt;sub&gt;H&lt;/sub&gt;" style="shape=partialRectangle;html=1;whiteSpace=wrap;connectable=0;strokeColor=inherit;overflow=hidden;fillColor=none;top=0;left=0;bottom=0;right=0;pointerEvents=1;fontSize=12;" vertex="1" parent="SeUheRbBUvaC_YqdOnx2-130">
          <mxGeometry width="60" height="25" as="geometry">
            <mxRectangle width="60" height="25" as="alternateBounds" />
          </mxGeometry>
        </mxCell>
        <mxCell id="SeUheRbBUvaC_YqdOnx2-132" value="" style="shape=partialRectangle;html=1;whiteSpace=wrap;connectable=0;strokeColor=inherit;overflow=hidden;fillColor=none;top=0;left=0;bottom=0;right=0;pointerEvents=1;fontSize=12;" vertex="1" parent="SeUheRbBUvaC_YqdOnx2-130">
          <mxGeometry x="60" width="10" height="25" as="geometry">
            <mxRectangle width="10" height="25" as="alternateBounds" />
          </mxGeometry>
        </mxCell>
        <mxCell id="SeUheRbBUvaC_YqdOnx2-133" value="SRCLR" style="shape=partialRectangle;html=1;whiteSpace=wrap;connectable=0;strokeColor=inherit;overflow=hidden;fillColor=none;top=0;left=0;bottom=0;right=0;pointerEvents=1;fontSize=12;" vertex="1" parent="SeUheRbBUvaC_YqdOnx2-130">
          <mxGeometry x="70" width="60" height="25" as="geometry">
            <mxRectangle width="60" height="25" as="alternateBounds" />
          </mxGeometry>
        </mxCell>
        <mxCell id="SeUheRbBUvaC_YqdOnx2-134" value="" style="shape=tableRow;horizontal=0;startSize=0;swimlaneHead=0;swimlaneBody=0;strokeColor=inherit;top=0;left=0;bottom=0;right=0;collapsible=0;dropTarget=0;fillColor=none;points=[[0,0.5],[1,0.5]];portConstraint=eastwest;fontSize=16;" vertex="1" parent="SeUheRbBUvaC_YqdOnx2-105">
          <mxGeometry y="174" width="130" height="25" as="geometry" />
        </mxCell>
        <mxCell id="SeUheRbBUvaC_YqdOnx2-135" value="GND" style="shape=partialRectangle;html=1;whiteSpace=wrap;connectable=0;strokeColor=inherit;overflow=hidden;fillColor=none;top=0;left=0;bottom=0;right=0;pointerEvents=1;fontSize=12;" vertex="1" parent="SeUheRbBUvaC_YqdOnx2-134">
          <mxGeometry width="60" height="25" as="geometry">
            <mxRectangle width="60" height="25" as="alternateBounds" />
          </mxGeometry>
        </mxCell>
        <mxCell id="SeUheRbBUvaC_YqdOnx2-136" value="" style="shape=partialRectangle;html=1;whiteSpace=wrap;connectable=0;strokeColor=inherit;overflow=hidden;fillColor=none;top=0;left=0;bottom=0;right=0;pointerEvents=1;fontSize=12;" vertex="1" parent="SeUheRbBUvaC_YqdOnx2-134">
          <mxGeometry x="60" width="10" height="25" as="geometry">
            <mxRectangle width="10" height="25" as="alternateBounds" />
          </mxGeometry>
        </mxCell>
        <mxCell id="SeUheRbBUvaC_YqdOnx2-137" value="Q&lt;sub&gt;H&#39;&lt;/sub&gt;" style="shape=partialRectangle;html=1;whiteSpace=wrap;connectable=0;strokeColor=inherit;overflow=hidden;fillColor=none;top=0;left=0;bottom=0;right=0;pointerEvents=1;fontSize=12;" vertex="1" parent="SeUheRbBUvaC_YqdOnx2-134">
          <mxGeometry x="70" width="60" height="25" as="geometry">
            <mxRectangle width="60" height="25" as="alternateBounds" />
          </mxGeometry>
        </mxCell>
        <mxCell id="SeUheRbBUvaC_YqdOnx2-138" value="" style="shape=table;startSize=0;container=1;collapsible=0;childLayout=tableLayout;fontSize=16;" vertex="1" parent="1">
          <mxGeometry x="390" y="612.5" width="130" height="199" as="geometry" />
        </mxCell>
        <mxCell id="SeUheRbBUvaC_YqdOnx2-139" value="" style="shape=tableRow;horizontal=0;startSize=0;swimlaneHead=0;swimlaneBody=0;strokeColor=inherit;top=0;left=0;bottom=0;right=0;collapsible=0;dropTarget=0;fillColor=none;points=[[0,0.5],[1,0.5]];portConstraint=eastwest;fontSize=16;" vertex="1" parent="SeUheRbBUvaC_YqdOnx2-138">
          <mxGeometry width="130" height="25" as="geometry" />
        </mxCell>
        <mxCell id="SeUheRbBUvaC_YqdOnx2-140" value="Q&lt;sub&gt;B&lt;/sub&gt;" style="shape=partialRectangle;html=1;whiteSpace=wrap;connectable=0;strokeColor=inherit;overflow=hidden;fillColor=none;top=0;left=0;bottom=0;right=0;pointerEvents=1;fontSize=12;" vertex="1" parent="SeUheRbBUvaC_YqdOnx2-139">
          <mxGeometry width="60" height="25" as="geometry">
            <mxRectangle width="60" height="25" as="alternateBounds" />
          </mxGeometry>
        </mxCell>
        <mxCell id="SeUheRbBUvaC_YqdOnx2-141" value="" style="shape=partialRectangle;html=1;whiteSpace=wrap;connectable=0;strokeColor=inherit;overflow=hidden;fillColor=none;top=0;left=0;bottom=0;right=0;pointerEvents=1;fontSize=12;" vertex="1" parent="SeUheRbBUvaC_YqdOnx2-139">
          <mxGeometry x="60" width="10" height="25" as="geometry">
            <mxRectangle width="10" height="25" as="alternateBounds" />
          </mxGeometry>
        </mxCell>
        <mxCell id="SeUheRbBUvaC_YqdOnx2-142" value="V&lt;sub&gt;CC&lt;/sub&gt;" style="shape=partialRectangle;html=1;whiteSpace=wrap;connectable=0;strokeColor=inherit;overflow=hidden;fillColor=none;top=0;left=0;bottom=0;right=0;pointerEvents=1;fontSize=12;" vertex="1" parent="SeUheRbBUvaC_YqdOnx2-139">
          <mxGeometry x="70" width="60" height="25" as="geometry">
            <mxRectangle width="60" height="25" as="alternateBounds" />
          </mxGeometry>
        </mxCell>
        <mxCell id="SeUheRbBUvaC_YqdOnx2-143" value="" style="shape=tableRow;horizontal=0;startSize=0;swimlaneHead=0;swimlaneBody=0;strokeColor=inherit;top=0;left=0;bottom=0;right=0;collapsible=0;dropTarget=0;fillColor=none;points=[[0,0.5],[1,0.5]];portConstraint=eastwest;fontSize=16;" vertex="1" parent="SeUheRbBUvaC_YqdOnx2-138">
          <mxGeometry y="25" width="130" height="24" as="geometry" />
        </mxCell>
        <mxCell id="SeUheRbBUvaC_YqdOnx2-144" value="Q&lt;sub&gt;C&lt;/sub&gt;" style="shape=partialRectangle;html=1;whiteSpace=wrap;connectable=0;strokeColor=inherit;overflow=hidden;fillColor=none;top=0;left=0;bottom=0;right=0;pointerEvents=1;fontSize=12;" vertex="1" parent="SeUheRbBUvaC_YqdOnx2-143">
          <mxGeometry width="60" height="24" as="geometry">
            <mxRectangle width="60" height="24" as="alternateBounds" />
          </mxGeometry>
        </mxCell>
        <mxCell id="SeUheRbBUvaC_YqdOnx2-145" value="" style="shape=partialRectangle;html=1;whiteSpace=wrap;connectable=0;strokeColor=inherit;overflow=hidden;fillColor=none;top=0;left=0;bottom=0;right=0;pointerEvents=1;fontSize=12;" vertex="1" parent="SeUheRbBUvaC_YqdOnx2-143">
          <mxGeometry x="60" width="10" height="24" as="geometry">
            <mxRectangle width="10" height="24" as="alternateBounds" />
          </mxGeometry>
        </mxCell>
        <mxCell id="SeUheRbBUvaC_YqdOnx2-146" value="Q&lt;sub&gt;A&lt;/sub&gt;" style="shape=partialRectangle;html=1;whiteSpace=wrap;connectable=0;strokeColor=inherit;overflow=hidden;fillColor=none;top=0;left=0;bottom=0;right=0;pointerEvents=1;fontSize=12;" vertex="1" parent="SeUheRbBUvaC_YqdOnx2-143">
          <mxGeometry x="70" width="60" height="24" as="geometry">
            <mxRectangle width="60" height="24" as="alternateBounds" />
          </mxGeometry>
        </mxCell>
        <mxCell id="SeUheRbBUvaC_YqdOnx2-147" value="" style="shape=tableRow;horizontal=0;startSize=0;swimlaneHead=0;swimlaneBody=0;strokeColor=inherit;top=0;left=0;bottom=0;right=0;collapsible=0;dropTarget=0;fillColor=none;points=[[0,0.5],[1,0.5]];portConstraint=eastwest;fontSize=16;" vertex="1" parent="SeUheRbBUvaC_YqdOnx2-138">
          <mxGeometry y="49" width="130" height="25" as="geometry" />
        </mxCell>
        <mxCell id="SeUheRbBUvaC_YqdOnx2-148" value="Q&lt;sub&gt;D&lt;/sub&gt;" style="shape=partialRectangle;html=1;whiteSpace=wrap;connectable=0;strokeColor=inherit;overflow=hidden;fillColor=none;top=0;left=0;bottom=0;right=0;pointerEvents=1;fontSize=12;" vertex="1" parent="SeUheRbBUvaC_YqdOnx2-147">
          <mxGeometry width="60" height="25" as="geometry">
            <mxRectangle width="60" height="25" as="alternateBounds" />
          </mxGeometry>
        </mxCell>
        <mxCell id="SeUheRbBUvaC_YqdOnx2-149" value="" style="shape=partialRectangle;html=1;whiteSpace=wrap;connectable=0;strokeColor=inherit;overflow=hidden;fillColor=none;top=0;left=0;bottom=0;right=0;pointerEvents=1;fontSize=12;" vertex="1" parent="SeUheRbBUvaC_YqdOnx2-147">
          <mxGeometry x="60" width="10" height="25" as="geometry">
            <mxRectangle width="10" height="25" as="alternateBounds" />
          </mxGeometry>
        </mxCell>
        <mxCell id="SeUheRbBUvaC_YqdOnx2-150" value="SER" style="shape=partialRectangle;html=1;whiteSpace=wrap;connectable=0;strokeColor=inherit;overflow=hidden;fillColor=none;top=0;left=0;bottom=0;right=0;pointerEvents=1;fontSize=12;" vertex="1" parent="SeUheRbBUvaC_YqdOnx2-147">
          <mxGeometry x="70" width="60" height="25" as="geometry">
            <mxRectangle width="60" height="25" as="alternateBounds" />
          </mxGeometry>
        </mxCell>
        <mxCell id="SeUheRbBUvaC_YqdOnx2-151" value="" style="shape=tableRow;horizontal=0;startSize=0;swimlaneHead=0;swimlaneBody=0;strokeColor=inherit;top=0;left=0;bottom=0;right=0;collapsible=0;dropTarget=0;fillColor=none;points=[[0,0.5],[1,0.5]];portConstraint=eastwest;fontSize=16;" vertex="1" parent="SeUheRbBUvaC_YqdOnx2-138">
          <mxGeometry y="74" width="130" height="25" as="geometry" />
        </mxCell>
        <mxCell id="SeUheRbBUvaC_YqdOnx2-152" value="Q&lt;sub&gt;E&lt;/sub&gt;" style="shape=partialRectangle;html=1;whiteSpace=wrap;connectable=0;strokeColor=inherit;overflow=hidden;fillColor=none;top=0;left=0;bottom=0;right=0;pointerEvents=1;fontSize=12;" vertex="1" parent="SeUheRbBUvaC_YqdOnx2-151">
          <mxGeometry width="60" height="25" as="geometry">
            <mxRectangle width="60" height="25" as="alternateBounds" />
          </mxGeometry>
        </mxCell>
        <mxCell id="SeUheRbBUvaC_YqdOnx2-153" value="" style="shape=partialRectangle;html=1;whiteSpace=wrap;connectable=0;strokeColor=inherit;overflow=hidden;fillColor=none;top=0;left=0;bottom=0;right=0;pointerEvents=1;fontSize=12;" vertex="1" parent="SeUheRbBUvaC_YqdOnx2-151">
          <mxGeometry x="60" width="10" height="25" as="geometry">
            <mxRectangle width="10" height="25" as="alternateBounds" />
          </mxGeometry>
        </mxCell>
        <mxCell id="SeUheRbBUvaC_YqdOnx2-154" value="OE" style="shape=partialRectangle;html=1;whiteSpace=wrap;connectable=0;strokeColor=inherit;overflow=hidden;fillColor=none;top=0;left=0;bottom=0;right=0;pointerEvents=1;fontSize=12;" vertex="1" parent="SeUheRbBUvaC_YqdOnx2-151">
          <mxGeometry x="70" width="60" height="25" as="geometry">
            <mxRectangle width="60" height="25" as="alternateBounds" />
          </mxGeometry>
        </mxCell>
        <mxCell id="SeUheRbBUvaC_YqdOnx2-155" value="" style="shape=tableRow;horizontal=0;startSize=0;swimlaneHead=0;swimlaneBody=0;strokeColor=inherit;top=0;left=0;bottom=0;right=0;collapsible=0;dropTarget=0;fillColor=none;points=[[0,0.5],[1,0.5]];portConstraint=eastwest;fontSize=16;" vertex="1" parent="SeUheRbBUvaC_YqdOnx2-138">
          <mxGeometry y="99" width="130" height="25" as="geometry" />
        </mxCell>
        <mxCell id="SeUheRbBUvaC_YqdOnx2-156" value="Q&lt;sub&gt;F&lt;/sub&gt;" style="shape=partialRectangle;html=1;whiteSpace=wrap;connectable=0;strokeColor=inherit;overflow=hidden;fillColor=none;top=0;left=0;bottom=0;right=0;pointerEvents=1;fontSize=12;" vertex="1" parent="SeUheRbBUvaC_YqdOnx2-155">
          <mxGeometry width="60" height="25" as="geometry">
            <mxRectangle width="60" height="25" as="alternateBounds" />
          </mxGeometry>
        </mxCell>
        <mxCell id="SeUheRbBUvaC_YqdOnx2-157" value="" style="shape=partialRectangle;html=1;whiteSpace=wrap;connectable=0;strokeColor=inherit;overflow=hidden;fillColor=none;top=0;left=0;bottom=0;right=0;pointerEvents=1;fontSize=12;" vertex="1" parent="SeUheRbBUvaC_YqdOnx2-155">
          <mxGeometry x="60" width="10" height="25" as="geometry">
            <mxRectangle width="10" height="25" as="alternateBounds" />
          </mxGeometry>
        </mxCell>
        <mxCell id="SeUheRbBUvaC_YqdOnx2-158" value="RCLK" style="shape=partialRectangle;html=1;whiteSpace=wrap;connectable=0;strokeColor=inherit;overflow=hidden;fillColor=none;top=0;left=0;bottom=0;right=0;pointerEvents=1;fontSize=12;" vertex="1" parent="SeUheRbBUvaC_YqdOnx2-155">
          <mxGeometry x="70" width="60" height="25" as="geometry">
            <mxRectangle width="60" height="25" as="alternateBounds" />
          </mxGeometry>
        </mxCell>
        <mxCell id="SeUheRbBUvaC_YqdOnx2-159" value="" style="shape=tableRow;horizontal=0;startSize=0;swimlaneHead=0;swimlaneBody=0;strokeColor=inherit;top=0;left=0;bottom=0;right=0;collapsible=0;dropTarget=0;fillColor=none;points=[[0,0.5],[1,0.5]];portConstraint=eastwest;fontSize=16;" vertex="1" parent="SeUheRbBUvaC_YqdOnx2-138">
          <mxGeometry y="124" width="130" height="25" as="geometry" />
        </mxCell>
        <mxCell id="SeUheRbBUvaC_YqdOnx2-160" value="Q&lt;sub&gt;G&lt;/sub&gt;" style="shape=partialRectangle;html=1;whiteSpace=wrap;connectable=0;strokeColor=inherit;overflow=hidden;fillColor=none;top=0;left=0;bottom=0;right=0;pointerEvents=1;fontSize=12;" vertex="1" parent="SeUheRbBUvaC_YqdOnx2-159">
          <mxGeometry width="60" height="25" as="geometry">
            <mxRectangle width="60" height="25" as="alternateBounds" />
          </mxGeometry>
        </mxCell>
        <mxCell id="SeUheRbBUvaC_YqdOnx2-161" value="" style="shape=partialRectangle;html=1;whiteSpace=wrap;connectable=0;strokeColor=inherit;overflow=hidden;fillColor=none;top=0;left=0;bottom=0;right=0;pointerEvents=1;fontSize=12;" vertex="1" parent="SeUheRbBUvaC_YqdOnx2-159">
          <mxGeometry x="60" width="10" height="25" as="geometry">
            <mxRectangle width="10" height="25" as="alternateBounds" />
          </mxGeometry>
        </mxCell>
        <mxCell id="SeUheRbBUvaC_YqdOnx2-162" value="SRCLK" style="shape=partialRectangle;html=1;whiteSpace=wrap;connectable=0;strokeColor=inherit;overflow=hidden;fillColor=none;top=0;left=0;bottom=0;right=0;pointerEvents=1;fontSize=12;" vertex="1" parent="SeUheRbBUvaC_YqdOnx2-159">
          <mxGeometry x="70" width="60" height="25" as="geometry">
            <mxRectangle width="60" height="25" as="alternateBounds" />
          </mxGeometry>
        </mxCell>
        <mxCell id="SeUheRbBUvaC_YqdOnx2-163" value="" style="shape=tableRow;horizontal=0;startSize=0;swimlaneHead=0;swimlaneBody=0;strokeColor=inherit;top=0;left=0;bottom=0;right=0;collapsible=0;dropTarget=0;fillColor=none;points=[[0,0.5],[1,0.5]];portConstraint=eastwest;fontSize=16;" vertex="1" parent="SeUheRbBUvaC_YqdOnx2-138">
          <mxGeometry y="149" width="130" height="25" as="geometry" />
        </mxCell>
        <mxCell id="SeUheRbBUvaC_YqdOnx2-164" value="Q&lt;sub&gt;H&lt;/sub&gt;" style="shape=partialRectangle;html=1;whiteSpace=wrap;connectable=0;strokeColor=inherit;overflow=hidden;fillColor=none;top=0;left=0;bottom=0;right=0;pointerEvents=1;fontSize=12;" vertex="1" parent="SeUheRbBUvaC_YqdOnx2-163">
          <mxGeometry width="60" height="25" as="geometry">
            <mxRectangle width="60" height="25" as="alternateBounds" />
          </mxGeometry>
        </mxCell>
        <mxCell id="SeUheRbBUvaC_YqdOnx2-165" value="" style="shape=partialRectangle;html=1;whiteSpace=wrap;connectable=0;strokeColor=inherit;overflow=hidden;fillColor=none;top=0;left=0;bottom=0;right=0;pointerEvents=1;fontSize=12;" vertex="1" parent="SeUheRbBUvaC_YqdOnx2-163">
          <mxGeometry x="60" width="10" height="25" as="geometry">
            <mxRectangle width="10" height="25" as="alternateBounds" />
          </mxGeometry>
        </mxCell>
        <mxCell id="SeUheRbBUvaC_YqdOnx2-166" value="SRCLR" style="shape=partialRectangle;html=1;whiteSpace=wrap;connectable=0;strokeColor=inherit;overflow=hidden;fillColor=none;top=0;left=0;bottom=0;right=0;pointerEvents=1;fontSize=12;" vertex="1" parent="SeUheRbBUvaC_YqdOnx2-163">
          <mxGeometry x="70" width="60" height="25" as="geometry">
            <mxRectangle width="60" height="25" as="alternateBounds" />
          </mxGeometry>
        </mxCell>
        <mxCell id="SeUheRbBUvaC_YqdOnx2-167" value="" style="shape=tableRow;horizontal=0;startSize=0;swimlaneHead=0;swimlaneBody=0;strokeColor=inherit;top=0;left=0;bottom=0;right=0;collapsible=0;dropTarget=0;fillColor=none;points=[[0,0.5],[1,0.5]];portConstraint=eastwest;fontSize=16;" vertex="1" parent="SeUheRbBUvaC_YqdOnx2-138">
          <mxGeometry y="174" width="130" height="25" as="geometry" />
        </mxCell>
        <mxCell id="SeUheRbBUvaC_YqdOnx2-168" value="GND" style="shape=partialRectangle;html=1;whiteSpace=wrap;connectable=0;strokeColor=inherit;overflow=hidden;fillColor=none;top=0;left=0;bottom=0;right=0;pointerEvents=1;fontSize=12;" vertex="1" parent="SeUheRbBUvaC_YqdOnx2-167">
          <mxGeometry width="60" height="25" as="geometry">
            <mxRectangle width="60" height="25" as="alternateBounds" />
          </mxGeometry>
        </mxCell>
        <mxCell id="SeUheRbBUvaC_YqdOnx2-169" value="" style="shape=partialRectangle;html=1;whiteSpace=wrap;connectable=0;strokeColor=inherit;overflow=hidden;fillColor=none;top=0;left=0;bottom=0;right=0;pointerEvents=1;fontSize=12;" vertex="1" parent="SeUheRbBUvaC_YqdOnx2-167">
          <mxGeometry x="60" width="10" height="25" as="geometry">
            <mxRectangle width="10" height="25" as="alternateBounds" />
          </mxGeometry>
        </mxCell>
        <mxCell id="SeUheRbBUvaC_YqdOnx2-170" value="Q&lt;sub&gt;H&#39;&lt;/sub&gt;" style="shape=partialRectangle;html=1;whiteSpace=wrap;connectable=0;strokeColor=inherit;overflow=hidden;fillColor=none;top=0;left=0;bottom=0;right=0;pointerEvents=1;fontSize=12;" vertex="1" parent="SeUheRbBUvaC_YqdOnx2-167">
          <mxGeometry x="70" width="60" height="25" as="geometry">
            <mxRectangle width="60" height="25" as="alternateBounds" />
          </mxGeometry>
        </mxCell>
        <mxCell id="SeUheRbBUvaC_YqdOnx2-171" value="" style="shape=table;startSize=0;container=1;collapsible=0;childLayout=tableLayout;fontSize=16;" vertex="1" parent="1">
          <mxGeometry x="390" y="80" width="130" height="199" as="geometry" />
        </mxCell>
        <mxCell id="SeUheRbBUvaC_YqdOnx2-172" value="" style="shape=tableRow;horizontal=0;startSize=0;swimlaneHead=0;swimlaneBody=0;strokeColor=inherit;top=0;left=0;bottom=0;right=0;collapsible=0;dropTarget=0;fillColor=none;points=[[0,0.5],[1,0.5]];portConstraint=eastwest;fontSize=16;" vertex="1" parent="SeUheRbBUvaC_YqdOnx2-171">
          <mxGeometry width="130" height="25" as="geometry" />
        </mxCell>
        <mxCell id="SeUheRbBUvaC_YqdOnx2-173" value="Q&lt;sub&gt;B&lt;/sub&gt;" style="shape=partialRectangle;html=1;whiteSpace=wrap;connectable=0;strokeColor=inherit;overflow=hidden;fillColor=none;top=0;left=0;bottom=0;right=0;pointerEvents=1;fontSize=12;" vertex="1" parent="SeUheRbBUvaC_YqdOnx2-172">
          <mxGeometry width="60" height="25" as="geometry">
            <mxRectangle width="60" height="25" as="alternateBounds" />
          </mxGeometry>
        </mxCell>
        <mxCell id="SeUheRbBUvaC_YqdOnx2-174" value="" style="shape=partialRectangle;html=1;whiteSpace=wrap;connectable=0;strokeColor=inherit;overflow=hidden;fillColor=none;top=0;left=0;bottom=0;right=0;pointerEvents=1;fontSize=12;" vertex="1" parent="SeUheRbBUvaC_YqdOnx2-172">
          <mxGeometry x="60" width="10" height="25" as="geometry">
            <mxRectangle width="10" height="25" as="alternateBounds" />
          </mxGeometry>
        </mxCell>
        <mxCell id="SeUheRbBUvaC_YqdOnx2-175" value="V&lt;sub&gt;CC&lt;/sub&gt;" style="shape=partialRectangle;html=1;whiteSpace=wrap;connectable=0;strokeColor=inherit;overflow=hidden;fillColor=none;top=0;left=0;bottom=0;right=0;pointerEvents=1;fontSize=12;" vertex="1" parent="SeUheRbBUvaC_YqdOnx2-172">
          <mxGeometry x="70" width="60" height="25" as="geometry">
            <mxRectangle width="60" height="25" as="alternateBounds" />
          </mxGeometry>
        </mxCell>
        <mxCell id="SeUheRbBUvaC_YqdOnx2-176" value="" style="shape=tableRow;horizontal=0;startSize=0;swimlaneHead=0;swimlaneBody=0;strokeColor=inherit;top=0;left=0;bottom=0;right=0;collapsible=0;dropTarget=0;fillColor=none;points=[[0,0.5],[1,0.5]];portConstraint=eastwest;fontSize=16;" vertex="1" parent="SeUheRbBUvaC_YqdOnx2-171">
          <mxGeometry y="25" width="130" height="24" as="geometry" />
        </mxCell>
        <mxCell id="SeUheRbBUvaC_YqdOnx2-177" value="Q&lt;sub&gt;C&lt;/sub&gt;" style="shape=partialRectangle;html=1;whiteSpace=wrap;connectable=0;strokeColor=inherit;overflow=hidden;fillColor=none;top=0;left=0;bottom=0;right=0;pointerEvents=1;fontSize=12;" vertex="1" parent="SeUheRbBUvaC_YqdOnx2-176">
          <mxGeometry width="60" height="24" as="geometry">
            <mxRectangle width="60" height="24" as="alternateBounds" />
          </mxGeometry>
        </mxCell>
        <mxCell id="SeUheRbBUvaC_YqdOnx2-178" value="" style="shape=partialRectangle;html=1;whiteSpace=wrap;connectable=0;strokeColor=inherit;overflow=hidden;fillColor=none;top=0;left=0;bottom=0;right=0;pointerEvents=1;fontSize=12;" vertex="1" parent="SeUheRbBUvaC_YqdOnx2-176">
          <mxGeometry x="60" width="10" height="24" as="geometry">
            <mxRectangle width="10" height="24" as="alternateBounds" />
          </mxGeometry>
        </mxCell>
        <mxCell id="SeUheRbBUvaC_YqdOnx2-179" value="Q&lt;sub&gt;A&lt;/sub&gt;" style="shape=partialRectangle;html=1;whiteSpace=wrap;connectable=0;strokeColor=inherit;overflow=hidden;fillColor=none;top=0;left=0;bottom=0;right=0;pointerEvents=1;fontSize=12;" vertex="1" parent="SeUheRbBUvaC_YqdOnx2-176">
          <mxGeometry x="70" width="60" height="24" as="geometry">
            <mxRectangle width="60" height="24" as="alternateBounds" />
          </mxGeometry>
        </mxCell>
        <mxCell id="SeUheRbBUvaC_YqdOnx2-180" value="" style="shape=tableRow;horizontal=0;startSize=0;swimlaneHead=0;swimlaneBody=0;strokeColor=inherit;top=0;left=0;bottom=0;right=0;collapsible=0;dropTarget=0;fillColor=none;points=[[0,0.5],[1,0.5]];portConstraint=eastwest;fontSize=16;" vertex="1" parent="SeUheRbBUvaC_YqdOnx2-171">
          <mxGeometry y="49" width="130" height="25" as="geometry" />
        </mxCell>
        <mxCell id="SeUheRbBUvaC_YqdOnx2-181" value="Q&lt;sub&gt;D&lt;/sub&gt;" style="shape=partialRectangle;html=1;whiteSpace=wrap;connectable=0;strokeColor=inherit;overflow=hidden;fillColor=none;top=0;left=0;bottom=0;right=0;pointerEvents=1;fontSize=12;" vertex="1" parent="SeUheRbBUvaC_YqdOnx2-180">
          <mxGeometry width="60" height="25" as="geometry">
            <mxRectangle width="60" height="25" as="alternateBounds" />
          </mxGeometry>
        </mxCell>
        <mxCell id="SeUheRbBUvaC_YqdOnx2-182" value="" style="shape=partialRectangle;html=1;whiteSpace=wrap;connectable=0;strokeColor=inherit;overflow=hidden;fillColor=none;top=0;left=0;bottom=0;right=0;pointerEvents=1;fontSize=12;" vertex="1" parent="SeUheRbBUvaC_YqdOnx2-180">
          <mxGeometry x="60" width="10" height="25" as="geometry">
            <mxRectangle width="10" height="25" as="alternateBounds" />
          </mxGeometry>
        </mxCell>
        <mxCell id="SeUheRbBUvaC_YqdOnx2-183" value="SER" style="shape=partialRectangle;html=1;whiteSpace=wrap;connectable=0;strokeColor=inherit;overflow=hidden;fillColor=none;top=0;left=0;bottom=0;right=0;pointerEvents=1;fontSize=12;" vertex="1" parent="SeUheRbBUvaC_YqdOnx2-180">
          <mxGeometry x="70" width="60" height="25" as="geometry">
            <mxRectangle width="60" height="25" as="alternateBounds" />
          </mxGeometry>
        </mxCell>
        <mxCell id="SeUheRbBUvaC_YqdOnx2-184" value="" style="shape=tableRow;horizontal=0;startSize=0;swimlaneHead=0;swimlaneBody=0;strokeColor=inherit;top=0;left=0;bottom=0;right=0;collapsible=0;dropTarget=0;fillColor=none;points=[[0,0.5],[1,0.5]];portConstraint=eastwest;fontSize=16;" vertex="1" parent="SeUheRbBUvaC_YqdOnx2-171">
          <mxGeometry y="74" width="130" height="25" as="geometry" />
        </mxCell>
        <mxCell id="SeUheRbBUvaC_YqdOnx2-185" value="Q&lt;sub&gt;E&lt;/sub&gt;" style="shape=partialRectangle;html=1;whiteSpace=wrap;connectable=0;strokeColor=inherit;overflow=hidden;fillColor=none;top=0;left=0;bottom=0;right=0;pointerEvents=1;fontSize=12;" vertex="1" parent="SeUheRbBUvaC_YqdOnx2-184">
          <mxGeometry width="60" height="25" as="geometry">
            <mxRectangle width="60" height="25" as="alternateBounds" />
          </mxGeometry>
        </mxCell>
        <mxCell id="SeUheRbBUvaC_YqdOnx2-186" value="" style="shape=partialRectangle;html=1;whiteSpace=wrap;connectable=0;strokeColor=inherit;overflow=hidden;fillColor=none;top=0;left=0;bottom=0;right=0;pointerEvents=1;fontSize=12;" vertex="1" parent="SeUheRbBUvaC_YqdOnx2-184">
          <mxGeometry x="60" width="10" height="25" as="geometry">
            <mxRectangle width="10" height="25" as="alternateBounds" />
          </mxGeometry>
        </mxCell>
        <mxCell id="SeUheRbBUvaC_YqdOnx2-187" value="OE" style="shape=partialRectangle;html=1;whiteSpace=wrap;connectable=0;strokeColor=inherit;overflow=hidden;fillColor=none;top=0;left=0;bottom=0;right=0;pointerEvents=1;fontSize=12;" vertex="1" parent="SeUheRbBUvaC_YqdOnx2-184">
          <mxGeometry x="70" width="60" height="25" as="geometry">
            <mxRectangle width="60" height="25" as="alternateBounds" />
          </mxGeometry>
        </mxCell>
        <mxCell id="SeUheRbBUvaC_YqdOnx2-188" value="" style="shape=tableRow;horizontal=0;startSize=0;swimlaneHead=0;swimlaneBody=0;strokeColor=inherit;top=0;left=0;bottom=0;right=0;collapsible=0;dropTarget=0;fillColor=none;points=[[0,0.5],[1,0.5]];portConstraint=eastwest;fontSize=16;" vertex="1" parent="SeUheRbBUvaC_YqdOnx2-171">
          <mxGeometry y="99" width="130" height="25" as="geometry" />
        </mxCell>
        <mxCell id="SeUheRbBUvaC_YqdOnx2-189" value="Q&lt;sub&gt;F&lt;/sub&gt;" style="shape=partialRectangle;html=1;whiteSpace=wrap;connectable=0;strokeColor=inherit;overflow=hidden;fillColor=none;top=0;left=0;bottom=0;right=0;pointerEvents=1;fontSize=12;" vertex="1" parent="SeUheRbBUvaC_YqdOnx2-188">
          <mxGeometry width="60" height="25" as="geometry">
            <mxRectangle width="60" height="25" as="alternateBounds" />
          </mxGeometry>
        </mxCell>
        <mxCell id="SeUheRbBUvaC_YqdOnx2-190" value="" style="shape=partialRectangle;html=1;whiteSpace=wrap;connectable=0;strokeColor=inherit;overflow=hidden;fillColor=none;top=0;left=0;bottom=0;right=0;pointerEvents=1;fontSize=12;" vertex="1" parent="SeUheRbBUvaC_YqdOnx2-188">
          <mxGeometry x="60" width="10" height="25" as="geometry">
            <mxRectangle width="10" height="25" as="alternateBounds" />
          </mxGeometry>
        </mxCell>
        <mxCell id="SeUheRbBUvaC_YqdOnx2-191" value="RCLK" style="shape=partialRectangle;html=1;whiteSpace=wrap;connectable=0;strokeColor=inherit;overflow=hidden;fillColor=none;top=0;left=0;bottom=0;right=0;pointerEvents=1;fontSize=12;" vertex="1" parent="SeUheRbBUvaC_YqdOnx2-188">
          <mxGeometry x="70" width="60" height="25" as="geometry">
            <mxRectangle width="60" height="25" as="alternateBounds" />
          </mxGeometry>
        </mxCell>
        <mxCell id="SeUheRbBUvaC_YqdOnx2-192" value="" style="shape=tableRow;horizontal=0;startSize=0;swimlaneHead=0;swimlaneBody=0;strokeColor=inherit;top=0;left=0;bottom=0;right=0;collapsible=0;dropTarget=0;fillColor=none;points=[[0,0.5],[1,0.5]];portConstraint=eastwest;fontSize=16;" vertex="1" parent="SeUheRbBUvaC_YqdOnx2-171">
          <mxGeometry y="124" width="130" height="25" as="geometry" />
        </mxCell>
        <mxCell id="SeUheRbBUvaC_YqdOnx2-193" value="Q&lt;sub&gt;G&lt;/sub&gt;" style="shape=partialRectangle;html=1;whiteSpace=wrap;connectable=0;strokeColor=inherit;overflow=hidden;fillColor=none;top=0;left=0;bottom=0;right=0;pointerEvents=1;fontSize=12;" vertex="1" parent="SeUheRbBUvaC_YqdOnx2-192">
          <mxGeometry width="60" height="25" as="geometry">
            <mxRectangle width="60" height="25" as="alternateBounds" />
          </mxGeometry>
        </mxCell>
        <mxCell id="SeUheRbBUvaC_YqdOnx2-194" value="" style="shape=partialRectangle;html=1;whiteSpace=wrap;connectable=0;strokeColor=inherit;overflow=hidden;fillColor=none;top=0;left=0;bottom=0;right=0;pointerEvents=1;fontSize=12;" vertex="1" parent="SeUheRbBUvaC_YqdOnx2-192">
          <mxGeometry x="60" width="10" height="25" as="geometry">
            <mxRectangle width="10" height="25" as="alternateBounds" />
          </mxGeometry>
        </mxCell>
        <mxCell id="SeUheRbBUvaC_YqdOnx2-195" value="SRCLK" style="shape=partialRectangle;html=1;whiteSpace=wrap;connectable=0;strokeColor=inherit;overflow=hidden;fillColor=none;top=0;left=0;bottom=0;right=0;pointerEvents=1;fontSize=12;" vertex="1" parent="SeUheRbBUvaC_YqdOnx2-192">
          <mxGeometry x="70" width="60" height="25" as="geometry">
            <mxRectangle width="60" height="25" as="alternateBounds" />
          </mxGeometry>
        </mxCell>
        <mxCell id="SeUheRbBUvaC_YqdOnx2-196" value="" style="shape=tableRow;horizontal=0;startSize=0;swimlaneHead=0;swimlaneBody=0;strokeColor=inherit;top=0;left=0;bottom=0;right=0;collapsible=0;dropTarget=0;fillColor=none;points=[[0,0.5],[1,0.5]];portConstraint=eastwest;fontSize=16;" vertex="1" parent="SeUheRbBUvaC_YqdOnx2-171">
          <mxGeometry y="149" width="130" height="25" as="geometry" />
        </mxCell>
        <mxCell id="SeUheRbBUvaC_YqdOnx2-197" value="Q&lt;sub&gt;H&lt;/sub&gt;" style="shape=partialRectangle;html=1;whiteSpace=wrap;connectable=0;strokeColor=inherit;overflow=hidden;fillColor=none;top=0;left=0;bottom=0;right=0;pointerEvents=1;fontSize=12;" vertex="1" parent="SeUheRbBUvaC_YqdOnx2-196">
          <mxGeometry width="60" height="25" as="geometry">
            <mxRectangle width="60" height="25" as="alternateBounds" />
          </mxGeometry>
        </mxCell>
        <mxCell id="SeUheRbBUvaC_YqdOnx2-198" value="" style="shape=partialRectangle;html=1;whiteSpace=wrap;connectable=0;strokeColor=inherit;overflow=hidden;fillColor=none;top=0;left=0;bottom=0;right=0;pointerEvents=1;fontSize=12;" vertex="1" parent="SeUheRbBUvaC_YqdOnx2-196">
          <mxGeometry x="60" width="10" height="25" as="geometry">
            <mxRectangle width="10" height="25" as="alternateBounds" />
          </mxGeometry>
        </mxCell>
        <mxCell id="SeUheRbBUvaC_YqdOnx2-199" value="SRCLR" style="shape=partialRectangle;html=1;whiteSpace=wrap;connectable=0;strokeColor=inherit;overflow=hidden;fillColor=none;top=0;left=0;bottom=0;right=0;pointerEvents=1;fontSize=12;" vertex="1" parent="SeUheRbBUvaC_YqdOnx2-196">
          <mxGeometry x="70" width="60" height="25" as="geometry">
            <mxRectangle width="60" height="25" as="alternateBounds" />
          </mxGeometry>
        </mxCell>
        <mxCell id="SeUheRbBUvaC_YqdOnx2-200" value="" style="shape=tableRow;horizontal=0;startSize=0;swimlaneHead=0;swimlaneBody=0;strokeColor=inherit;top=0;left=0;bottom=0;right=0;collapsible=0;dropTarget=0;fillColor=none;points=[[0,0.5],[1,0.5]];portConstraint=eastwest;fontSize=16;" vertex="1" parent="SeUheRbBUvaC_YqdOnx2-171">
          <mxGeometry y="174" width="130" height="25" as="geometry" />
        </mxCell>
        <mxCell id="SeUheRbBUvaC_YqdOnx2-201" value="GND" style="shape=partialRectangle;html=1;whiteSpace=wrap;connectable=0;strokeColor=inherit;overflow=hidden;fillColor=none;top=0;left=0;bottom=0;right=0;pointerEvents=1;fontSize=12;" vertex="1" parent="SeUheRbBUvaC_YqdOnx2-200">
          <mxGeometry width="60" height="25" as="geometry">
            <mxRectangle width="60" height="25" as="alternateBounds" />
          </mxGeometry>
        </mxCell>
        <mxCell id="SeUheRbBUvaC_YqdOnx2-202" value="" style="shape=partialRectangle;html=1;whiteSpace=wrap;connectable=0;strokeColor=inherit;overflow=hidden;fillColor=none;top=0;left=0;bottom=0;right=0;pointerEvents=1;fontSize=12;" vertex="1" parent="SeUheRbBUvaC_YqdOnx2-200">
          <mxGeometry x="60" width="10" height="25" as="geometry">
            <mxRectangle width="10" height="25" as="alternateBounds" />
          </mxGeometry>
        </mxCell>
        <mxCell id="SeUheRbBUvaC_YqdOnx2-203" value="Q&lt;sub&gt;H&#39;&lt;/sub&gt;" style="shape=partialRectangle;html=1;whiteSpace=wrap;connectable=0;strokeColor=inherit;overflow=hidden;fillColor=none;top=0;left=0;bottom=0;right=0;pointerEvents=1;fontSize=12;" vertex="1" parent="SeUheRbBUvaC_YqdOnx2-200">
          <mxGeometry x="70" width="60" height="25" as="geometry">
            <mxRectangle width="60" height="25" as="alternateBounds" />
          </mxGeometry>
        </mxCell>
        <mxCell id="SeUheRbBUvaC_YqdOnx2-204" style="edgeStyle=orthogonalEdgeStyle;rounded=0;orthogonalLoop=1;jettySize=auto;html=1;entryX=0.5;entryY=1;entryDx=0;entryDy=0;endArrow=none;endFill=0;entryPerimeter=0;" edge="1" parent="1" source="SeUheRbBUvaC_YqdOnx2-172" target="SeUheRbBUvaC_YqdOnx2-228">
          <mxGeometry relative="1" as="geometry" />
        </mxCell>
        <mxCell id="SeUheRbBUvaC_YqdOnx2-205" style="edgeStyle=orthogonalEdgeStyle;rounded=0;orthogonalLoop=1;jettySize=auto;html=1;entryX=0.5;entryY=1;entryDx=0;entryDy=0;endArrow=none;endFill=0;entryPerimeter=0;" edge="1" parent="1" source="SeUheRbBUvaC_YqdOnx2-106" target="SeUheRbBUvaC_YqdOnx2-227">
          <mxGeometry relative="1" as="geometry" />
        </mxCell>
        <mxCell id="SeUheRbBUvaC_YqdOnx2-206" style="edgeStyle=orthogonalEdgeStyle;rounded=0;orthogonalLoop=1;jettySize=auto;html=1;entryX=0.5;entryY=1;entryDx=0;entryDy=0;endArrow=none;endFill=0;entryPerimeter=0;" edge="1" parent="1" source="SeUheRbBUvaC_YqdOnx2-139" target="SeUheRbBUvaC_YqdOnx2-223">
          <mxGeometry relative="1" as="geometry">
            <mxPoint x="800" y="252.5" as="targetPoint" />
          </mxGeometry>
        </mxCell>
        <mxCell id="SeUheRbBUvaC_YqdOnx2-207" style="edgeStyle=orthogonalEdgeStyle;rounded=0;orthogonalLoop=1;jettySize=auto;html=1;entryX=0.5;entryY=0;entryDx=0;entryDy=0;exitX=0;exitY=0.5;exitDx=0;exitDy=0;endArrow=none;endFill=0;entryPerimeter=0;" edge="1" parent="1" source="SeUheRbBUvaC_YqdOnx2-200" target="SeUheRbBUvaC_YqdOnx2-217">
          <mxGeometry relative="1" as="geometry" />
        </mxCell>
        <mxCell id="SeUheRbBUvaC_YqdOnx2-208" style="edgeStyle=orthogonalEdgeStyle;rounded=0;orthogonalLoop=1;jettySize=auto;html=1;entryX=0.5;entryY=0;entryDx=0;entryDy=0;exitX=0;exitY=0.5;exitDx=0;exitDy=0;endArrow=none;endFill=0;entryPerimeter=0;" edge="1" parent="1" source="SeUheRbBUvaC_YqdOnx2-134" target="SeUheRbBUvaC_YqdOnx2-231">
          <mxGeometry relative="1" as="geometry" />
        </mxCell>
        <mxCell id="SeUheRbBUvaC_YqdOnx2-210" value="5V Rail" style="rounded=0;whiteSpace=wrap;html=1;" vertex="1" parent="1">
          <mxGeometry x="1065" y="200" width="90" height="20" as="geometry" />
        </mxCell>
        <mxCell id="SeUheRbBUvaC_YqdOnx2-214" style="edgeStyle=orthogonalEdgeStyle;rounded=0;orthogonalLoop=1;jettySize=auto;html=1;entryX=1;entryY=0.5;entryDx=0;entryDy=0;endArrow=none;endFill=0;exitX=0;exitY=0.5;exitDx=0;exitDy=0;" edge="1" parent="1" source="SeUheRbBUvaC_YqdOnx2-211" target="SeUheRbBUvaC_YqdOnx2-10">
          <mxGeometry relative="1" as="geometry" />
        </mxCell>
        <mxCell id="SeUheRbBUvaC_YqdOnx2-211" value="GND Rail" style="rounded=0;whiteSpace=wrap;html=1;" vertex="1" parent="1">
          <mxGeometry x="1070" y="240" width="80" height="20" as="geometry" />
        </mxCell>
        <mxCell id="SeUheRbBUvaC_YqdOnx2-212" style="edgeStyle=orthogonalEdgeStyle;rounded=0;orthogonalLoop=1;jettySize=auto;html=1;entryX=0.5;entryY=0;entryDx=0;entryDy=0;exitX=0;exitY=0.5;exitDx=0;exitDy=0;endArrow=none;endFill=0;entryPerimeter=0;" edge="1" parent="1" source="SeUheRbBUvaC_YqdOnx2-167" target="SeUheRbBUvaC_YqdOnx2-232">
          <mxGeometry relative="1" as="geometry" />
        </mxCell>
        <mxCell id="SeUheRbBUvaC_YqdOnx2-213" style="edgeStyle=orthogonalEdgeStyle;rounded=0;orthogonalLoop=1;jettySize=auto;html=1;entryX=1.008;entryY=0.03;entryDx=0;entryDy=0;entryPerimeter=0;endArrow=none;endFill=0;exitX=0;exitY=0.5;exitDx=0;exitDy=0;" edge="1" parent="1" source="SeUheRbBUvaC_YqdOnx2-210" target="SeUheRbBUvaC_YqdOnx2-1">
          <mxGeometry relative="1" as="geometry" />
        </mxCell>
        <mxCell id="SeUheRbBUvaC_YqdOnx2-215" style="edgeStyle=orthogonalEdgeStyle;rounded=0;orthogonalLoop=1;jettySize=auto;html=1;entryX=0.5;entryY=1;entryDx=0;entryDy=0;endArrow=none;endFill=0;entryPerimeter=0;" edge="1" parent="1" source="SeUheRbBUvaC_YqdOnx2-196" target="SeUheRbBUvaC_YqdOnx2-233">
          <mxGeometry relative="1" as="geometry" />
        </mxCell>
        <mxCell id="SeUheRbBUvaC_YqdOnx2-217" value="GND" style="pointerEvents=1;verticalLabelPosition=bottom;shadow=0;dashed=0;align=center;html=1;verticalAlign=top;shape=mxgraph.electrical.signal_sources.signal_ground;rotation=90;" vertex="1" parent="1">
          <mxGeometry x="320" y="254" width="40" height="30" as="geometry" />
        </mxCell>
        <mxCell id="SeUheRbBUvaC_YqdOnx2-218" value="GND" style="pointerEvents=1;verticalLabelPosition=bottom;shadow=0;dashed=0;align=center;html=1;verticalAlign=top;shape=mxgraph.electrical.signal_sources.signal_ground;rotation=90;" vertex="1" parent="1">
          <mxGeometry x="-240" y="141.5" width="40" height="30" as="geometry" />
        </mxCell>
        <mxCell id="SeUheRbBUvaC_YqdOnx2-219" value="GND" style="pointerEvents=1;verticalLabelPosition=bottom;shadow=0;dashed=0;align=center;html=1;verticalAlign=top;shape=mxgraph.electrical.signal_sources.signal_ground;rotation=-91;" vertex="1" parent="1">
          <mxGeometry x="1197.5" y="235" width="40" height="30" as="geometry" />
        </mxCell>
        <mxCell id="SeUheRbBUvaC_YqdOnx2-220" value="GND" style="pointerEvents=1;verticalLabelPosition=bottom;shadow=0;dashed=0;align=center;html=1;verticalAlign=top;shape=mxgraph.electrical.signal_sources.signal_ground;rotation=-90;" vertex="1" parent="1">
          <mxGeometry x="1240" y="495" width="40" height="30" as="geometry" />
        </mxCell>
        <mxCell id="SeUheRbBUvaC_YqdOnx2-221" value="GND" style="pointerEvents=1;verticalLabelPosition=bottom;shadow=0;dashed=0;align=center;html=1;verticalAlign=top;shape=mxgraph.electrical.signal_sources.signal_ground;rotation=90;" vertex="1" parent="1">
          <mxGeometry x="10" y="706.5" width="40" height="30" as="geometry" />
        </mxCell>
        <mxCell id="SeUheRbBUvaC_YqdOnx2-222" value="&lt;font style=&quot;font-size: 12px;&quot;&gt;V&lt;sub style=&quot;&quot;&gt;CC&lt;/sub&gt;&lt;/font&gt;" style="pointerEvents=1;verticalLabelPosition=bottom;shadow=0;dashed=0;align=center;html=1;verticalAlign=top;shape=mxgraph.electrical.signal_sources.vss2;fontSize=24;flipV=1;rotation=90;" vertex="1" parent="1">
          <mxGeometry x="130" y="230" width="40" height="30" as="geometry" />
        </mxCell>
        <mxCell id="SeUheRbBUvaC_YqdOnx2-223" value="&lt;font style=&quot;font-size: 12px;&quot;&gt;V&lt;sub style=&quot;&quot;&gt;CC&lt;/sub&gt;&lt;/font&gt;" style="pointerEvents=1;verticalLabelPosition=bottom;shadow=0;dashed=0;align=center;html=1;verticalAlign=top;shape=mxgraph.electrical.signal_sources.vss2;fontSize=24;flipV=1;rotation=-90;" vertex="1" parent="1">
          <mxGeometry x="580" y="610" width="40" height="30" as="geometry" />
        </mxCell>
        <mxCell id="SeUheRbBUvaC_YqdOnx2-225" style="edgeStyle=orthogonalEdgeStyle;rounded=0;orthogonalLoop=1;jettySize=auto;html=1;entryX=0.5;entryY=0;entryDx=0;entryDy=0;entryPerimeter=0;endArrow=none;endFill=0;" edge="1" parent="1" source="SeUheRbBUvaC_YqdOnx2-211" target="SeUheRbBUvaC_YqdOnx2-219">
          <mxGeometry relative="1" as="geometry" />
        </mxCell>
        <mxCell id="SeUheRbBUvaC_YqdOnx2-227" value="&lt;font style=&quot;font-size: 12px;&quot;&gt;V&lt;sub style=&quot;&quot;&gt;CC&lt;/sub&gt;&lt;/font&gt;" style="pointerEvents=1;verticalLabelPosition=bottom;shadow=0;dashed=0;align=center;html=1;verticalAlign=top;shape=mxgraph.electrical.signal_sources.vss2;fontSize=24;flipV=1;rotation=-90;" vertex="1" parent="1">
          <mxGeometry x="560" y="350" width="40" height="30" as="geometry" />
        </mxCell>
        <mxCell id="SeUheRbBUvaC_YqdOnx2-228" value="&lt;font style=&quot;font-size: 12px;&quot;&gt;V&lt;sub style=&quot;&quot;&gt;CC&lt;/sub&gt;&lt;/font&gt;" style="pointerEvents=1;verticalLabelPosition=bottom;shadow=0;dashed=0;align=center;html=1;verticalAlign=top;shape=mxgraph.electrical.signal_sources.vss2;fontSize=24;flipV=1;rotation=-90;" vertex="1" parent="1">
          <mxGeometry x="560" y="77.5" width="40" height="30" as="geometry" />
        </mxCell>
        <mxCell id="SeUheRbBUvaC_YqdOnx2-229" value="&lt;font style=&quot;font-size: 12px;&quot;&gt;V&lt;sub style=&quot;&quot;&gt;CC&lt;/sub&gt;&lt;/font&gt;" style="pointerEvents=1;verticalLabelPosition=bottom;shadow=0;dashed=0;align=center;html=1;verticalAlign=top;shape=mxgraph.electrical.signal_sources.vss2;fontSize=24;flipV=1;rotation=-90;" vertex="1" parent="1">
          <mxGeometry x="1197.5" y="190" width="40" height="30" as="geometry" />
        </mxCell>
        <mxCell id="SeUheRbBUvaC_YqdOnx2-230" style="edgeStyle=orthogonalEdgeStyle;rounded=0;orthogonalLoop=1;jettySize=auto;html=1;entryX=0.5;entryY=1;entryDx=0;entryDy=0;entryPerimeter=0;endArrow=none;endFill=0;" edge="1" parent="1" source="SeUheRbBUvaC_YqdOnx2-210" target="SeUheRbBUvaC_YqdOnx2-229">
          <mxGeometry relative="1" as="geometry" />
        </mxCell>
        <mxCell id="SeUheRbBUvaC_YqdOnx2-231" value="GND" style="pointerEvents=1;verticalLabelPosition=bottom;shadow=0;dashed=0;align=center;html=1;verticalAlign=top;shape=mxgraph.electrical.signal_sources.signal_ground;rotation=90;" vertex="1" parent="1">
          <mxGeometry x="320" y="522.5" width="40" height="30" as="geometry" />
        </mxCell>
        <mxCell id="SeUheRbBUvaC_YqdOnx2-232" value="GND" style="pointerEvents=1;verticalLabelPosition=bottom;shadow=0;dashed=0;align=center;html=1;verticalAlign=top;shape=mxgraph.electrical.signal_sources.signal_ground;rotation=90;" vertex="1" parent="1">
          <mxGeometry x="310" y="786.5" width="40" height="30" as="geometry" />
        </mxCell>
        <mxCell id="SeUheRbBUvaC_YqdOnx2-233" value="&lt;font style=&quot;font-size: 12px;&quot;&gt;V&lt;sub style=&quot;&quot;&gt;CC&lt;/sub&gt;&lt;/font&gt;" style="pointerEvents=1;verticalLabelPosition=bottom;shadow=0;dashed=0;align=center;html=1;verticalAlign=top;shape=mxgraph.electrical.signal_sources.vss2;fontSize=24;flipV=1;rotation=-90;" vertex="1" parent="1">
          <mxGeometry x="660" y="226.5" width="40" height="30" as="geometry" />
        </mxCell>
        <mxCell id="SeUheRbBUvaC_YqdOnx2-234" value="&lt;font style=&quot;font-size: 12px;&quot;&gt;V&lt;sub style=&quot;&quot;&gt;CC&lt;/sub&gt;&lt;/font&gt;" style="pointerEvents=1;verticalLabelPosition=bottom;shadow=0;dashed=0;align=center;html=1;verticalAlign=top;shape=mxgraph.electrical.signal_sources.vss2;fontSize=24;flipV=1;rotation=-90;" vertex="1" parent="1">
          <mxGeometry x="660" y="502.5" width="40" height="30" as="geometry" />
        </mxCell>
        <mxCell id="SeUheRbBUvaC_YqdOnx2-235" value="&lt;font style=&quot;font-size: 12px;&quot;&gt;V&lt;sub style=&quot;&quot;&gt;CC&lt;/sub&gt;&lt;/font&gt;" style="pointerEvents=1;verticalLabelPosition=bottom;shadow=0;dashed=0;align=center;html=1;verticalAlign=top;shape=mxgraph.electrical.signal_sources.vss2;fontSize=24;flipV=1;rotation=-90;" vertex="1" parent="1">
          <mxGeometry x="660" y="764" width="40" height="30" as="geometry" />
        </mxCell>
        <mxCell id="SeUheRbBUvaC_YqdOnx2-237" style="edgeStyle=orthogonalEdgeStyle;rounded=0;orthogonalLoop=1;jettySize=auto;html=1;entryX=0.5;entryY=1;entryDx=0;entryDy=0;entryPerimeter=0;endArrow=none;endFill=0;" edge="1" parent="1" source="SeUheRbBUvaC_YqdOnx2-130" target="SeUheRbBUvaC_YqdOnx2-234">
          <mxGeometry relative="1" as="geometry" />
        </mxCell>
        <mxCell id="SeUheRbBUvaC_YqdOnx2-238" style="edgeStyle=orthogonalEdgeStyle;rounded=0;orthogonalLoop=1;jettySize=auto;html=1;entryX=0.525;entryY=1.2;entryDx=0;entryDy=0;entryPerimeter=0;endArrow=none;endFill=0;" edge="1" parent="1" source="SeUheRbBUvaC_YqdOnx2-163" target="SeUheRbBUvaC_YqdOnx2-235">
          <mxGeometry relative="1" as="geometry" />
        </mxCell>
        <mxCell id="SeUheRbBUvaC_YqdOnx2-239" value="GND" style="pointerEvents=1;verticalLabelPosition=bottom;shadow=0;dashed=0;align=center;html=1;verticalAlign=top;shape=mxgraph.electrical.signal_sources.signal_ground;rotation=-90;" vertex="1" parent="1">
          <mxGeometry x="670" y="684" width="40" height="30" as="geometry" />
        </mxCell>
        <mxCell id="SeUheRbBUvaC_YqdOnx2-240" value="GND" style="pointerEvents=1;verticalLabelPosition=bottom;shadow=0;dashed=0;align=center;html=1;verticalAlign=top;shape=mxgraph.electrical.signal_sources.signal_ground;rotation=-90;" vertex="1" parent="1">
          <mxGeometry x="670" y="151.5" width="40" height="30" as="geometry" />
        </mxCell>
        <mxCell id="SeUheRbBUvaC_YqdOnx2-241" value="GND" style="pointerEvents=1;verticalLabelPosition=bottom;shadow=0;dashed=0;align=center;html=1;verticalAlign=top;shape=mxgraph.electrical.signal_sources.signal_ground;rotation=-90;" vertex="1" parent="1">
          <mxGeometry x="670" y="426.5" width="40" height="30" as="geometry" />
        </mxCell>
        <mxCell id="SeUheRbBUvaC_YqdOnx2-242" style="edgeStyle=orthogonalEdgeStyle;rounded=0;orthogonalLoop=1;jettySize=auto;html=1;entryX=0.5;entryY=0;entryDx=0;entryDy=0;entryPerimeter=0;endArrow=none;endFill=0;" edge="1" parent="1" source="SeUheRbBUvaC_YqdOnx2-118" target="SeUheRbBUvaC_YqdOnx2-241">
          <mxGeometry relative="1" as="geometry" />
        </mxCell>
        <mxCell id="SeUheRbBUvaC_YqdOnx2-243" style="edgeStyle=orthogonalEdgeStyle;rounded=0;orthogonalLoop=1;jettySize=auto;html=1;entryX=0.5;entryY=0;entryDx=0;entryDy=0;entryPerimeter=0;endArrow=none;endFill=0;" edge="1" parent="1" source="SeUheRbBUvaC_YqdOnx2-184" target="SeUheRbBUvaC_YqdOnx2-240">
          <mxGeometry relative="1" as="geometry" />
        </mxCell>
        <mxCell id="SeUheRbBUvaC_YqdOnx2-244" style="edgeStyle=orthogonalEdgeStyle;rounded=0;orthogonalLoop=1;jettySize=auto;html=1;entryX=0.5;entryY=0;entryDx=0;entryDy=0;entryPerimeter=0;endArrow=none;endFill=0;" edge="1" parent="1" source="SeUheRbBUvaC_YqdOnx2-151" target="SeUheRbBUvaC_YqdOnx2-239">
          <mxGeometry relative="1" as="geometry" />
        </mxCell>
        <mxCell id="SeUheRbBUvaC_YqdOnx2-246" value="GP13" style="rounded=0;whiteSpace=wrap;html=1;fontSize=10;fillColor=#CCFFFF;" vertex="1" parent="1">
          <mxGeometry x="560" y="131.5" width="60" height="20" as="geometry" />
        </mxCell>
        <mxCell id="SeUheRbBUvaC_YqdOnx2-250" value="GP15" style="rounded=0;whiteSpace=wrap;html=1;fontSize=10;fillColor=#FFFFCC;" vertex="1" parent="1">
          <mxGeometry x="560" y="741.5" width="60" height="20" as="geometry" />
        </mxCell>
        <mxCell id="SeUheRbBUvaC_YqdOnx2-251" value="GP15" style="rounded=0;whiteSpace=wrap;html=1;fontSize=10;fillColor=#FFFFCC;" vertex="1" parent="1">
          <mxGeometry x="560" y="479" width="60" height="20" as="geometry" />
        </mxCell>
        <mxCell id="SeUheRbBUvaC_YqdOnx2-252" value="GP15" style="rounded=0;whiteSpace=wrap;html=1;fontSize=10;fillColor=#FFFFCC;" vertex="1" parent="1">
          <mxGeometry x="560" y="206.5" width="60" height="20" as="geometry" />
        </mxCell>
        <mxCell id="SeUheRbBUvaC_YqdOnx2-253" style="edgeStyle=orthogonalEdgeStyle;rounded=0;orthogonalLoop=1;jettySize=auto;html=1;entryX=0;entryY=0.5;entryDx=0;entryDy=0;endArrow=none;endFill=0;" edge="1" parent="1" source="SeUheRbBUvaC_YqdOnx2-192" target="SeUheRbBUvaC_YqdOnx2-252">
          <mxGeometry relative="1" as="geometry" />
        </mxCell>
        <mxCell id="SeUheRbBUvaC_YqdOnx2-254" value="GP14" style="rounded=0;whiteSpace=wrap;html=1;fontSize=10;fillColor=#FFCC99;" vertex="1" parent="1">
          <mxGeometry x="560" y="711.5" width="60" height="20" as="geometry" />
        </mxCell>
        <mxCell id="SeUheRbBUvaC_YqdOnx2-255" value="GP14" style="rounded=0;whiteSpace=wrap;html=1;fontSize=10;fillColor=#FFCC99;" vertex="1" parent="1">
          <mxGeometry x="560" y="453.5" width="60" height="20" as="geometry" />
        </mxCell>
        <mxCell id="SeUheRbBUvaC_YqdOnx2-256" value="GP14" style="rounded=0;whiteSpace=wrap;html=1;fontSize=10;fillColor=#FFCC99;" vertex="1" parent="1">
          <mxGeometry x="560" y="181.5" width="60" height="20" as="geometry" />
        </mxCell>
        <mxCell id="SeUheRbBUvaC_YqdOnx2-257" style="edgeStyle=orthogonalEdgeStyle;rounded=0;orthogonalLoop=1;jettySize=auto;html=1;entryX=0;entryY=0.5;entryDx=0;entryDy=0;endArrow=none;endFill=0;" edge="1" parent="1" source="SeUheRbBUvaC_YqdOnx2-188" target="SeUheRbBUvaC_YqdOnx2-256">
          <mxGeometry relative="1" as="geometry" />
        </mxCell>
        <mxCell id="SeUheRbBUvaC_YqdOnx2-258" style="edgeStyle=orthogonalEdgeStyle;rounded=0;orthogonalLoop=1;jettySize=auto;html=1;entryX=0;entryY=0.5;entryDx=0;entryDy=0;endArrow=none;endFill=0;" edge="1" parent="1" source="SeUheRbBUvaC_YqdOnx2-126" target="SeUheRbBUvaC_YqdOnx2-251">
          <mxGeometry relative="1" as="geometry" />
        </mxCell>
        <mxCell id="SeUheRbBUvaC_YqdOnx2-259" style="edgeStyle=orthogonalEdgeStyle;rounded=0;orthogonalLoop=1;jettySize=auto;html=1;entryX=0;entryY=0.5;entryDx=0;entryDy=0;endArrow=none;endFill=0;" edge="1" parent="1" source="SeUheRbBUvaC_YqdOnx2-122" target="SeUheRbBUvaC_YqdOnx2-255">
          <mxGeometry relative="1" as="geometry" />
        </mxCell>
        <mxCell id="SeUheRbBUvaC_YqdOnx2-260" style="edgeStyle=orthogonalEdgeStyle;rounded=0;orthogonalLoop=1;jettySize=auto;html=1;entryX=0;entryY=0.5;entryDx=0;entryDy=0;endArrow=none;endFill=0;" edge="1" parent="1" source="SeUheRbBUvaC_YqdOnx2-159" target="SeUheRbBUvaC_YqdOnx2-250">
          <mxGeometry relative="1" as="geometry" />
        </mxCell>
        <mxCell id="SeUheRbBUvaC_YqdOnx2-261" style="edgeStyle=orthogonalEdgeStyle;rounded=0;orthogonalLoop=1;jettySize=auto;html=1;endArrow=none;endFill=0;" edge="1" parent="1" source="SeUheRbBUvaC_YqdOnx2-155" target="SeUheRbBUvaC_YqdOnx2-254">
          <mxGeometry relative="1" as="geometry" />
        </mxCell>
        <mxCell id="SeUheRbBUvaC_YqdOnx2-262" style="edgeStyle=orthogonalEdgeStyle;rounded=0;orthogonalLoop=1;jettySize=auto;html=1;entryX=1;entryY=0.5;entryDx=0;entryDy=0;endArrow=none;endFill=0;exitX=1;exitY=0.5;exitDx=0;exitDy=0;" edge="1" parent="1" source="SeUheRbBUvaC_YqdOnx2-147" target="SeUheRbBUvaC_YqdOnx2-134">
          <mxGeometry relative="1" as="geometry">
            <Array as="points">
              <mxPoint x="560" y="674" />
              <mxPoint x="560" y="539" />
            </Array>
          </mxGeometry>
        </mxCell>
        <mxCell id="SeUheRbBUvaC_YqdOnx2-263" value="GP1" style="rounded=0;whiteSpace=wrap;html=1;fontSize=10;fillColor=#B9E0A5;" vertex="1" parent="1">
          <mxGeometry x="-70" y="90" width="60" height="20" as="geometry" />
        </mxCell>
        <mxCell id="SeUheRbBUvaC_YqdOnx2-264" style="edgeStyle=orthogonalEdgeStyle;rounded=0;orthogonalLoop=1;jettySize=auto;html=1;entryX=1;entryY=0.5;entryDx=0;entryDy=0;endArrow=none;endFill=0;exitX=1;exitY=0.5;exitDx=0;exitDy=0;" edge="1" parent="1" source="SeUheRbBUvaC_YqdOnx2-114" target="SeUheRbBUvaC_YqdOnx2-200">
          <mxGeometry relative="1" as="geometry">
            <Array as="points">
              <mxPoint x="560" y="414" />
              <mxPoint x="560" y="267" />
            </Array>
          </mxGeometry>
        </mxCell>
        <mxCell id="SeUheRbBUvaC_YqdOnx2-265" style="edgeStyle=orthogonalEdgeStyle;rounded=0;orthogonalLoop=1;jettySize=auto;html=1;entryX=0;entryY=0.5;entryDx=0;entryDy=0;endArrow=none;endFill=0;" edge="1" parent="1" source="SeUheRbBUvaC_YqdOnx2-180" target="SeUheRbBUvaC_YqdOnx2-246">
          <mxGeometry relative="1" as="geometry" />
        </mxCell>
        <mxCell id="SeUheRbBUvaC_YqdOnx2-266" value="74HC595&lt;div&gt;8-bit Shift Register&lt;/div&gt;" style="text;html=1;align=center;verticalAlign=middle;whiteSpace=wrap;rounded=0;fontSize=10;" vertex="1" parent="1">
          <mxGeometry x="405" y="10" width="100" height="30" as="geometry" />
        </mxCell>
        <mxCell id="SeUheRbBUvaC_YqdOnx2-267" value="ULN2003&lt;div&gt;Step-Motor Driver Board&lt;/div&gt;" style="text;html=1;align=center;verticalAlign=middle;whiteSpace=wrap;rounded=0;fontSize=10;" vertex="1" parent="1">
          <mxGeometry x="130" y="10" width="120" height="30" as="geometry" />
        </mxCell>
        <mxCell id="SeUheRbBUvaC_YqdOnx2-268" value="A3144&lt;div&gt;Hall Effect Sensor&lt;/div&gt;" style="text;html=1;align=center;verticalAlign=middle;whiteSpace=wrap;rounded=0;fontSize=10;" vertex="1" parent="1">
          <mxGeometry x="-190" y="25" width="100" height="30" as="geometry" />
        </mxCell>
        <mxCell id="SeUheRbBUvaC_YqdOnx2-308" style="edgeStyle=orthogonalEdgeStyle;rounded=0;orthogonalLoop=1;jettySize=auto;html=1;entryX=0;entryY=0.5;entryDx=0;entryDy=0;endArrow=none;endFill=0;" edge="1" parent="1" source="SeUheRbBUvaC_YqdOnx2-269" target="SeUheRbBUvaC_YqdOnx2-180">
          <mxGeometry relative="1" as="geometry" />
        </mxCell>
        <mxCell id="SeUheRbBUvaC_YqdOnx2-269" value="" style="shape=table;startSize=0;container=1;collapsible=0;childLayout=tableLayout;fontSize=16;" vertex="1" parent="1">
          <mxGeometry x="130" y="60" width="60" height="140" as="geometry" />
        </mxCell>
        <mxCell id="SeUheRbBUvaC_YqdOnx2-270" value="" style="shape=tableRow;horizontal=0;startSize=0;swimlaneHead=0;swimlaneBody=0;strokeColor=inherit;top=0;left=0;bottom=0;right=0;collapsible=0;dropTarget=0;fillColor=none;points=[[0,0.5],[1,0.5]];portConstraint=eastwest;fontSize=16;" vertex="1" parent="SeUheRbBUvaC_YqdOnx2-269">
          <mxGeometry width="60" height="20" as="geometry" />
        </mxCell>
        <mxCell id="SeUheRbBUvaC_YqdOnx2-271" value="IN1" style="shape=partialRectangle;html=1;whiteSpace=wrap;connectable=0;strokeColor=inherit;overflow=hidden;fillColor=none;top=0;left=0;bottom=0;right=0;pointerEvents=1;fontSize=10;" vertex="1" parent="SeUheRbBUvaC_YqdOnx2-270">
          <mxGeometry width="60" height="20" as="geometry">
            <mxRectangle width="60" height="20" as="alternateBounds" />
          </mxGeometry>
        </mxCell>
        <mxCell id="SeUheRbBUvaC_YqdOnx2-274" value="" style="shape=tableRow;horizontal=0;startSize=0;swimlaneHead=0;swimlaneBody=0;strokeColor=inherit;top=0;left=0;bottom=0;right=0;collapsible=0;dropTarget=0;fillColor=none;points=[[0,0.5],[1,0.5]];portConstraint=eastwest;fontSize=16;" vertex="1" parent="SeUheRbBUvaC_YqdOnx2-269">
          <mxGeometry y="20" width="60" height="20" as="geometry" />
        </mxCell>
        <mxCell id="SeUheRbBUvaC_YqdOnx2-275" value="IN2" style="shape=partialRectangle;html=1;whiteSpace=wrap;connectable=0;strokeColor=inherit;overflow=hidden;fillColor=none;top=0;left=0;bottom=0;right=0;pointerEvents=1;fontSize=10;" vertex="1" parent="SeUheRbBUvaC_YqdOnx2-274">
          <mxGeometry width="60" height="20" as="geometry">
            <mxRectangle width="60" height="20" as="alternateBounds" />
          </mxGeometry>
        </mxCell>
        <mxCell id="SeUheRbBUvaC_YqdOnx2-278" value="" style="shape=tableRow;horizontal=0;startSize=0;swimlaneHead=0;swimlaneBody=0;strokeColor=inherit;top=0;left=0;bottom=0;right=0;collapsible=0;dropTarget=0;fillColor=none;points=[[0,0.5],[1,0.5]];portConstraint=eastwest;fontSize=16;" vertex="1" parent="SeUheRbBUvaC_YqdOnx2-269">
          <mxGeometry y="40" width="60" height="20" as="geometry" />
        </mxCell>
        <mxCell id="SeUheRbBUvaC_YqdOnx2-279" value="IN3" style="shape=partialRectangle;html=1;whiteSpace=wrap;connectable=0;strokeColor=inherit;overflow=hidden;fillColor=none;top=0;left=0;bottom=0;right=0;pointerEvents=1;fontSize=10;" vertex="1" parent="SeUheRbBUvaC_YqdOnx2-278">
          <mxGeometry width="60" height="20" as="geometry">
            <mxRectangle width="60" height="20" as="alternateBounds" />
          </mxGeometry>
        </mxCell>
        <mxCell id="SeUheRbBUvaC_YqdOnx2-282" style="shape=tableRow;horizontal=0;startSize=0;swimlaneHead=0;swimlaneBody=0;strokeColor=inherit;top=0;left=0;bottom=0;right=0;collapsible=0;dropTarget=0;fillColor=none;points=[[0,0.5],[1,0.5]];portConstraint=eastwest;fontSize=16;" vertex="1" parent="SeUheRbBUvaC_YqdOnx2-269">
          <mxGeometry y="60" width="60" height="20" as="geometry" />
        </mxCell>
        <mxCell id="SeUheRbBUvaC_YqdOnx2-283" value="IN4" style="shape=partialRectangle;html=1;whiteSpace=wrap;connectable=0;strokeColor=inherit;overflow=hidden;fillColor=none;top=0;left=0;bottom=0;right=0;pointerEvents=1;fontSize=10;" vertex="1" parent="SeUheRbBUvaC_YqdOnx2-282">
          <mxGeometry width="60" height="20" as="geometry">
            <mxRectangle width="60" height="20" as="alternateBounds" />
          </mxGeometry>
        </mxCell>
        <mxCell id="SeUheRbBUvaC_YqdOnx2-284" style="shape=tableRow;horizontal=0;startSize=0;swimlaneHead=0;swimlaneBody=0;strokeColor=inherit;top=0;left=0;bottom=0;right=0;collapsible=0;dropTarget=0;fillColor=none;points=[[0,0.5],[1,0.5]];portConstraint=eastwest;fontSize=16;" vertex="1" parent="SeUheRbBUvaC_YqdOnx2-269">
          <mxGeometry y="80" width="60" height="20" as="geometry" />
        </mxCell>
        <mxCell id="SeUheRbBUvaC_YqdOnx2-285" value="+Vcc" style="shape=partialRectangle;html=1;whiteSpace=wrap;connectable=0;strokeColor=inherit;overflow=hidden;fillColor=none;top=0;left=0;bottom=0;right=0;pointerEvents=1;fontSize=10;" vertex="1" parent="SeUheRbBUvaC_YqdOnx2-284">
          <mxGeometry width="60" height="20" as="geometry">
            <mxRectangle width="60" height="20" as="alternateBounds" />
          </mxGeometry>
        </mxCell>
        <mxCell id="SeUheRbBUvaC_YqdOnx2-286" style="shape=tableRow;horizontal=0;startSize=0;swimlaneHead=0;swimlaneBody=0;strokeColor=inherit;top=0;left=0;bottom=0;right=0;collapsible=0;dropTarget=0;fillColor=none;points=[[0,0.5],[1,0.5]];portConstraint=eastwest;fontSize=16;" vertex="1" parent="SeUheRbBUvaC_YqdOnx2-269">
          <mxGeometry y="100" width="60" height="20" as="geometry" />
        </mxCell>
        <mxCell id="SeUheRbBUvaC_YqdOnx2-287" value="-GND" style="shape=partialRectangle;html=1;whiteSpace=wrap;connectable=0;strokeColor=inherit;overflow=hidden;fillColor=none;top=0;left=0;bottom=0;right=0;pointerEvents=1;fontSize=10;" vertex="1" parent="SeUheRbBUvaC_YqdOnx2-286">
          <mxGeometry width="60" height="20" as="geometry">
            <mxRectangle width="60" height="20" as="alternateBounds" />
          </mxGeometry>
        </mxCell>
        <mxCell id="SeUheRbBUvaC_YqdOnx2-288" style="shape=tableRow;horizontal=0;startSize=0;swimlaneHead=0;swimlaneBody=0;strokeColor=inherit;top=0;left=0;bottom=0;right=0;collapsible=0;dropTarget=0;fillColor=none;points=[[0,0.5],[1,0.5]];portConstraint=eastwest;fontSize=16;" vertex="1" parent="SeUheRbBUvaC_YqdOnx2-269">
          <mxGeometry y="120" width="60" height="20" as="geometry" />
        </mxCell>
        <mxCell id="SeUheRbBUvaC_YqdOnx2-289" value="MOTOR" style="shape=partialRectangle;html=1;whiteSpace=wrap;connectable=0;strokeColor=inherit;overflow=hidden;fillColor=none;top=0;left=0;bottom=0;right=0;pointerEvents=1;fontSize=10;" vertex="1" parent="SeUheRbBUvaC_YqdOnx2-288">
          <mxGeometry width="60" height="20" as="geometry">
            <mxRectangle width="60" height="20" as="alternateBounds" />
          </mxGeometry>
        </mxCell>
        <mxCell id="SeUheRbBUvaC_YqdOnx2-290" value="" style="shape=table;startSize=0;container=1;collapsible=0;childLayout=tableLayout;fontSize=16;" vertex="1" parent="1">
          <mxGeometry x="210" y="170" width="60" height="140" as="geometry" />
        </mxCell>
        <mxCell id="SeUheRbBUvaC_YqdOnx2-291" value="" style="shape=tableRow;horizontal=0;startSize=0;swimlaneHead=0;swimlaneBody=0;strokeColor=inherit;top=0;left=0;bottom=0;right=0;collapsible=0;dropTarget=0;fillColor=none;points=[[0,0.5],[1,0.5]];portConstraint=eastwest;fontSize=16;" vertex="1" parent="SeUheRbBUvaC_YqdOnx2-290">
          <mxGeometry width="60" height="20" as="geometry" />
        </mxCell>
        <mxCell id="SeUheRbBUvaC_YqdOnx2-292" value="IN1" style="shape=partialRectangle;html=1;whiteSpace=wrap;connectable=0;strokeColor=inherit;overflow=hidden;fillColor=none;top=0;left=0;bottom=0;right=0;pointerEvents=1;fontSize=10;" vertex="1" parent="SeUheRbBUvaC_YqdOnx2-291">
          <mxGeometry width="60" height="20" as="geometry">
            <mxRectangle width="60" height="20" as="alternateBounds" />
          </mxGeometry>
        </mxCell>
        <mxCell id="SeUheRbBUvaC_YqdOnx2-293" value="" style="shape=tableRow;horizontal=0;startSize=0;swimlaneHead=0;swimlaneBody=0;strokeColor=inherit;top=0;left=0;bottom=0;right=0;collapsible=0;dropTarget=0;fillColor=none;points=[[0,0.5],[1,0.5]];portConstraint=eastwest;fontSize=16;" vertex="1" parent="SeUheRbBUvaC_YqdOnx2-290">
          <mxGeometry y="20" width="60" height="20" as="geometry" />
        </mxCell>
        <mxCell id="SeUheRbBUvaC_YqdOnx2-294" value="IN2" style="shape=partialRectangle;html=1;whiteSpace=wrap;connectable=0;strokeColor=inherit;overflow=hidden;fillColor=none;top=0;left=0;bottom=0;right=0;pointerEvents=1;fontSize=10;" vertex="1" parent="SeUheRbBUvaC_YqdOnx2-293">
          <mxGeometry width="60" height="20" as="geometry">
            <mxRectangle width="60" height="20" as="alternateBounds" />
          </mxGeometry>
        </mxCell>
        <mxCell id="SeUheRbBUvaC_YqdOnx2-295" value="" style="shape=tableRow;horizontal=0;startSize=0;swimlaneHead=0;swimlaneBody=0;strokeColor=inherit;top=0;left=0;bottom=0;right=0;collapsible=0;dropTarget=0;fillColor=none;points=[[0,0.5],[1,0.5]];portConstraint=eastwest;fontSize=16;" vertex="1" parent="SeUheRbBUvaC_YqdOnx2-290">
          <mxGeometry y="40" width="60" height="20" as="geometry" />
        </mxCell>
        <mxCell id="SeUheRbBUvaC_YqdOnx2-296" value="IN3" style="shape=partialRectangle;html=1;whiteSpace=wrap;connectable=0;strokeColor=inherit;overflow=hidden;fillColor=none;top=0;left=0;bottom=0;right=0;pointerEvents=1;fontSize=10;" vertex="1" parent="SeUheRbBUvaC_YqdOnx2-295">
          <mxGeometry width="60" height="20" as="geometry">
            <mxRectangle width="60" height="20" as="alternateBounds" />
          </mxGeometry>
        </mxCell>
        <mxCell id="SeUheRbBUvaC_YqdOnx2-297" style="shape=tableRow;horizontal=0;startSize=0;swimlaneHead=0;swimlaneBody=0;strokeColor=inherit;top=0;left=0;bottom=0;right=0;collapsible=0;dropTarget=0;fillColor=none;points=[[0,0.5],[1,0.5]];portConstraint=eastwest;fontSize=16;" vertex="1" parent="SeUheRbBUvaC_YqdOnx2-290">
          <mxGeometry y="60" width="60" height="20" as="geometry" />
        </mxCell>
        <mxCell id="SeUheRbBUvaC_YqdOnx2-298" value="IN4" style="shape=partialRectangle;html=1;whiteSpace=wrap;connectable=0;strokeColor=inherit;overflow=hidden;fillColor=none;top=0;left=0;bottom=0;right=0;pointerEvents=1;fontSize=10;" vertex="1" parent="SeUheRbBUvaC_YqdOnx2-297">
          <mxGeometry width="60" height="20" as="geometry">
            <mxRectangle width="60" height="20" as="alternateBounds" />
          </mxGeometry>
        </mxCell>
        <mxCell id="SeUheRbBUvaC_YqdOnx2-299" style="shape=tableRow;horizontal=0;startSize=0;swimlaneHead=0;swimlaneBody=0;strokeColor=inherit;top=0;left=0;bottom=0;right=0;collapsible=0;dropTarget=0;fillColor=none;points=[[0,0.5],[1,0.5]];portConstraint=eastwest;fontSize=16;" vertex="1" parent="SeUheRbBUvaC_YqdOnx2-290">
          <mxGeometry y="80" width="60" height="20" as="geometry" />
        </mxCell>
        <mxCell id="SeUheRbBUvaC_YqdOnx2-300" value="+Vcc" style="shape=partialRectangle;html=1;whiteSpace=wrap;connectable=0;strokeColor=inherit;overflow=hidden;fillColor=none;top=0;left=0;bottom=0;right=0;pointerEvents=1;fontSize=10;" vertex="1" parent="SeUheRbBUvaC_YqdOnx2-299">
          <mxGeometry width="60" height="20" as="geometry">
            <mxRectangle width="60" height="20" as="alternateBounds" />
          </mxGeometry>
        </mxCell>
        <mxCell id="SeUheRbBUvaC_YqdOnx2-301" style="shape=tableRow;horizontal=0;startSize=0;swimlaneHead=0;swimlaneBody=0;strokeColor=inherit;top=0;left=0;bottom=0;right=0;collapsible=0;dropTarget=0;fillColor=none;points=[[0,0.5],[1,0.5]];portConstraint=eastwest;fontSize=16;" vertex="1" parent="SeUheRbBUvaC_YqdOnx2-290">
          <mxGeometry y="100" width="60" height="20" as="geometry" />
        </mxCell>
        <mxCell id="SeUheRbBUvaC_YqdOnx2-302" value="-GND" style="shape=partialRectangle;html=1;whiteSpace=wrap;connectable=0;strokeColor=inherit;overflow=hidden;fillColor=none;top=0;left=0;bottom=0;right=0;pointerEvents=1;fontSize=10;" vertex="1" parent="SeUheRbBUvaC_YqdOnx2-301">
          <mxGeometry width="60" height="20" as="geometry">
            <mxRectangle width="60" height="20" as="alternateBounds" />
          </mxGeometry>
        </mxCell>
        <mxCell id="SeUheRbBUvaC_YqdOnx2-303" style="shape=tableRow;horizontal=0;startSize=0;swimlaneHead=0;swimlaneBody=0;strokeColor=inherit;top=0;left=0;bottom=0;right=0;collapsible=0;dropTarget=0;fillColor=none;points=[[0,0.5],[1,0.5]];portConstraint=eastwest;fontSize=16;" vertex="1" parent="SeUheRbBUvaC_YqdOnx2-290">
          <mxGeometry y="120" width="60" height="20" as="geometry" />
        </mxCell>
        <mxCell id="SeUheRbBUvaC_YqdOnx2-304" value="MOTOR" style="shape=partialRectangle;html=1;whiteSpace=wrap;connectable=0;strokeColor=inherit;overflow=hidden;fillColor=none;top=0;left=0;bottom=0;right=0;pointerEvents=1;fontSize=10;" vertex="1" parent="SeUheRbBUvaC_YqdOnx2-303">
          <mxGeometry width="60" height="20" as="geometry">
            <mxRectangle width="60" height="20" as="alternateBounds" />
          </mxGeometry>
        </mxCell>
        <mxCell id="SeUheRbBUvaC_YqdOnx2-305" style="edgeStyle=orthogonalEdgeStyle;rounded=0;orthogonalLoop=1;jettySize=auto;html=1;entryX=1;entryY=0.5;entryDx=0;entryDy=0;endArrow=none;endFill=0;" edge="1" parent="1" source="SeUheRbBUvaC_YqdOnx2-270" target="SeUheRbBUvaC_YqdOnx2-176">
          <mxGeometry relative="1" as="geometry" />
        </mxCell>
        <mxCell id="SeUheRbBUvaC_YqdOnx2-306" style="edgeStyle=orthogonalEdgeStyle;rounded=0;orthogonalLoop=1;jettySize=auto;html=1;entryX=0;entryY=0.5;entryDx=0;entryDy=0;endArrow=none;endFill=0;" edge="1" parent="1" source="SeUheRbBUvaC_YqdOnx2-274" target="SeUheRbBUvaC_YqdOnx2-172">
          <mxGeometry relative="1" as="geometry" />
        </mxCell>
        <mxCell id="SeUheRbBUvaC_YqdOnx2-307" style="edgeStyle=orthogonalEdgeStyle;rounded=0;orthogonalLoop=1;jettySize=auto;html=1;entryX=0;entryY=0.5;entryDx=0;entryDy=0;endArrow=none;endFill=0;" edge="1" parent="1" source="SeUheRbBUvaC_YqdOnx2-278" target="SeUheRbBUvaC_YqdOnx2-176">
          <mxGeometry relative="1" as="geometry" />
        </mxCell>
        <mxCell id="SeUheRbBUvaC_YqdOnx2-309" style="edgeStyle=orthogonalEdgeStyle;rounded=0;orthogonalLoop=1;jettySize=auto;html=1;entryX=0;entryY=0.5;entryDx=0;entryDy=0;endArrow=none;endFill=0;" edge="1" parent="1" source="SeUheRbBUvaC_YqdOnx2-291" target="SeUheRbBUvaC_YqdOnx2-184">
          <mxGeometry relative="1" as="geometry" />
        </mxCell>
        <mxCell id="SeUheRbBUvaC_YqdOnx2-310" style="edgeStyle=orthogonalEdgeStyle;rounded=0;orthogonalLoop=1;jettySize=auto;html=1;entryX=0;entryY=0.5;entryDx=0;entryDy=0;endArrow=none;endFill=0;" edge="1" parent="1" source="SeUheRbBUvaC_YqdOnx2-293" target="SeUheRbBUvaC_YqdOnx2-188">
          <mxGeometry relative="1" as="geometry" />
        </mxCell>
        <mxCell id="SeUheRbBUvaC_YqdOnx2-311" style="edgeStyle=orthogonalEdgeStyle;rounded=0;orthogonalLoop=1;jettySize=auto;html=1;entryX=0;entryY=0.5;entryDx=0;entryDy=0;endArrow=none;endFill=0;" edge="1" parent="1" source="SeUheRbBUvaC_YqdOnx2-295" target="SeUheRbBUvaC_YqdOnx2-192">
          <mxGeometry relative="1" as="geometry" />
        </mxCell>
        <mxCell id="SeUheRbBUvaC_YqdOnx2-312" style="edgeStyle=orthogonalEdgeStyle;rounded=0;orthogonalLoop=1;jettySize=auto;html=1;endArrow=none;endFill=0;" edge="1" parent="1" source="SeUheRbBUvaC_YqdOnx2-297" target="SeUheRbBUvaC_YqdOnx2-196">
          <mxGeometry relative="1" as="geometry" />
        </mxCell>
        <mxCell id="SeUheRbBUvaC_YqdOnx2-313" value="" style="shape=table;startSize=0;container=1;collapsible=0;childLayout=tableLayout;fontSize=16;" vertex="1" parent="1">
          <mxGeometry x="130" y="330" width="60" height="140" as="geometry" />
        </mxCell>
        <mxCell id="SeUheRbBUvaC_YqdOnx2-314" value="" style="shape=tableRow;horizontal=0;startSize=0;swimlaneHead=0;swimlaneBody=0;strokeColor=inherit;top=0;left=0;bottom=0;right=0;collapsible=0;dropTarget=0;fillColor=none;points=[[0,0.5],[1,0.5]];portConstraint=eastwest;fontSize=16;" vertex="1" parent="SeUheRbBUvaC_YqdOnx2-313">
          <mxGeometry width="60" height="20" as="geometry" />
        </mxCell>
        <mxCell id="SeUheRbBUvaC_YqdOnx2-315" value="IN1" style="shape=partialRectangle;html=1;whiteSpace=wrap;connectable=0;strokeColor=inherit;overflow=hidden;fillColor=none;top=0;left=0;bottom=0;right=0;pointerEvents=1;fontSize=10;" vertex="1" parent="SeUheRbBUvaC_YqdOnx2-314">
          <mxGeometry width="60" height="20" as="geometry">
            <mxRectangle width="60" height="20" as="alternateBounds" />
          </mxGeometry>
        </mxCell>
        <mxCell id="SeUheRbBUvaC_YqdOnx2-316" value="" style="shape=tableRow;horizontal=0;startSize=0;swimlaneHead=0;swimlaneBody=0;strokeColor=inherit;top=0;left=0;bottom=0;right=0;collapsible=0;dropTarget=0;fillColor=none;points=[[0,0.5],[1,0.5]];portConstraint=eastwest;fontSize=16;" vertex="1" parent="SeUheRbBUvaC_YqdOnx2-313">
          <mxGeometry y="20" width="60" height="20" as="geometry" />
        </mxCell>
        <mxCell id="SeUheRbBUvaC_YqdOnx2-317" value="IN2" style="shape=partialRectangle;html=1;whiteSpace=wrap;connectable=0;strokeColor=inherit;overflow=hidden;fillColor=none;top=0;left=0;bottom=0;right=0;pointerEvents=1;fontSize=10;" vertex="1" parent="SeUheRbBUvaC_YqdOnx2-316">
          <mxGeometry width="60" height="20" as="geometry">
            <mxRectangle width="60" height="20" as="alternateBounds" />
          </mxGeometry>
        </mxCell>
        <mxCell id="SeUheRbBUvaC_YqdOnx2-318" value="" style="shape=tableRow;horizontal=0;startSize=0;swimlaneHead=0;swimlaneBody=0;strokeColor=inherit;top=0;left=0;bottom=0;right=0;collapsible=0;dropTarget=0;fillColor=none;points=[[0,0.5],[1,0.5]];portConstraint=eastwest;fontSize=16;" vertex="1" parent="SeUheRbBUvaC_YqdOnx2-313">
          <mxGeometry y="40" width="60" height="20" as="geometry" />
        </mxCell>
        <mxCell id="SeUheRbBUvaC_YqdOnx2-319" value="IN3" style="shape=partialRectangle;html=1;whiteSpace=wrap;connectable=0;strokeColor=inherit;overflow=hidden;fillColor=none;top=0;left=0;bottom=0;right=0;pointerEvents=1;fontSize=10;" vertex="1" parent="SeUheRbBUvaC_YqdOnx2-318">
          <mxGeometry width="60" height="20" as="geometry">
            <mxRectangle width="60" height="20" as="alternateBounds" />
          </mxGeometry>
        </mxCell>
        <mxCell id="SeUheRbBUvaC_YqdOnx2-320" style="shape=tableRow;horizontal=0;startSize=0;swimlaneHead=0;swimlaneBody=0;strokeColor=inherit;top=0;left=0;bottom=0;right=0;collapsible=0;dropTarget=0;fillColor=none;points=[[0,0.5],[1,0.5]];portConstraint=eastwest;fontSize=16;" vertex="1" parent="SeUheRbBUvaC_YqdOnx2-313">
          <mxGeometry y="60" width="60" height="20" as="geometry" />
        </mxCell>
        <mxCell id="SeUheRbBUvaC_YqdOnx2-321" value="IN4" style="shape=partialRectangle;html=1;whiteSpace=wrap;connectable=0;strokeColor=inherit;overflow=hidden;fillColor=none;top=0;left=0;bottom=0;right=0;pointerEvents=1;fontSize=10;" vertex="1" parent="SeUheRbBUvaC_YqdOnx2-320">
          <mxGeometry width="60" height="20" as="geometry">
            <mxRectangle width="60" height="20" as="alternateBounds" />
          </mxGeometry>
        </mxCell>
        <mxCell id="SeUheRbBUvaC_YqdOnx2-322" style="shape=tableRow;horizontal=0;startSize=0;swimlaneHead=0;swimlaneBody=0;strokeColor=inherit;top=0;left=0;bottom=0;right=0;collapsible=0;dropTarget=0;fillColor=none;points=[[0,0.5],[1,0.5]];portConstraint=eastwest;fontSize=16;" vertex="1" parent="SeUheRbBUvaC_YqdOnx2-313">
          <mxGeometry y="80" width="60" height="20" as="geometry" />
        </mxCell>
        <mxCell id="SeUheRbBUvaC_YqdOnx2-323" value="+Vcc" style="shape=partialRectangle;html=1;whiteSpace=wrap;connectable=0;strokeColor=inherit;overflow=hidden;fillColor=none;top=0;left=0;bottom=0;right=0;pointerEvents=1;fontSize=10;" vertex="1" parent="SeUheRbBUvaC_YqdOnx2-322">
          <mxGeometry width="60" height="20" as="geometry">
            <mxRectangle width="60" height="20" as="alternateBounds" />
          </mxGeometry>
        </mxCell>
        <mxCell id="SeUheRbBUvaC_YqdOnx2-324" style="shape=tableRow;horizontal=0;startSize=0;swimlaneHead=0;swimlaneBody=0;strokeColor=inherit;top=0;left=0;bottom=0;right=0;collapsible=0;dropTarget=0;fillColor=none;points=[[0,0.5],[1,0.5]];portConstraint=eastwest;fontSize=16;" vertex="1" parent="SeUheRbBUvaC_YqdOnx2-313">
          <mxGeometry y="100" width="60" height="20" as="geometry" />
        </mxCell>
        <mxCell id="SeUheRbBUvaC_YqdOnx2-325" value="-GND" style="shape=partialRectangle;html=1;whiteSpace=wrap;connectable=0;strokeColor=inherit;overflow=hidden;fillColor=none;top=0;left=0;bottom=0;right=0;pointerEvents=1;fontSize=10;" vertex="1" parent="SeUheRbBUvaC_YqdOnx2-324">
          <mxGeometry width="60" height="20" as="geometry">
            <mxRectangle width="60" height="20" as="alternateBounds" />
          </mxGeometry>
        </mxCell>
        <mxCell id="SeUheRbBUvaC_YqdOnx2-326" style="shape=tableRow;horizontal=0;startSize=0;swimlaneHead=0;swimlaneBody=0;strokeColor=inherit;top=0;left=0;bottom=0;right=0;collapsible=0;dropTarget=0;fillColor=none;points=[[0,0.5],[1,0.5]];portConstraint=eastwest;fontSize=16;" vertex="1" parent="SeUheRbBUvaC_YqdOnx2-313">
          <mxGeometry y="120" width="60" height="20" as="geometry" />
        </mxCell>
        <mxCell id="SeUheRbBUvaC_YqdOnx2-327" value="MOTOR" style="shape=partialRectangle;html=1;whiteSpace=wrap;connectable=0;strokeColor=inherit;overflow=hidden;fillColor=none;top=0;left=0;bottom=0;right=0;pointerEvents=1;fontSize=10;" vertex="1" parent="SeUheRbBUvaC_YqdOnx2-326">
          <mxGeometry width="60" height="20" as="geometry">
            <mxRectangle width="60" height="20" as="alternateBounds" />
          </mxGeometry>
        </mxCell>
        <mxCell id="SeUheRbBUvaC_YqdOnx2-328" style="edgeStyle=orthogonalEdgeStyle;rounded=0;orthogonalLoop=1;jettySize=auto;html=1;entryX=1;entryY=0.5;entryDx=0;entryDy=0;endArrow=none;endFill=0;" edge="1" parent="1" source="SeUheRbBUvaC_YqdOnx2-314" target="SeUheRbBUvaC_YqdOnx2-110">
          <mxGeometry relative="1" as="geometry" />
        </mxCell>
        <mxCell id="SeUheRbBUvaC_YqdOnx2-329" style="edgeStyle=orthogonalEdgeStyle;rounded=0;orthogonalLoop=1;jettySize=auto;html=1;entryX=0;entryY=0.5;entryDx=0;entryDy=0;endArrow=none;endFill=0;" edge="1" parent="1" source="SeUheRbBUvaC_YqdOnx2-316" target="SeUheRbBUvaC_YqdOnx2-106">
          <mxGeometry relative="1" as="geometry" />
        </mxCell>
        <mxCell id="SeUheRbBUvaC_YqdOnx2-330" style="edgeStyle=orthogonalEdgeStyle;rounded=0;orthogonalLoop=1;jettySize=auto;html=1;entryX=0;entryY=0.5;entryDx=0;entryDy=0;endArrow=none;endFill=0;" edge="1" parent="1" source="SeUheRbBUvaC_YqdOnx2-318" target="SeUheRbBUvaC_YqdOnx2-110">
          <mxGeometry relative="1" as="geometry" />
        </mxCell>
        <mxCell id="SeUheRbBUvaC_YqdOnx2-331" style="edgeStyle=orthogonalEdgeStyle;rounded=0;orthogonalLoop=1;jettySize=auto;html=1;entryX=0;entryY=0.5;entryDx=0;entryDy=0;endArrow=none;endFill=0;" edge="1" parent="1" source="SeUheRbBUvaC_YqdOnx2-320" target="SeUheRbBUvaC_YqdOnx2-114">
          <mxGeometry relative="1" as="geometry" />
        </mxCell>
        <mxCell id="SeUheRbBUvaC_YqdOnx2-332" value="" style="shape=table;startSize=0;container=1;collapsible=0;childLayout=tableLayout;fontSize=16;" vertex="1" parent="1">
          <mxGeometry x="210" y="432.5" width="60" height="140" as="geometry" />
        </mxCell>
        <mxCell id="SeUheRbBUvaC_YqdOnx2-333" value="" style="shape=tableRow;horizontal=0;startSize=0;swimlaneHead=0;swimlaneBody=0;strokeColor=inherit;top=0;left=0;bottom=0;right=0;collapsible=0;dropTarget=0;fillColor=none;points=[[0,0.5],[1,0.5]];portConstraint=eastwest;fontSize=16;" vertex="1" parent="SeUheRbBUvaC_YqdOnx2-332">
          <mxGeometry width="60" height="20" as="geometry" />
        </mxCell>
        <mxCell id="SeUheRbBUvaC_YqdOnx2-334" value="IN1" style="shape=partialRectangle;html=1;whiteSpace=wrap;connectable=0;strokeColor=inherit;overflow=hidden;fillColor=none;top=0;left=0;bottom=0;right=0;pointerEvents=1;fontSize=10;" vertex="1" parent="SeUheRbBUvaC_YqdOnx2-333">
          <mxGeometry width="60" height="20" as="geometry">
            <mxRectangle width="60" height="20" as="alternateBounds" />
          </mxGeometry>
        </mxCell>
        <mxCell id="SeUheRbBUvaC_YqdOnx2-335" value="" style="shape=tableRow;horizontal=0;startSize=0;swimlaneHead=0;swimlaneBody=0;strokeColor=inherit;top=0;left=0;bottom=0;right=0;collapsible=0;dropTarget=0;fillColor=none;points=[[0,0.5],[1,0.5]];portConstraint=eastwest;fontSize=16;" vertex="1" parent="SeUheRbBUvaC_YqdOnx2-332">
          <mxGeometry y="20" width="60" height="20" as="geometry" />
        </mxCell>
        <mxCell id="SeUheRbBUvaC_YqdOnx2-336" value="IN2" style="shape=partialRectangle;html=1;whiteSpace=wrap;connectable=0;strokeColor=inherit;overflow=hidden;fillColor=none;top=0;left=0;bottom=0;right=0;pointerEvents=1;fontSize=10;" vertex="1" parent="SeUheRbBUvaC_YqdOnx2-335">
          <mxGeometry width="60" height="20" as="geometry">
            <mxRectangle width="60" height="20" as="alternateBounds" />
          </mxGeometry>
        </mxCell>
        <mxCell id="SeUheRbBUvaC_YqdOnx2-337" value="" style="shape=tableRow;horizontal=0;startSize=0;swimlaneHead=0;swimlaneBody=0;strokeColor=inherit;top=0;left=0;bottom=0;right=0;collapsible=0;dropTarget=0;fillColor=none;points=[[0,0.5],[1,0.5]];portConstraint=eastwest;fontSize=16;" vertex="1" parent="SeUheRbBUvaC_YqdOnx2-332">
          <mxGeometry y="40" width="60" height="20" as="geometry" />
        </mxCell>
        <mxCell id="SeUheRbBUvaC_YqdOnx2-338" value="IN3" style="shape=partialRectangle;html=1;whiteSpace=wrap;connectable=0;strokeColor=inherit;overflow=hidden;fillColor=none;top=0;left=0;bottom=0;right=0;pointerEvents=1;fontSize=10;" vertex="1" parent="SeUheRbBUvaC_YqdOnx2-337">
          <mxGeometry width="60" height="20" as="geometry">
            <mxRectangle width="60" height="20" as="alternateBounds" />
          </mxGeometry>
        </mxCell>
        <mxCell id="SeUheRbBUvaC_YqdOnx2-339" style="shape=tableRow;horizontal=0;startSize=0;swimlaneHead=0;swimlaneBody=0;strokeColor=inherit;top=0;left=0;bottom=0;right=0;collapsible=0;dropTarget=0;fillColor=none;points=[[0,0.5],[1,0.5]];portConstraint=eastwest;fontSize=16;" vertex="1" parent="SeUheRbBUvaC_YqdOnx2-332">
          <mxGeometry y="60" width="60" height="20" as="geometry" />
        </mxCell>
        <mxCell id="SeUheRbBUvaC_YqdOnx2-340" value="IN4" style="shape=partialRectangle;html=1;whiteSpace=wrap;connectable=0;strokeColor=inherit;overflow=hidden;fillColor=none;top=0;left=0;bottom=0;right=0;pointerEvents=1;fontSize=10;" vertex="1" parent="SeUheRbBUvaC_YqdOnx2-339">
          <mxGeometry width="60" height="20" as="geometry">
            <mxRectangle width="60" height="20" as="alternateBounds" />
          </mxGeometry>
        </mxCell>
        <mxCell id="SeUheRbBUvaC_YqdOnx2-341" style="shape=tableRow;horizontal=0;startSize=0;swimlaneHead=0;swimlaneBody=0;strokeColor=inherit;top=0;left=0;bottom=0;right=0;collapsible=0;dropTarget=0;fillColor=none;points=[[0,0.5],[1,0.5]];portConstraint=eastwest;fontSize=16;" vertex="1" parent="SeUheRbBUvaC_YqdOnx2-332">
          <mxGeometry y="80" width="60" height="20" as="geometry" />
        </mxCell>
        <mxCell id="SeUheRbBUvaC_YqdOnx2-342" value="+Vcc" style="shape=partialRectangle;html=1;whiteSpace=wrap;connectable=0;strokeColor=inherit;overflow=hidden;fillColor=none;top=0;left=0;bottom=0;right=0;pointerEvents=1;fontSize=10;" vertex="1" parent="SeUheRbBUvaC_YqdOnx2-341">
          <mxGeometry width="60" height="20" as="geometry">
            <mxRectangle width="60" height="20" as="alternateBounds" />
          </mxGeometry>
        </mxCell>
        <mxCell id="SeUheRbBUvaC_YqdOnx2-343" style="shape=tableRow;horizontal=0;startSize=0;swimlaneHead=0;swimlaneBody=0;strokeColor=inherit;top=0;left=0;bottom=0;right=0;collapsible=0;dropTarget=0;fillColor=none;points=[[0,0.5],[1,0.5]];portConstraint=eastwest;fontSize=16;" vertex="1" parent="SeUheRbBUvaC_YqdOnx2-332">
          <mxGeometry y="100" width="60" height="20" as="geometry" />
        </mxCell>
        <mxCell id="SeUheRbBUvaC_YqdOnx2-344" value="-GND" style="shape=partialRectangle;html=1;whiteSpace=wrap;connectable=0;strokeColor=inherit;overflow=hidden;fillColor=none;top=0;left=0;bottom=0;right=0;pointerEvents=1;fontSize=10;" vertex="1" parent="SeUheRbBUvaC_YqdOnx2-343">
          <mxGeometry width="60" height="20" as="geometry">
            <mxRectangle width="60" height="20" as="alternateBounds" />
          </mxGeometry>
        </mxCell>
        <mxCell id="SeUheRbBUvaC_YqdOnx2-345" style="shape=tableRow;horizontal=0;startSize=0;swimlaneHead=0;swimlaneBody=0;strokeColor=inherit;top=0;left=0;bottom=0;right=0;collapsible=0;dropTarget=0;fillColor=none;points=[[0,0.5],[1,0.5]];portConstraint=eastwest;fontSize=16;" vertex="1" parent="SeUheRbBUvaC_YqdOnx2-332">
          <mxGeometry y="120" width="60" height="20" as="geometry" />
        </mxCell>
        <mxCell id="SeUheRbBUvaC_YqdOnx2-346" value="MOTOR" style="shape=partialRectangle;html=1;whiteSpace=wrap;connectable=0;strokeColor=inherit;overflow=hidden;fillColor=none;top=0;left=0;bottom=0;right=0;pointerEvents=1;fontSize=10;" vertex="1" parent="SeUheRbBUvaC_YqdOnx2-345">
          <mxGeometry width="60" height="20" as="geometry">
            <mxRectangle width="60" height="20" as="alternateBounds" />
          </mxGeometry>
        </mxCell>
        <mxCell id="SeUheRbBUvaC_YqdOnx2-347" style="edgeStyle=orthogonalEdgeStyle;rounded=0;orthogonalLoop=1;jettySize=auto;html=1;entryX=0;entryY=0.5;entryDx=0;entryDy=0;endArrow=none;endFill=0;" edge="1" parent="1" source="SeUheRbBUvaC_YqdOnx2-333" target="SeUheRbBUvaC_YqdOnx2-118">
          <mxGeometry relative="1" as="geometry" />
        </mxCell>
        <mxCell id="SeUheRbBUvaC_YqdOnx2-348" style="edgeStyle=orthogonalEdgeStyle;rounded=0;orthogonalLoop=1;jettySize=auto;html=1;entryX=0;entryY=0.5;entryDx=0;entryDy=0;endArrow=none;endFill=0;" edge="1" parent="1" source="SeUheRbBUvaC_YqdOnx2-335" target="SeUheRbBUvaC_YqdOnx2-122">
          <mxGeometry relative="1" as="geometry" />
        </mxCell>
        <mxCell id="SeUheRbBUvaC_YqdOnx2-349" style="edgeStyle=orthogonalEdgeStyle;rounded=0;orthogonalLoop=1;jettySize=auto;html=1;entryX=0;entryY=0.5;entryDx=0;entryDy=0;endArrow=none;endFill=0;" edge="1" parent="1" source="SeUheRbBUvaC_YqdOnx2-337" target="SeUheRbBUvaC_YqdOnx2-126">
          <mxGeometry relative="1" as="geometry" />
        </mxCell>
        <mxCell id="SeUheRbBUvaC_YqdOnx2-350" style="edgeStyle=orthogonalEdgeStyle;rounded=0;orthogonalLoop=1;jettySize=auto;html=1;entryX=-0.046;entryY=0.5;entryDx=0;entryDy=0;entryPerimeter=0;endArrow=none;endFill=0;" edge="1" parent="1" source="SeUheRbBUvaC_YqdOnx2-339" target="SeUheRbBUvaC_YqdOnx2-130">
          <mxGeometry relative="1" as="geometry" />
        </mxCell>
        <mxCell id="SeUheRbBUvaC_YqdOnx2-366" value="" style="shape=table;startSize=0;container=1;collapsible=0;childLayout=tableLayout;fontSize=16;" vertex="1" parent="1">
          <mxGeometry x="120" y="591.5" width="60" height="140" as="geometry" />
        </mxCell>
        <mxCell id="SeUheRbBUvaC_YqdOnx2-367" value="" style="shape=tableRow;horizontal=0;startSize=0;swimlaneHead=0;swimlaneBody=0;strokeColor=inherit;top=0;left=0;bottom=0;right=0;collapsible=0;dropTarget=0;fillColor=none;points=[[0,0.5],[1,0.5]];portConstraint=eastwest;fontSize=16;" vertex="1" parent="SeUheRbBUvaC_YqdOnx2-366">
          <mxGeometry width="60" height="20" as="geometry" />
        </mxCell>
        <mxCell id="SeUheRbBUvaC_YqdOnx2-368" value="IN1" style="shape=partialRectangle;html=1;whiteSpace=wrap;connectable=0;strokeColor=inherit;overflow=hidden;fillColor=none;top=0;left=0;bottom=0;right=0;pointerEvents=1;fontSize=10;" vertex="1" parent="SeUheRbBUvaC_YqdOnx2-367">
          <mxGeometry width="60" height="20" as="geometry">
            <mxRectangle width="60" height="20" as="alternateBounds" />
          </mxGeometry>
        </mxCell>
        <mxCell id="SeUheRbBUvaC_YqdOnx2-369" value="" style="shape=tableRow;horizontal=0;startSize=0;swimlaneHead=0;swimlaneBody=0;strokeColor=inherit;top=0;left=0;bottom=0;right=0;collapsible=0;dropTarget=0;fillColor=none;points=[[0,0.5],[1,0.5]];portConstraint=eastwest;fontSize=16;" vertex="1" parent="SeUheRbBUvaC_YqdOnx2-366">
          <mxGeometry y="20" width="60" height="20" as="geometry" />
        </mxCell>
        <mxCell id="SeUheRbBUvaC_YqdOnx2-370" value="IN2" style="shape=partialRectangle;html=1;whiteSpace=wrap;connectable=0;strokeColor=inherit;overflow=hidden;fillColor=none;top=0;left=0;bottom=0;right=0;pointerEvents=1;fontSize=10;" vertex="1" parent="SeUheRbBUvaC_YqdOnx2-369">
          <mxGeometry width="60" height="20" as="geometry">
            <mxRectangle width="60" height="20" as="alternateBounds" />
          </mxGeometry>
        </mxCell>
        <mxCell id="SeUheRbBUvaC_YqdOnx2-371" value="" style="shape=tableRow;horizontal=0;startSize=0;swimlaneHead=0;swimlaneBody=0;strokeColor=inherit;top=0;left=0;bottom=0;right=0;collapsible=0;dropTarget=0;fillColor=none;points=[[0,0.5],[1,0.5]];portConstraint=eastwest;fontSize=16;" vertex="1" parent="SeUheRbBUvaC_YqdOnx2-366">
          <mxGeometry y="40" width="60" height="20" as="geometry" />
        </mxCell>
        <mxCell id="SeUheRbBUvaC_YqdOnx2-372" value="IN3" style="shape=partialRectangle;html=1;whiteSpace=wrap;connectable=0;strokeColor=inherit;overflow=hidden;fillColor=none;top=0;left=0;bottom=0;right=0;pointerEvents=1;fontSize=10;" vertex="1" parent="SeUheRbBUvaC_YqdOnx2-371">
          <mxGeometry width="60" height="20" as="geometry">
            <mxRectangle width="60" height="20" as="alternateBounds" />
          </mxGeometry>
        </mxCell>
        <mxCell id="SeUheRbBUvaC_YqdOnx2-373" style="shape=tableRow;horizontal=0;startSize=0;swimlaneHead=0;swimlaneBody=0;strokeColor=inherit;top=0;left=0;bottom=0;right=0;collapsible=0;dropTarget=0;fillColor=none;points=[[0,0.5],[1,0.5]];portConstraint=eastwest;fontSize=16;" vertex="1" parent="SeUheRbBUvaC_YqdOnx2-366">
          <mxGeometry y="60" width="60" height="20" as="geometry" />
        </mxCell>
        <mxCell id="SeUheRbBUvaC_YqdOnx2-374" value="IN4" style="shape=partialRectangle;html=1;whiteSpace=wrap;connectable=0;strokeColor=inherit;overflow=hidden;fillColor=none;top=0;left=0;bottom=0;right=0;pointerEvents=1;fontSize=10;" vertex="1" parent="SeUheRbBUvaC_YqdOnx2-373">
          <mxGeometry width="60" height="20" as="geometry">
            <mxRectangle width="60" height="20" as="alternateBounds" />
          </mxGeometry>
        </mxCell>
        <mxCell id="SeUheRbBUvaC_YqdOnx2-375" style="shape=tableRow;horizontal=0;startSize=0;swimlaneHead=0;swimlaneBody=0;strokeColor=inherit;top=0;left=0;bottom=0;right=0;collapsible=0;dropTarget=0;fillColor=none;points=[[0,0.5],[1,0.5]];portConstraint=eastwest;fontSize=16;" vertex="1" parent="SeUheRbBUvaC_YqdOnx2-366">
          <mxGeometry y="80" width="60" height="20" as="geometry" />
        </mxCell>
        <mxCell id="SeUheRbBUvaC_YqdOnx2-376" value="+Vcc" style="shape=partialRectangle;html=1;whiteSpace=wrap;connectable=0;strokeColor=inherit;overflow=hidden;fillColor=none;top=0;left=0;bottom=0;right=0;pointerEvents=1;fontSize=10;" vertex="1" parent="SeUheRbBUvaC_YqdOnx2-375">
          <mxGeometry width="60" height="20" as="geometry">
            <mxRectangle width="60" height="20" as="alternateBounds" />
          </mxGeometry>
        </mxCell>
        <mxCell id="SeUheRbBUvaC_YqdOnx2-377" style="shape=tableRow;horizontal=0;startSize=0;swimlaneHead=0;swimlaneBody=0;strokeColor=inherit;top=0;left=0;bottom=0;right=0;collapsible=0;dropTarget=0;fillColor=none;points=[[0,0.5],[1,0.5]];portConstraint=eastwest;fontSize=16;" vertex="1" parent="SeUheRbBUvaC_YqdOnx2-366">
          <mxGeometry y="100" width="60" height="20" as="geometry" />
        </mxCell>
        <mxCell id="SeUheRbBUvaC_YqdOnx2-378" value="-GND" style="shape=partialRectangle;html=1;whiteSpace=wrap;connectable=0;strokeColor=inherit;overflow=hidden;fillColor=none;top=0;left=0;bottom=0;right=0;pointerEvents=1;fontSize=10;" vertex="1" parent="SeUheRbBUvaC_YqdOnx2-377">
          <mxGeometry width="60" height="20" as="geometry">
            <mxRectangle width="60" height="20" as="alternateBounds" />
          </mxGeometry>
        </mxCell>
        <mxCell id="SeUheRbBUvaC_YqdOnx2-379" style="shape=tableRow;horizontal=0;startSize=0;swimlaneHead=0;swimlaneBody=0;strokeColor=inherit;top=0;left=0;bottom=0;right=0;collapsible=0;dropTarget=0;fillColor=none;points=[[0,0.5],[1,0.5]];portConstraint=eastwest;fontSize=16;" vertex="1" parent="SeUheRbBUvaC_YqdOnx2-366">
          <mxGeometry y="120" width="60" height="20" as="geometry" />
        </mxCell>
        <mxCell id="SeUheRbBUvaC_YqdOnx2-380" value="MOTOR" style="shape=partialRectangle;html=1;whiteSpace=wrap;connectable=0;strokeColor=inherit;overflow=hidden;fillColor=none;top=0;left=0;bottom=0;right=0;pointerEvents=1;fontSize=10;" vertex="1" parent="SeUheRbBUvaC_YqdOnx2-379">
          <mxGeometry width="60" height="20" as="geometry">
            <mxRectangle width="60" height="20" as="alternateBounds" />
          </mxGeometry>
        </mxCell>
        <mxCell id="SeUheRbBUvaC_YqdOnx2-381" style="edgeStyle=orthogonalEdgeStyle;rounded=0;orthogonalLoop=1;jettySize=auto;html=1;entryX=1;entryY=0.5;entryDx=0;entryDy=0;endArrow=none;endFill=0;" edge="1" parent="1" source="SeUheRbBUvaC_YqdOnx2-367" target="SeUheRbBUvaC_YqdOnx2-143">
          <mxGeometry relative="1" as="geometry" />
        </mxCell>
        <mxCell id="SeUheRbBUvaC_YqdOnx2-382" style="edgeStyle=orthogonalEdgeStyle;rounded=0;orthogonalLoop=1;jettySize=auto;html=1;entryX=0;entryY=0.5;entryDx=0;entryDy=0;endArrow=none;endFill=0;" edge="1" parent="1" source="SeUheRbBUvaC_YqdOnx2-369" target="SeUheRbBUvaC_YqdOnx2-139">
          <mxGeometry relative="1" as="geometry" />
        </mxCell>
        <mxCell id="SeUheRbBUvaC_YqdOnx2-383" style="edgeStyle=orthogonalEdgeStyle;rounded=0;orthogonalLoop=1;jettySize=auto;html=1;entryX=0;entryY=0.5;entryDx=0;entryDy=0;endArrow=none;endFill=0;" edge="1" parent="1" source="SeUheRbBUvaC_YqdOnx2-371" target="SeUheRbBUvaC_YqdOnx2-143">
          <mxGeometry relative="1" as="geometry" />
        </mxCell>
        <mxCell id="SeUheRbBUvaC_YqdOnx2-384" style="edgeStyle=orthogonalEdgeStyle;rounded=0;orthogonalLoop=1;jettySize=auto;html=1;entryX=0;entryY=0.5;entryDx=0;entryDy=0;endArrow=none;endFill=0;" edge="1" parent="1" source="SeUheRbBUvaC_YqdOnx2-373" target="SeUheRbBUvaC_YqdOnx2-147">
          <mxGeometry relative="1" as="geometry" />
        </mxCell>
        <mxCell id="SeUheRbBUvaC_YqdOnx2-385" value="&lt;font style=&quot;font-size: 12px;&quot;&gt;V&lt;sub style=&quot;&quot;&gt;CC&lt;/sub&gt;&lt;/font&gt;" style="pointerEvents=1;verticalLabelPosition=bottom;shadow=0;dashed=0;align=center;html=1;verticalAlign=top;shape=mxgraph.electrical.signal_sources.vss2;fontSize=24;flipV=1;rotation=90;" vertex="1" parent="1">
          <mxGeometry x="50" y="400" width="40" height="30" as="geometry" />
        </mxCell>
        <mxCell id="SeUheRbBUvaC_YqdOnx2-386" value="&lt;font style=&quot;font-size: 12px;&quot;&gt;V&lt;sub style=&quot;&quot;&gt;CC&lt;/sub&gt;&lt;/font&gt;" style="pointerEvents=1;verticalLabelPosition=bottom;shadow=0;dashed=0;align=center;html=1;verticalAlign=top;shape=mxgraph.electrical.signal_sources.vss2;fontSize=24;flipV=1;rotation=90;" vertex="1" parent="1">
          <mxGeometry x="50" y="126.5" width="40" height="30" as="geometry" />
        </mxCell>
        <mxCell id="SeUheRbBUvaC_YqdOnx2-387" value="&lt;font style=&quot;font-size: 12px;&quot;&gt;V&lt;sub style=&quot;&quot;&gt;CC&lt;/sub&gt;&lt;/font&gt;" style="pointerEvents=1;verticalLabelPosition=bottom;shadow=0;dashed=0;align=center;html=1;verticalAlign=top;shape=mxgraph.electrical.signal_sources.vss2;fontSize=24;flipV=1;rotation=90;" vertex="1" parent="1">
          <mxGeometry x="130" y="502.5" width="40" height="30" as="geometry" />
        </mxCell>
        <mxCell id="SeUheRbBUvaC_YqdOnx2-388" value="&lt;font style=&quot;font-size: 12px;&quot;&gt;V&lt;sub style=&quot;&quot;&gt;CC&lt;/sub&gt;&lt;/font&gt;" style="pointerEvents=1;verticalLabelPosition=bottom;shadow=0;dashed=0;align=center;html=1;verticalAlign=top;shape=mxgraph.electrical.signal_sources.vss2;fontSize=24;flipV=1;rotation=90;" vertex="1" parent="1">
          <mxGeometry x="40" y="654" width="40" height="30" as="geometry" />
        </mxCell>
        <mxCell id="SeUheRbBUvaC_YqdOnx2-389" style="edgeStyle=orthogonalEdgeStyle;rounded=0;orthogonalLoop=1;jettySize=auto;html=1;entryX=0.5;entryY=1;entryDx=0;entryDy=0;entryPerimeter=0;endArrow=none;endFill=0;" edge="1" parent="1" source="SeUheRbBUvaC_YqdOnx2-284" target="SeUheRbBUvaC_YqdOnx2-386">
          <mxGeometry relative="1" as="geometry" />
        </mxCell>
        <mxCell id="SeUheRbBUvaC_YqdOnx2-390" style="edgeStyle=orthogonalEdgeStyle;rounded=0;orthogonalLoop=1;jettySize=auto;html=1;entryX=0.5;entryY=1;entryDx=0;entryDy=0;entryPerimeter=0;endArrow=none;endFill=0;" edge="1" parent="1" source="SeUheRbBUvaC_YqdOnx2-299" target="SeUheRbBUvaC_YqdOnx2-222">
          <mxGeometry relative="1" as="geometry" />
        </mxCell>
        <mxCell id="SeUheRbBUvaC_YqdOnx2-391" style="edgeStyle=orthogonalEdgeStyle;rounded=0;orthogonalLoop=1;jettySize=auto;html=1;entryX=0.5;entryY=1;entryDx=0;entryDy=0;entryPerimeter=0;endArrow=none;endFill=0;" edge="1" parent="1" source="SeUheRbBUvaC_YqdOnx2-322" target="SeUheRbBUvaC_YqdOnx2-385">
          <mxGeometry relative="1" as="geometry" />
        </mxCell>
        <mxCell id="SeUheRbBUvaC_YqdOnx2-392" style="edgeStyle=orthogonalEdgeStyle;rounded=0;orthogonalLoop=1;jettySize=auto;html=1;entryX=0.5;entryY=1;entryDx=0;entryDy=0;entryPerimeter=0;endArrow=none;endFill=0;" edge="1" parent="1" source="SeUheRbBUvaC_YqdOnx2-341" target="SeUheRbBUvaC_YqdOnx2-387">
          <mxGeometry relative="1" as="geometry" />
        </mxCell>
        <mxCell id="SeUheRbBUvaC_YqdOnx2-393" style="edgeStyle=orthogonalEdgeStyle;rounded=0;orthogonalLoop=1;jettySize=auto;html=1;entryX=0.5;entryY=1;entryDx=0;entryDy=0;entryPerimeter=0;endArrow=none;endFill=0;" edge="1" parent="1" source="SeUheRbBUvaC_YqdOnx2-375" target="SeUheRbBUvaC_YqdOnx2-388">
          <mxGeometry relative="1" as="geometry" />
        </mxCell>
        <mxCell id="SeUheRbBUvaC_YqdOnx2-394" value="GND" style="pointerEvents=1;verticalLabelPosition=bottom;shadow=0;dashed=0;align=center;html=1;verticalAlign=top;shape=mxgraph.electrical.signal_sources.signal_ground;rotation=90;" vertex="1" parent="1">
          <mxGeometry x="80" y="542.5" width="40" height="30" as="geometry" />
        </mxCell>
        <mxCell id="SeUheRbBUvaC_YqdOnx2-395" value="GND" style="pointerEvents=1;verticalLabelPosition=bottom;shadow=0;dashed=0;align=center;html=1;verticalAlign=top;shape=mxgraph.electrical.signal_sources.signal_ground;rotation=90;" vertex="1" parent="1">
          <mxGeometry x="20" y="449" width="40" height="30" as="geometry" />
        </mxCell>
        <mxCell id="SeUheRbBUvaC_YqdOnx2-396" value="GND" style="pointerEvents=1;verticalLabelPosition=bottom;shadow=0;dashed=0;align=center;html=1;verticalAlign=top;shape=mxgraph.electrical.signal_sources.signal_ground;rotation=90;" vertex="1" parent="1">
          <mxGeometry x="70" y="270" width="40" height="30" as="geometry" />
        </mxCell>
        <mxCell id="SeUheRbBUvaC_YqdOnx2-397" value="GND" style="pointerEvents=1;verticalLabelPosition=bottom;shadow=0;dashed=0;align=center;html=1;verticalAlign=top;shape=mxgraph.electrical.signal_sources.signal_ground;rotation=90;" vertex="1" parent="1">
          <mxGeometry x="20" y="171.5" width="40" height="30" as="geometry" />
        </mxCell>
        <mxCell id="SeUheRbBUvaC_YqdOnx2-398" style="edgeStyle=orthogonalEdgeStyle;rounded=0;orthogonalLoop=1;jettySize=auto;html=1;endArrow=none;endFill=0;" edge="1" parent="1" source="SeUheRbBUvaC_YqdOnx2-377" target="SeUheRbBUvaC_YqdOnx2-221">
          <mxGeometry relative="1" as="geometry" />
        </mxCell>
        <mxCell id="SeUheRbBUvaC_YqdOnx2-399" style="edgeStyle=orthogonalEdgeStyle;rounded=0;orthogonalLoop=1;jettySize=auto;html=1;entryX=0.5;entryY=0;entryDx=0;entryDy=0;entryPerimeter=0;endArrow=none;endFill=0;" edge="1" parent="1" source="SeUheRbBUvaC_YqdOnx2-324" target="SeUheRbBUvaC_YqdOnx2-395">
          <mxGeometry relative="1" as="geometry" />
        </mxCell>
        <mxCell id="SeUheRbBUvaC_YqdOnx2-400" style="edgeStyle=orthogonalEdgeStyle;rounded=0;orthogonalLoop=1;jettySize=auto;html=1;entryX=0.5;entryY=0;entryDx=0;entryDy=0;entryPerimeter=0;endArrow=none;endFill=0;" edge="1" parent="1" source="SeUheRbBUvaC_YqdOnx2-343" target="SeUheRbBUvaC_YqdOnx2-394">
          <mxGeometry relative="1" as="geometry" />
        </mxCell>
        <mxCell id="SeUheRbBUvaC_YqdOnx2-401" style="edgeStyle=orthogonalEdgeStyle;rounded=0;orthogonalLoop=1;jettySize=auto;html=1;entryX=0.5;entryY=0;entryDx=0;entryDy=0;entryPerimeter=0;endArrow=none;endFill=0;" edge="1" parent="1" source="SeUheRbBUvaC_YqdOnx2-301" target="SeUheRbBUvaC_YqdOnx2-396">
          <mxGeometry relative="1" as="geometry" />
        </mxCell>
        <mxCell id="SeUheRbBUvaC_YqdOnx2-402" style="edgeStyle=orthogonalEdgeStyle;rounded=0;orthogonalLoop=1;jettySize=auto;html=1;entryX=0.5;entryY=0;entryDx=0;entryDy=0;entryPerimeter=0;endArrow=none;endFill=0;" edge="1" parent="1" source="SeUheRbBUvaC_YqdOnx2-286" target="SeUheRbBUvaC_YqdOnx2-397">
          <mxGeometry relative="1" as="geometry" />
        </mxCell>
        <mxCell id="SeUheRbBUvaC_YqdOnx2-404" value="" style="shape=table;startSize=0;container=1;collapsible=0;childLayout=tableLayout;fontSize=16;" vertex="1" parent="1">
          <mxGeometry x="-170" y="90" width="60" height="60" as="geometry" />
        </mxCell>
        <mxCell id="SeUheRbBUvaC_YqdOnx2-405" value="" style="shape=tableRow;horizontal=0;startSize=0;swimlaneHead=0;swimlaneBody=0;strokeColor=inherit;top=0;left=0;bottom=0;right=0;collapsible=0;dropTarget=0;fillColor=none;points=[[0,0.5],[1,0.5]];portConstraint=eastwest;fontSize=16;" vertex="1" parent="SeUheRbBUvaC_YqdOnx2-404">
          <mxGeometry width="60" height="20" as="geometry" />
        </mxCell>
        <mxCell id="SeUheRbBUvaC_YqdOnx2-406" value="SER" style="shape=partialRectangle;html=1;whiteSpace=wrap;connectable=0;strokeColor=inherit;overflow=hidden;fillColor=none;top=0;left=0;bottom=0;right=0;pointerEvents=1;fontSize=10;" vertex="1" parent="SeUheRbBUvaC_YqdOnx2-405">
          <mxGeometry width="60" height="20" as="geometry">
            <mxRectangle width="60" height="20" as="alternateBounds" />
          </mxGeometry>
        </mxCell>
        <mxCell id="SeUheRbBUvaC_YqdOnx2-409" value="" style="shape=tableRow;horizontal=0;startSize=0;swimlaneHead=0;swimlaneBody=0;strokeColor=inherit;top=0;left=0;bottom=0;right=0;collapsible=0;dropTarget=0;fillColor=none;points=[[0,0.5],[1,0.5]];portConstraint=eastwest;fontSize=16;" vertex="1" parent="SeUheRbBUvaC_YqdOnx2-404">
          <mxGeometry y="20" width="60" height="20" as="geometry" />
        </mxCell>
        <mxCell id="SeUheRbBUvaC_YqdOnx2-410" value="+Vcc" style="shape=partialRectangle;html=1;whiteSpace=wrap;connectable=0;strokeColor=inherit;overflow=hidden;fillColor=none;top=0;left=0;bottom=0;right=0;pointerEvents=1;fontSize=10;" vertex="1" parent="SeUheRbBUvaC_YqdOnx2-409">
          <mxGeometry width="60" height="20" as="geometry">
            <mxRectangle width="60" height="20" as="alternateBounds" />
          </mxGeometry>
        </mxCell>
        <mxCell id="SeUheRbBUvaC_YqdOnx2-413" value="" style="shape=tableRow;horizontal=0;startSize=0;swimlaneHead=0;swimlaneBody=0;strokeColor=inherit;top=0;left=0;bottom=0;right=0;collapsible=0;dropTarget=0;fillColor=none;points=[[0,0.5],[1,0.5]];portConstraint=eastwest;fontSize=16;" vertex="1" parent="SeUheRbBUvaC_YqdOnx2-404">
          <mxGeometry y="40" width="60" height="20" as="geometry" />
        </mxCell>
        <mxCell id="SeUheRbBUvaC_YqdOnx2-414" value="-GND" style="shape=partialRectangle;html=1;whiteSpace=wrap;connectable=0;strokeColor=inherit;overflow=hidden;fillColor=none;top=0;left=0;bottom=0;right=0;pointerEvents=1;fontSize=10;" vertex="1" parent="SeUheRbBUvaC_YqdOnx2-413">
          <mxGeometry width="60" height="20" as="geometry">
            <mxRectangle width="60" height="20" as="alternateBounds" />
          </mxGeometry>
        </mxCell>
        <mxCell id="SeUheRbBUvaC_YqdOnx2-417" value="" style="shape=table;startSize=0;container=1;collapsible=0;childLayout=tableLayout;fontSize=16;" vertex="1" parent="1">
          <mxGeometry x="-170" y="171.5" width="60" height="60" as="geometry" />
        </mxCell>
        <mxCell id="SeUheRbBUvaC_YqdOnx2-418" value="" style="shape=tableRow;horizontal=0;startSize=0;swimlaneHead=0;swimlaneBody=0;strokeColor=inherit;top=0;left=0;bottom=0;right=0;collapsible=0;dropTarget=0;fillColor=none;points=[[0,0.5],[1,0.5]];portConstraint=eastwest;fontSize=16;" vertex="1" parent="SeUheRbBUvaC_YqdOnx2-417">
          <mxGeometry width="60" height="20" as="geometry" />
        </mxCell>
        <mxCell id="SeUheRbBUvaC_YqdOnx2-419" value="SER" style="shape=partialRectangle;html=1;whiteSpace=wrap;connectable=0;strokeColor=inherit;overflow=hidden;fillColor=none;top=0;left=0;bottom=0;right=0;pointerEvents=1;fontSize=10;" vertex="1" parent="SeUheRbBUvaC_YqdOnx2-418">
          <mxGeometry width="60" height="20" as="geometry">
            <mxRectangle width="60" height="20" as="alternateBounds" />
          </mxGeometry>
        </mxCell>
        <mxCell id="SeUheRbBUvaC_YqdOnx2-420" value="" style="shape=tableRow;horizontal=0;startSize=0;swimlaneHead=0;swimlaneBody=0;strokeColor=inherit;top=0;left=0;bottom=0;right=0;collapsible=0;dropTarget=0;fillColor=none;points=[[0,0.5],[1,0.5]];portConstraint=eastwest;fontSize=16;" vertex="1" parent="SeUheRbBUvaC_YqdOnx2-417">
          <mxGeometry y="20" width="60" height="20" as="geometry" />
        </mxCell>
        <mxCell id="SeUheRbBUvaC_YqdOnx2-421" value="+Vcc" style="shape=partialRectangle;html=1;whiteSpace=wrap;connectable=0;strokeColor=inherit;overflow=hidden;fillColor=none;top=0;left=0;bottom=0;right=0;pointerEvents=1;fontSize=10;" vertex="1" parent="SeUheRbBUvaC_YqdOnx2-420">
          <mxGeometry width="60" height="20" as="geometry">
            <mxRectangle width="60" height="20" as="alternateBounds" />
          </mxGeometry>
        </mxCell>
        <mxCell id="SeUheRbBUvaC_YqdOnx2-422" value="" style="shape=tableRow;horizontal=0;startSize=0;swimlaneHead=0;swimlaneBody=0;strokeColor=inherit;top=0;left=0;bottom=0;right=0;collapsible=0;dropTarget=0;fillColor=none;points=[[0,0.5],[1,0.5]];portConstraint=eastwest;fontSize=16;" vertex="1" parent="SeUheRbBUvaC_YqdOnx2-417">
          <mxGeometry y="40" width="60" height="20" as="geometry" />
        </mxCell>
        <mxCell id="SeUheRbBUvaC_YqdOnx2-423" value="-GND" style="shape=partialRectangle;html=1;whiteSpace=wrap;connectable=0;strokeColor=inherit;overflow=hidden;fillColor=none;top=0;left=0;bottom=0;right=0;pointerEvents=1;fontSize=10;" vertex="1" parent="SeUheRbBUvaC_YqdOnx2-422">
          <mxGeometry width="60" height="20" as="geometry">
            <mxRectangle width="60" height="20" as="alternateBounds" />
          </mxGeometry>
        </mxCell>
        <mxCell id="SeUheRbBUvaC_YqdOnx2-424" value="" style="shape=table;startSize=0;container=1;collapsible=0;childLayout=tableLayout;fontSize=16;" vertex="1" parent="1">
          <mxGeometry x="-170" y="250" width="60" height="60" as="geometry" />
        </mxCell>
        <mxCell id="SeUheRbBUvaC_YqdOnx2-425" value="" style="shape=tableRow;horizontal=0;startSize=0;swimlaneHead=0;swimlaneBody=0;strokeColor=inherit;top=0;left=0;bottom=0;right=0;collapsible=0;dropTarget=0;fillColor=none;points=[[0,0.5],[1,0.5]];portConstraint=eastwest;fontSize=16;" vertex="1" parent="SeUheRbBUvaC_YqdOnx2-424">
          <mxGeometry width="60" height="20" as="geometry" />
        </mxCell>
        <mxCell id="SeUheRbBUvaC_YqdOnx2-426" value="SER" style="shape=partialRectangle;html=1;whiteSpace=wrap;connectable=0;strokeColor=inherit;overflow=hidden;fillColor=none;top=0;left=0;bottom=0;right=0;pointerEvents=1;fontSize=10;" vertex="1" parent="SeUheRbBUvaC_YqdOnx2-425">
          <mxGeometry width="60" height="20" as="geometry">
            <mxRectangle width="60" height="20" as="alternateBounds" />
          </mxGeometry>
        </mxCell>
        <mxCell id="SeUheRbBUvaC_YqdOnx2-427" value="" style="shape=tableRow;horizontal=0;startSize=0;swimlaneHead=0;swimlaneBody=0;strokeColor=inherit;top=0;left=0;bottom=0;right=0;collapsible=0;dropTarget=0;fillColor=none;points=[[0,0.5],[1,0.5]];portConstraint=eastwest;fontSize=16;" vertex="1" parent="SeUheRbBUvaC_YqdOnx2-424">
          <mxGeometry y="20" width="60" height="20" as="geometry" />
        </mxCell>
        <mxCell id="SeUheRbBUvaC_YqdOnx2-428" value="+Vcc" style="shape=partialRectangle;html=1;whiteSpace=wrap;connectable=0;strokeColor=inherit;overflow=hidden;fillColor=none;top=0;left=0;bottom=0;right=0;pointerEvents=1;fontSize=10;" vertex="1" parent="SeUheRbBUvaC_YqdOnx2-427">
          <mxGeometry width="60" height="20" as="geometry">
            <mxRectangle width="60" height="20" as="alternateBounds" />
          </mxGeometry>
        </mxCell>
        <mxCell id="SeUheRbBUvaC_YqdOnx2-429" value="" style="shape=tableRow;horizontal=0;startSize=0;swimlaneHead=0;swimlaneBody=0;strokeColor=inherit;top=0;left=0;bottom=0;right=0;collapsible=0;dropTarget=0;fillColor=none;points=[[0,0.5],[1,0.5]];portConstraint=eastwest;fontSize=16;" vertex="1" parent="SeUheRbBUvaC_YqdOnx2-424">
          <mxGeometry y="40" width="60" height="20" as="geometry" />
        </mxCell>
        <mxCell id="SeUheRbBUvaC_YqdOnx2-430" value="-GND" style="shape=partialRectangle;html=1;whiteSpace=wrap;connectable=0;strokeColor=inherit;overflow=hidden;fillColor=none;top=0;left=0;bottom=0;right=0;pointerEvents=1;fontSize=10;" vertex="1" parent="SeUheRbBUvaC_YqdOnx2-429">
          <mxGeometry width="60" height="20" as="geometry">
            <mxRectangle width="60" height="20" as="alternateBounds" />
          </mxGeometry>
        </mxCell>
        <mxCell id="SeUheRbBUvaC_YqdOnx2-431" value="" style="shape=table;startSize=0;container=1;collapsible=0;childLayout=tableLayout;fontSize=16;" vertex="1" parent="1">
          <mxGeometry x="-170" y="335" width="60" height="60" as="geometry" />
        </mxCell>
        <mxCell id="SeUheRbBUvaC_YqdOnx2-432" value="" style="shape=tableRow;horizontal=0;startSize=0;swimlaneHead=0;swimlaneBody=0;strokeColor=inherit;top=0;left=0;bottom=0;right=0;collapsible=0;dropTarget=0;fillColor=none;points=[[0,0.5],[1,0.5]];portConstraint=eastwest;fontSize=16;" vertex="1" parent="SeUheRbBUvaC_YqdOnx2-431">
          <mxGeometry width="60" height="20" as="geometry" />
        </mxCell>
        <mxCell id="SeUheRbBUvaC_YqdOnx2-433" value="SER" style="shape=partialRectangle;html=1;whiteSpace=wrap;connectable=0;strokeColor=inherit;overflow=hidden;fillColor=none;top=0;left=0;bottom=0;right=0;pointerEvents=1;fontSize=10;" vertex="1" parent="SeUheRbBUvaC_YqdOnx2-432">
          <mxGeometry width="60" height="20" as="geometry">
            <mxRectangle width="60" height="20" as="alternateBounds" />
          </mxGeometry>
        </mxCell>
        <mxCell id="SeUheRbBUvaC_YqdOnx2-434" value="" style="shape=tableRow;horizontal=0;startSize=0;swimlaneHead=0;swimlaneBody=0;strokeColor=inherit;top=0;left=0;bottom=0;right=0;collapsible=0;dropTarget=0;fillColor=none;points=[[0,0.5],[1,0.5]];portConstraint=eastwest;fontSize=16;" vertex="1" parent="SeUheRbBUvaC_YqdOnx2-431">
          <mxGeometry y="20" width="60" height="20" as="geometry" />
        </mxCell>
        <mxCell id="SeUheRbBUvaC_YqdOnx2-435" value="+Vcc" style="shape=partialRectangle;html=1;whiteSpace=wrap;connectable=0;strokeColor=inherit;overflow=hidden;fillColor=none;top=0;left=0;bottom=0;right=0;pointerEvents=1;fontSize=10;" vertex="1" parent="SeUheRbBUvaC_YqdOnx2-434">
          <mxGeometry width="60" height="20" as="geometry">
            <mxRectangle width="60" height="20" as="alternateBounds" />
          </mxGeometry>
        </mxCell>
        <mxCell id="SeUheRbBUvaC_YqdOnx2-436" value="" style="shape=tableRow;horizontal=0;startSize=0;swimlaneHead=0;swimlaneBody=0;strokeColor=inherit;top=0;left=0;bottom=0;right=0;collapsible=0;dropTarget=0;fillColor=none;points=[[0,0.5],[1,0.5]];portConstraint=eastwest;fontSize=16;" vertex="1" parent="SeUheRbBUvaC_YqdOnx2-431">
          <mxGeometry y="40" width="60" height="20" as="geometry" />
        </mxCell>
        <mxCell id="SeUheRbBUvaC_YqdOnx2-437" value="-GND" style="shape=partialRectangle;html=1;whiteSpace=wrap;connectable=0;strokeColor=inherit;overflow=hidden;fillColor=none;top=0;left=0;bottom=0;right=0;pointerEvents=1;fontSize=10;" vertex="1" parent="SeUheRbBUvaC_YqdOnx2-436">
          <mxGeometry width="60" height="20" as="geometry">
            <mxRectangle width="60" height="20" as="alternateBounds" />
          </mxGeometry>
        </mxCell>
        <mxCell id="SeUheRbBUvaC_YqdOnx2-438" value="" style="shape=table;startSize=0;container=1;collapsible=0;childLayout=tableLayout;fontSize=16;" vertex="1" parent="1">
          <mxGeometry x="-170" y="413.5" width="60" height="60" as="geometry" />
        </mxCell>
        <mxCell id="SeUheRbBUvaC_YqdOnx2-439" value="" style="shape=tableRow;horizontal=0;startSize=0;swimlaneHead=0;swimlaneBody=0;strokeColor=inherit;top=0;left=0;bottom=0;right=0;collapsible=0;dropTarget=0;fillColor=none;points=[[0,0.5],[1,0.5]];portConstraint=eastwest;fontSize=16;" vertex="1" parent="SeUheRbBUvaC_YqdOnx2-438">
          <mxGeometry width="60" height="20" as="geometry" />
        </mxCell>
        <mxCell id="SeUheRbBUvaC_YqdOnx2-440" value="SER" style="shape=partialRectangle;html=1;whiteSpace=wrap;connectable=0;strokeColor=inherit;overflow=hidden;fillColor=none;top=0;left=0;bottom=0;right=0;pointerEvents=1;fontSize=10;" vertex="1" parent="SeUheRbBUvaC_YqdOnx2-439">
          <mxGeometry width="60" height="20" as="geometry">
            <mxRectangle width="60" height="20" as="alternateBounds" />
          </mxGeometry>
        </mxCell>
        <mxCell id="SeUheRbBUvaC_YqdOnx2-441" value="" style="shape=tableRow;horizontal=0;startSize=0;swimlaneHead=0;swimlaneBody=0;strokeColor=inherit;top=0;left=0;bottom=0;right=0;collapsible=0;dropTarget=0;fillColor=none;points=[[0,0.5],[1,0.5]];portConstraint=eastwest;fontSize=16;" vertex="1" parent="SeUheRbBUvaC_YqdOnx2-438">
          <mxGeometry y="20" width="60" height="20" as="geometry" />
        </mxCell>
        <mxCell id="SeUheRbBUvaC_YqdOnx2-442" value="+Vcc" style="shape=partialRectangle;html=1;whiteSpace=wrap;connectable=0;strokeColor=inherit;overflow=hidden;fillColor=none;top=0;left=0;bottom=0;right=0;pointerEvents=1;fontSize=10;" vertex="1" parent="SeUheRbBUvaC_YqdOnx2-441">
          <mxGeometry width="60" height="20" as="geometry">
            <mxRectangle width="60" height="20" as="alternateBounds" />
          </mxGeometry>
        </mxCell>
        <mxCell id="SeUheRbBUvaC_YqdOnx2-443" value="" style="shape=tableRow;horizontal=0;startSize=0;swimlaneHead=0;swimlaneBody=0;strokeColor=inherit;top=0;left=0;bottom=0;right=0;collapsible=0;dropTarget=0;fillColor=none;points=[[0,0.5],[1,0.5]];portConstraint=eastwest;fontSize=16;" vertex="1" parent="SeUheRbBUvaC_YqdOnx2-438">
          <mxGeometry y="40" width="60" height="20" as="geometry" />
        </mxCell>
        <mxCell id="SeUheRbBUvaC_YqdOnx2-444" value="-GND" style="shape=partialRectangle;html=1;whiteSpace=wrap;connectable=0;strokeColor=inherit;overflow=hidden;fillColor=none;top=0;left=0;bottom=0;right=0;pointerEvents=1;fontSize=10;" vertex="1" parent="SeUheRbBUvaC_YqdOnx2-443">
          <mxGeometry width="60" height="20" as="geometry">
            <mxRectangle width="60" height="20" as="alternateBounds" />
          </mxGeometry>
        </mxCell>
        <mxCell id="SeUheRbBUvaC_YqdOnx2-445" style="edgeStyle=orthogonalEdgeStyle;rounded=0;orthogonalLoop=1;jettySize=auto;html=1;entryX=0;entryY=0.5;entryDx=0;entryDy=0;endArrow=none;endFill=0;" edge="1" parent="1" source="SeUheRbBUvaC_YqdOnx2-405" target="SeUheRbBUvaC_YqdOnx2-263">
          <mxGeometry relative="1" as="geometry" />
        </mxCell>
        <mxCell id="SeUheRbBUvaC_YqdOnx2-446" value="GP3" style="rounded=0;whiteSpace=wrap;html=1;fontSize=10;fillColor=#B9E0A5;" vertex="1" parent="1">
          <mxGeometry x="-70" y="250" width="60" height="20" as="geometry" />
        </mxCell>
        <mxCell id="SeUheRbBUvaC_YqdOnx2-447" value="GP4" style="rounded=0;whiteSpace=wrap;html=1;fontSize=10;fillColor=#B9E0A5;" vertex="1" parent="1">
          <mxGeometry x="-70" y="335" width="60" height="20" as="geometry" />
        </mxCell>
        <mxCell id="SeUheRbBUvaC_YqdOnx2-448" value="GP2" style="rounded=0;whiteSpace=wrap;html=1;fontSize=10;fillColor=#B9E0A5;" vertex="1" parent="1">
          <mxGeometry x="-70" y="171.5" width="60" height="20" as="geometry" />
        </mxCell>
        <mxCell id="SeUheRbBUvaC_YqdOnx2-449" value="GP5" style="rounded=0;whiteSpace=wrap;html=1;fontSize=10;fillColor=#B9E0A5;" vertex="1" parent="1">
          <mxGeometry x="-70" y="413.5" width="60" height="20" as="geometry" />
        </mxCell>
        <mxCell id="SeUheRbBUvaC_YqdOnx2-450" style="edgeStyle=orthogonalEdgeStyle;rounded=0;orthogonalLoop=1;jettySize=auto;html=1;entryX=0;entryY=0.5;entryDx=0;entryDy=0;endArrow=none;endFill=0;" edge="1" parent="1" source="SeUheRbBUvaC_YqdOnx2-418" target="SeUheRbBUvaC_YqdOnx2-448">
          <mxGeometry relative="1" as="geometry" />
        </mxCell>
        <mxCell id="SeUheRbBUvaC_YqdOnx2-451" style="edgeStyle=orthogonalEdgeStyle;rounded=0;orthogonalLoop=1;jettySize=auto;html=1;entryX=0;entryY=0.5;entryDx=0;entryDy=0;endArrow=none;endFill=0;" edge="1" parent="1" source="SeUheRbBUvaC_YqdOnx2-425" target="SeUheRbBUvaC_YqdOnx2-446">
          <mxGeometry relative="1" as="geometry" />
        </mxCell>
        <mxCell id="SeUheRbBUvaC_YqdOnx2-452" style="edgeStyle=orthogonalEdgeStyle;rounded=0;orthogonalLoop=1;jettySize=auto;html=1;endArrow=none;endFill=0;" edge="1" parent="1" source="SeUheRbBUvaC_YqdOnx2-432" target="SeUheRbBUvaC_YqdOnx2-447">
          <mxGeometry relative="1" as="geometry" />
        </mxCell>
        <mxCell id="SeUheRbBUvaC_YqdOnx2-453" style="edgeStyle=orthogonalEdgeStyle;rounded=0;orthogonalLoop=1;jettySize=auto;html=1;entryX=0;entryY=0.5;entryDx=0;entryDy=0;endArrow=none;endFill=0;" edge="1" parent="1" source="SeUheRbBUvaC_YqdOnx2-439" target="SeUheRbBUvaC_YqdOnx2-449">
          <mxGeometry relative="1" as="geometry" />
        </mxCell>
        <mxCell id="SeUheRbBUvaC_YqdOnx2-454" value="&lt;font style=&quot;font-size: 12px;&quot;&gt;V&lt;sub style=&quot;&quot;&gt;CC&lt;/sub&gt;&lt;/font&gt;" style="pointerEvents=1;verticalLabelPosition=bottom;shadow=0;dashed=0;align=center;html=1;verticalAlign=top;shape=mxgraph.electrical.signal_sources.vss2;fontSize=24;flipV=1;rotation=90;" vertex="1" parent="1">
          <mxGeometry x="-250" y="350" width="40" height="30" as="geometry" />
        </mxCell>
        <mxCell id="SeUheRbBUvaC_YqdOnx2-455" value="&lt;font style=&quot;font-size: 12px;&quot;&gt;V&lt;sub style=&quot;&quot;&gt;CC&lt;/sub&gt;&lt;/font&gt;" style="pointerEvents=1;verticalLabelPosition=bottom;shadow=0;dashed=0;align=center;html=1;verticalAlign=top;shape=mxgraph.electrical.signal_sources.vss2;fontSize=24;flipV=1;rotation=90;" vertex="1" parent="1">
          <mxGeometry x="-250" y="186.5" width="40" height="30" as="geometry" />
        </mxCell>
        <mxCell id="SeUheRbBUvaC_YqdOnx2-456" value="&lt;font style=&quot;font-size: 12px;&quot;&gt;V&lt;sub style=&quot;&quot;&gt;CC&lt;/sub&gt;&lt;/font&gt;" style="pointerEvents=1;verticalLabelPosition=bottom;shadow=0;dashed=0;align=center;html=1;verticalAlign=top;shape=mxgraph.electrical.signal_sources.vss2;fontSize=24;flipV=1;rotation=90;" vertex="1" parent="1">
          <mxGeometry x="-250" y="428.5" width="40" height="30" as="geometry" />
        </mxCell>
        <mxCell id="SeUheRbBUvaC_YqdOnx2-457" value="&lt;font style=&quot;font-size: 12px;&quot;&gt;V&lt;sub style=&quot;&quot;&gt;CC&lt;/sub&gt;&lt;/font&gt;" style="pointerEvents=1;verticalLabelPosition=bottom;shadow=0;dashed=0;align=center;html=1;verticalAlign=top;shape=mxgraph.electrical.signal_sources.vss2;fontSize=24;flipV=1;rotation=90;" vertex="1" parent="1">
          <mxGeometry x="-250" y="265" width="40" height="30" as="geometry" />
        </mxCell>
        <mxCell id="SeUheRbBUvaC_YqdOnx2-458" value="&lt;font style=&quot;font-size: 12px;&quot;&gt;V&lt;sub style=&quot;&quot;&gt;CC&lt;/sub&gt;&lt;/font&gt;" style="pointerEvents=1;verticalLabelPosition=bottom;shadow=0;dashed=0;align=center;html=1;verticalAlign=top;shape=mxgraph.electrical.signal_sources.vss2;fontSize=24;flipV=1;rotation=90;" vertex="1" parent="1">
          <mxGeometry x="-250" y="105" width="40" height="30" as="geometry" />
        </mxCell>
        <mxCell id="SeUheRbBUvaC_YqdOnx2-459" style="edgeStyle=orthogonalEdgeStyle;rounded=0;orthogonalLoop=1;jettySize=auto;html=1;entryX=0.5;entryY=1;entryDx=0;entryDy=0;entryPerimeter=0;endArrow=none;endFill=0;" edge="1" parent="1" source="SeUheRbBUvaC_YqdOnx2-409" target="SeUheRbBUvaC_YqdOnx2-458">
          <mxGeometry relative="1" as="geometry" />
        </mxCell>
        <mxCell id="SeUheRbBUvaC_YqdOnx2-460" style="edgeStyle=orthogonalEdgeStyle;rounded=0;orthogonalLoop=1;jettySize=auto;html=1;entryX=0.5;entryY=1;entryDx=0;entryDy=0;entryPerimeter=0;endArrow=none;endFill=0;" edge="1" parent="1" source="SeUheRbBUvaC_YqdOnx2-420" target="SeUheRbBUvaC_YqdOnx2-455">
          <mxGeometry relative="1" as="geometry" />
        </mxCell>
        <mxCell id="SeUheRbBUvaC_YqdOnx2-461" style="edgeStyle=orthogonalEdgeStyle;rounded=0;orthogonalLoop=1;jettySize=auto;html=1;entryX=0.5;entryY=1;entryDx=0;entryDy=0;entryPerimeter=0;endArrow=none;endFill=0;" edge="1" parent="1" source="SeUheRbBUvaC_YqdOnx2-427" target="SeUheRbBUvaC_YqdOnx2-457">
          <mxGeometry relative="1" as="geometry" />
        </mxCell>
        <mxCell id="SeUheRbBUvaC_YqdOnx2-462" style="edgeStyle=orthogonalEdgeStyle;rounded=0;orthogonalLoop=1;jettySize=auto;html=1;entryX=0.5;entryY=1;entryDx=0;entryDy=0;entryPerimeter=0;endArrow=none;endFill=0;" edge="1" parent="1" source="SeUheRbBUvaC_YqdOnx2-434" target="SeUheRbBUvaC_YqdOnx2-454">
          <mxGeometry relative="1" as="geometry" />
        </mxCell>
        <mxCell id="SeUheRbBUvaC_YqdOnx2-463" style="edgeStyle=orthogonalEdgeStyle;rounded=0;orthogonalLoop=1;jettySize=auto;html=1;entryX=0.5;entryY=1;entryDx=0;entryDy=0;entryPerimeter=0;endArrow=none;endFill=0;" edge="1" parent="1" source="SeUheRbBUvaC_YqdOnx2-441" target="SeUheRbBUvaC_YqdOnx2-456">
          <mxGeometry relative="1" as="geometry" />
        </mxCell>
        <mxCell id="SeUheRbBUvaC_YqdOnx2-464" style="edgeStyle=orthogonalEdgeStyle;rounded=0;orthogonalLoop=1;jettySize=auto;html=1;entryX=0.5;entryY=0;entryDx=0;entryDy=0;entryPerimeter=0;endArrow=none;endFill=0;" edge="1" parent="1" source="SeUheRbBUvaC_YqdOnx2-413" target="SeUheRbBUvaC_YqdOnx2-218">
          <mxGeometry relative="1" as="geometry" />
        </mxCell>
        <mxCell id="SeUheRbBUvaC_YqdOnx2-465" style="edgeStyle=orthogonalEdgeStyle;rounded=0;orthogonalLoop=1;jettySize=auto;html=1;entryX=0.5;entryY=0;entryDx=0;entryDy=0;entryPerimeter=0;endArrow=none;endFill=0;" edge="1" parent="1" source="SeUheRbBUvaC_YqdOnx2-422" target="SeUheRbBUvaC_YqdOnx2-467">
          <mxGeometry relative="1" as="geometry" />
        </mxCell>
        <mxCell id="SeUheRbBUvaC_YqdOnx2-466" value="GND" style="pointerEvents=1;verticalLabelPosition=bottom;shadow=0;dashed=0;align=center;html=1;verticalAlign=top;shape=mxgraph.electrical.signal_sources.signal_ground;rotation=90;" vertex="1" parent="1">
          <mxGeometry x="-240" y="388" width="40" height="30" as="geometry" />
        </mxCell>
        <mxCell id="SeUheRbBUvaC_YqdOnx2-467" value="GND" style="pointerEvents=1;verticalLabelPosition=bottom;shadow=0;dashed=0;align=center;html=1;verticalAlign=top;shape=mxgraph.electrical.signal_sources.signal_ground;rotation=90;" vertex="1" parent="1">
          <mxGeometry x="-240" y="224" width="40" height="30" as="geometry" />
        </mxCell>
        <mxCell id="SeUheRbBUvaC_YqdOnx2-468" value="GND" style="pointerEvents=1;verticalLabelPosition=bottom;shadow=0;dashed=0;align=center;html=1;verticalAlign=top;shape=mxgraph.electrical.signal_sources.signal_ground;rotation=90;" vertex="1" parent="1">
          <mxGeometry x="-240" y="305" width="40" height="30" as="geometry" />
        </mxCell>
        <mxCell id="SeUheRbBUvaC_YqdOnx2-469" value="GND" style="pointerEvents=1;verticalLabelPosition=bottom;shadow=0;dashed=0;align=center;html=1;verticalAlign=top;shape=mxgraph.electrical.signal_sources.signal_ground;rotation=90;" vertex="1" parent="1">
          <mxGeometry x="-240" y="474" width="40" height="30" as="geometry" />
        </mxCell>
        <mxCell id="SeUheRbBUvaC_YqdOnx2-470" style="edgeStyle=orthogonalEdgeStyle;rounded=0;orthogonalLoop=1;jettySize=auto;html=1;endArrow=none;endFill=0;" edge="1" parent="1" source="SeUheRbBUvaC_YqdOnx2-443" target="SeUheRbBUvaC_YqdOnx2-469">
          <mxGeometry relative="1" as="geometry" />
        </mxCell>
        <mxCell id="SeUheRbBUvaC_YqdOnx2-471" style="edgeStyle=orthogonalEdgeStyle;rounded=0;orthogonalLoop=1;jettySize=auto;html=1;entryX=0.55;entryY=-0.233;entryDx=0;entryDy=0;entryPerimeter=0;endArrow=none;endFill=0;" edge="1" parent="1" source="SeUheRbBUvaC_YqdOnx2-436" target="SeUheRbBUvaC_YqdOnx2-466">
          <mxGeometry relative="1" as="geometry" />
        </mxCell>
        <mxCell id="SeUheRbBUvaC_YqdOnx2-472" style="edgeStyle=orthogonalEdgeStyle;rounded=0;orthogonalLoop=1;jettySize=auto;html=1;entryX=0.5;entryY=0;entryDx=0;entryDy=0;entryPerimeter=0;endArrow=none;endFill=0;" edge="1" parent="1" source="SeUheRbBUvaC_YqdOnx2-429" target="SeUheRbBUvaC_YqdOnx2-468">
          <mxGeometry relative="1" as="geometry" />
        </mxCell>
      </root>
    </mxGraphModel>
  </diagram>
</mxfile>
